<svg width="63" height="43" viewBox="0 0 63 43" fill="none" xmlns="http://www.w3.org/2000/svg">
<path id="bone" d="M60.1118 26.747C61.7925 22.4484 59.3677 17.5374 54.942 16.2766C51.1619 15.1562 47.2302 16.9967 45.576 20.5319C45.5058 20.74 45.3441 20.7627 45.1367 20.6927L21.5613 12.7419C21.3539 12.672 21.2624 12.4867 21.3092 12.348C22.1338 8.53292 20.0506 4.66395 16.4332 3.28952C12.1477 1.61258 7.28984 4.14466 5.9782 8.49055C5.55624 9.97007 5.57247 11.5201 6.00455 12.9788C6.02692 13.1408 5.98015 13.2794 5.86424 13.3948C4.66043 14.2245 3.70876 15.4481 3.12514 16.9504C1.44443 21.249 3.86919 26.1599 8.29493 27.4208C12.0751 28.5412 16.0067 26.7007 17.661 23.1655C17.7312 22.9574 17.8928 22.9347 18.1002 23.0047L41.6756 30.9555C41.8831 31.0254 41.9746 31.2107 41.9278 31.3494C41.1032 35.1645 43.1863 39.0334 46.8038 40.4079C51.0892 42.0848 55.9471 39.5527 57.2587 35.2068C57.6807 33.7273 57.6645 32.1773 57.2324 30.7186C57.21 30.5566 57.2568 30.418 57.3727 30.3026C58.5999 29.4035 59.5516 28.1799 60.1118 26.747Z" fill="black" stroke="black" stroke-width="4" stroke-miterlimit="10"/>
</svg>
