<svg width="286" height="213" viewBox="0 0 286 213" fill="none" xmlns="http://www.w3.org/2000/svg">
<g id="dog">
<path id="dog1" d="M252.347 74.5788C252.462 77.0243 250.319 81.5166 240.835 79.8951C243.882 82.4824 248.557 88.2949 242.872 90.9087C235.788 94.1694 233.724 85.5924 225.932 87.2316C219.733 88.543 215.208 94.0365 213.738 96.6149C213.446 97.1731 213.101 97.8997 212.72 98.7946C205.503 99.8933 196.355 115.266 193.645 118.066C190.936 120.866 181.248 125.323 181.248 125.323C175.74 125.668 185.959 135.114 185.959 135.114C200.553 148.75 196.886 151.807 196.886 151.807C187.969 158.895 188.58 165.275 188.58 165.275L182.638 172C175.474 167.809 181.948 161.252 181.948 161.252C181.948 161.252 185.49 155.307 187.624 154.084C189.758 152.861 189.28 147.961 180.106 142.805C170.932 137.648 162.811 129.603 162.811 129.603C162.811 129.603 151.716 140.093 152.583 145.782C153.451 151.47 148.758 152.418 148.758 152.418C148.758 152.418 130.312 155.484 127.691 150.85C125.07 146.216 142.276 144.205 142.276 144.205L145.597 140.66C145.34 135.415 148.758 124.313 148.758 124.313C148.758 124.313 143.764 121.655 141.753 118.81C139.743 115.966 128.47 107.292 128.47 107.292L129.701 133.262C129.701 133.262 123.759 141.653 125.769 143.31C127.78 144.967 125.938 152.17 125.938 152.17C145.163 164.672 152.327 157.486 155.47 164.407C158.614 171.327 142.541 167.472 142.541 167.472L141.842 164.974C135.63 163.27 129.771 160.474 124.539 156.716C124.539 156.716 125.07 156.193 118.429 156.104C111.787 156.016 117.029 149.982 117.029 149.982L116.064 137.834C108.094 137.657 105.314 160.517 115.63 161.084C125.947 161.651 120.439 166.4 120.439 166.4C106.536 164.389 100.523 156.769 98.0879 152.055C97.5697 151.039 97.3174 149.907 97.3546 148.767C97.3918 147.627 97.7172 146.514 98.3004 145.534C103.33 136.939 103.401 129.682 103.401 129.682C103.401 129.682 101.825 114.557 91.8892 109.923C81.9536 105.289 83.9195 92.5302 83.9195 92.5302C78.2343 89.6417 79.111 85.6279 79.111 85.6279C79.5449 77.9281 71.4245 79.2395 71.4245 79.2395C63.4866 80.0032 55.4789 78.9582 48.0023 76.1826C27.2986 66.3032 33.152 47.0759 35.9503 56.6009C38.7485 66.1259 51.6773 75.1371 57.3536 73.3827C63.0298 71.6283 69.2373 73.3827 69.2373 73.3827H85.841C92.3054 65.5146 106.979 58.6122 106.979 58.6122C106.979 58.6122 134.156 53.1896 144.463 57.7262C154.771 62.2628 173.597 67.1272 173.597 67.1272C182.851 65.612 193.203 71.5574 193.203 71.5574C195.859 67.6234 202.2 60.1097 209.346 56.7338C209.124 54.2795 211.188 50.6555 218.511 49.3442C227.65 47.7138 236.098 52.2504 236.098 55.1035C237.014 55.5228 237.773 56.2246 238.262 57.1063C238.751 57.988 238.945 59.0032 238.816 60.0033C238.542 62.9362 246.786 67.1981 251.01 68.9701C252.117 69.1385 254.003 70.6714 252.347 74.5788Z" fill="#542D00"/>
<path id="dog2" d="M248.364 73.4008C248.478 75.8159 246.369 80.2627 237.014 78.6527C240.021 81.2115 244.651 86.9617 239.019 89.5493C231.994 92.7886 229.999 84.2974 222.305 85.9171C216.158 87.2109 211.729 92.6256 210.278 95.2036C209.992 95.7499 209.648 96.4783 209.276 97.36L205.362 98.7975L195.464 113.834L184.334 120.735C184.334 120.735 187.494 126.389 199.606 133.701C208.674 138.943 204.284 147.358 204.284 147.358L201.802 157.842C201.802 157.842 193.698 170.531 193.975 159.759C194.385 153.137 196.838 154.785 196.838 154.785C196.838 154.785 201.267 142.096 194.805 140.026C188.343 137.956 170.942 130.098 169.94 128.718C168.937 127.338 166.122 127.606 166.914 135.474C167.706 143.342 167.735 155.6 157.712 152.303C147.69 149.006 133.935 147.895 136.55 140.161C139.166 132.427 149.742 144.301 149.742 144.301L156.195 144.023L154.686 127.884C154.686 127.884 146.85 124.3 143.557 121.817C140.263 119.335 136.226 117.026 136.226 117.026C136.226 117.026 129.401 113.077 126.385 109.253C123.368 105.429 122.566 109.301 124.59 114.821C124.59 114.821 123.636 123.236 127.062 135.378C127.062 135.378 119.789 156.462 144.931 165.73C144.931 165.73 157.712 166.688 150.973 172.898C144.234 179.109 116.209 157.037 116.209 157.037L115.112 141.704C115.112 141.704 111.103 123.044 105.576 130.903C105.576 130.903 103.667 138.349 97.1951 142.077C90.7234 145.805 88.948 152.428 91.6971 156.29C94.4461 160.152 100.765 163.324 100.765 163.324C100.765 163.324 125.907 165.941 109.146 169.803L97.4719 168.566C97.4719 168.566 71.776 152.84 80.0136 146.074C88.2512 139.308 92.5179 129.389 89.0816 123.868C85.6453 118.348 84.8244 117.246 86.218 112.972C86.218 112.972 80.3095 109.378 80.0327 105.238C79.7559 101.098 79.7654 95.3091 79.7654 95.3091C79.7654 95.3091 73.5801 88.4088 75.7755 84.2687C70.2414 79.6327 63.1899 77.225 55.9881 77.5122C44.0374 78.0681 37.0312 64.8235 37.0312 64.8235C37.0312 64.8235 36.3439 43.1644 41.422 50.8888L41.0116 62.3892C42.6991 65.5474 45.2883 68.1272 48.4467 69.7973C51.6051 71.4673 55.1886 72.1515 58.7372 71.762C58.7372 71.762 63.4144 71.6279 66.1539 73.8321C71.6333 74.1911 77.0665 75.0703 82.3808 76.458C82.3808 76.458 97.9206 52.1635 145.599 62.6576C178.836 69.2799 190.004 70.3245 190.004 70.3245C192.667 66.4335 198.881 58.9966 205.935 55.6519C205.715 53.2273 207.758 49.6334 214.974 48.3396C223.995 46.7295 232.328 51.2147 232.328 54.0323C233.23 54.4516 233.977 55.1484 234.459 56.0219C234.941 56.8954 235.134 57.9003 235.01 58.8912C234.733 61.7663 242.913 66.0118 247.037 67.7656C248.144 67.9861 249.977 69.5003 248.364 73.4008Z" fill="#542D00"/>
<path id="dog3" d="M248.333 72.709C248.453 75.2501 246.22 79.9022 236.368 78.2114C239.542 80.9026 244.378 86.9353 238.481 89.6465C231.092 93.038 228.98 84.144 220.88 85.8348C214.402 87.1854 209.727 92.8879 208.205 95.569C207.904 96.1493 207.544 96.9096 207.153 97.83C207.153 97.83 206.633 107.074 190.924 116.838C190.924 116.838 204.32 125.192 209.947 125.762C209.947 125.762 217.436 128.063 214.953 137.137C212.47 146.211 215.443 150.143 215.443 150.143C215.443 150.143 211.198 157.346 208.315 150.143C205.431 142.94 213.942 144.09 207.314 136.457C200.686 128.824 183.816 127.823 183.816 127.823C183.816 127.823 180.572 127.103 186.819 137.617C193.067 148.132 173.483 145.531 173.483 145.531C173.483 145.531 161.809 146.251 161.379 140.349C160.948 134.446 169.008 136.897 169.008 136.897C169.008 136.897 178.96 144.09 177.808 136.747C177.808 136.747 170.89 131.145 166.855 125.592H155.321C155.321 125.592 138.601 118.889 125.916 110.826C125.916 110.826 120.049 106.964 118.287 104.943C118.527 105.403 124.204 116.948 118.287 140.349C118.287 140.349 112.09 149.133 116.125 158.927L124.204 165.7C124.204 165.7 130.972 165.12 131.403 172.463C131.833 179.806 104.891 158.457 104.891 158.457V147.532C104.891 147.532 106.613 137.157 102.729 131.525C98.8439 125.892 95.0895 133.826 95.0895 133.826C95.0895 133.826 90.6141 140.599 84.1364 141.889C84.1364 141.889 77.9389 147.222 78.2193 150.683C78.4996 154.145 84.4167 159.607 84.4167 159.607C84.4167 159.607 94.0782 158.026 92.0558 164.069C89.2913 165.074 86.3084 165.322 83.4155 164.789C79.2305 163.789 66.6955 151.544 65.8244 145.491C65.8244 145.491 77.0679 137.858 81.2529 128.353C81.9893 122.898 81.8914 117.362 80.9626 111.936L77.3583 105.313L77.5084 93.3581C77.5084 93.3581 74.1845 91.6373 74.9053 84.7243L55.5922 74.93C55.5922 74.93 42.1962 71.9287 37 61.5342C37 61.5342 38.1614 43.6763 40.8946 48.1383L41.0448 59.9535C41.0448 59.9535 48.9643 70.318 58.4757 70.6081C58.4757 70.6081 62.951 70.318 64.9634 73.1993C66.9758 76.0805 82.6946 77.5211 82.6946 77.5211C82.6946 77.5211 93.5176 65.656 115.354 63.1649C121.11 62.5459 126.922 62.6433 132.654 63.455C136.419 63.9552 141.956 64.7056 147.412 65.5059C156.968 66.8694 166.614 67.5048 176.267 67.4067C180.802 67.4067 185.277 67.8269 186.859 69.4076C189.663 65.3258 196.21 57.5324 203.639 54.0209C203.409 51.4797 205.562 47.7181 213.161 46.3575C222.672 44.6668 231.453 49.3588 231.453 52.3601C232.402 52.7971 233.187 53.5259 233.694 54.4401C234.2 55.3543 234.4 56.4062 234.266 57.4424C233.986 60.4437 242.596 64.9156 246.941 66.7564C248.102 67.0666 250.025 68.6473 248.333 72.709Z" fill="#542D00"/>
<path id="dog4" d="M252.378 70.7924C252.486 73.2506 250.339 77.7308 240.857 76.125C243.909 78.7319 248.587 84.5799 242.895 87.2066C235.776 90.4974 233.748 81.874 225.949 83.5094C219.716 84.8277 215.216 90.3586 213.749 92.9555C213.454 93.5106 213.119 94.2441 212.764 95.1461C212.764 95.1461 210.342 108.111 198.634 114.901C198.634 114.901 204.838 121.155 219.755 123.296C219.755 123.296 225.073 120.075 230.223 141.702C230.223 141.702 237.115 146.877 229.514 151.347C229.514 151.347 227.544 152.239 222.06 135.983C222.06 135.983 219.578 133.119 218.121 134.913C218.121 134.913 217.235 126.151 204.099 129.55C204.099 129.55 211.917 134.011 205.881 140.087C199.845 146.163 198.221 150.812 191.328 150.266C184.435 149.721 192.047 141.147 198.969 140.612C198.969 140.612 196.655 136.865 199.146 134.903L182.279 124.178C182.279 124.178 166.307 133.02 143.227 123.237C120.146 113.453 115.892 105.236 114.12 112.026V132.752L99.9206 158.127C99.9206 158.127 97.9512 167.592 108.438 168.128C108.438 168.128 113.588 166.522 112.377 172.093C112.377 172.093 106.695 176.384 98.3549 172.093C98.3549 172.093 91.4622 162.805 88.4097 162.805C85.3572 162.805 94.0913 147.61 94.0913 147.61C94.0913 147.61 97.1142 129.768 88.7642 134.586C88.7642 134.586 85.2194 140.107 76.5248 143.863C67.8301 147.62 66.0478 152.972 66.0478 152.972L71.3749 163.697C71.3749 163.697 80.237 161.913 79.0062 166.909C74.7491 167.817 70.378 168.058 66.0478 167.622V165.303L56.9986 153.864C56.9986 153.864 58.0621 148.334 55.5807 147.253V144.577C55.5807 144.577 77.4109 135.656 74.7424 122.771C75.5635 119.003 75.5635 115.1 74.7424 111.332C74.7424 111.332 74.5652 105.385 76.3475 101.688C76.3475 101.688 76.3475 95.7904 74.7424 94.0062L75.4612 88.4852C75.4612 88.4852 62.503 78.2759 41.1946 69.1668C41.1946 69.1668 30.9048 60.0578 33.3861 51.1172L39.0677 61.1283L58.9484 72.5667C58.9484 72.5667 64.6299 71.8431 69.6025 77.2054C69.6025 77.2054 82.4032 83.8167 87.169 79.3464C91.9349 74.8761 95.5092 75.0645 95.5092 75.0645C95.5092 75.0645 107.581 67.0259 120.362 68.1261C133.144 69.2263 155.86 69.375 168.109 70.6239C180.359 71.8728 193.238 67.6503 193.238 67.6503C195.926 63.6855 202.238 56.1426 209.387 52.7824C209.16 50.3143 211.228 46.6568 218.554 45.3484C227.702 43.7031 236.15 48.2626 236.15 51.137C237.071 51.5612 237.832 52.2717 238.321 53.1639C238.81 54.0561 239.002 55.0829 238.868 56.093C238.592 59.0666 246.883 63.3386 251.058 65.1228C252.122 65.3111 253.973 66.8574 252.378 70.7924Z" fill="#542D00"/>
<path id="dog4_2" d="M252.28 71.7623C252.415 74.5076 250.012 79.5359 239.422 77.7153C242.814 80.6052 248.071 87.1169 241.68 90.0452C233.733 93.7057 231.465 84.1115 222.748 85.9321C215.781 87.3962 210.755 93.5516 209.121 96.4414C208.703 97.2342 208.324 98.0476 207.987 98.8785C207.987 98.8785 205.729 108.425 193.399 117.682C193.399 117.682 202.471 124.579 212.619 127.314C212.619 127.314 221.143 130.04 218.068 139.837C218.068 139.837 217.107 146.724 217.886 151.088C217.886 151.088 219.327 158.534 212.437 155.818C211.312 154.37 210.687 152.595 210.656 150.76C210.625 148.926 211.189 147.131 212.264 145.645V139.654C212.264 139.654 208.42 140.55 208.823 136.205C208.823 136.205 199.761 130.214 184.913 130.214C184.913 130.214 195.561 145.279 186.162 147.456C180.279 148.765 174.21 149.013 168.24 148.188C168.24 148.188 158.11 143.285 164.395 138.556C168.739 135.666 172.727 141.638 172.727 141.638C172.727 141.638 179.455 143.276 179.455 139.278L168.211 127.632L155.295 127.083C155.295 127.083 133.191 119.319 117.902 106.026C117.902 106.026 124.629 130.907 113.75 151.849C113.75 151.849 113.529 158.717 115.201 162.772C116.873 166.828 124.081 169.294 124.081 169.294C124.081 169.294 132.057 168.966 131.154 177C131.154 177 120.141 176.769 114.98 169.901C114.98 169.901 104.409 164.506 103.304 161.568C103.304 161.568 102.852 149.865 104.265 144.123C104.265 144.123 101.382 127.459 97.5376 131.967C93.6936 136.475 83.3818 143.526 83.3818 143.526C83.3818 143.526 74.06 150.048 75.8571 154.122C77.6542 158.197 81.9308 162.57 81.9308 162.57C81.9308 162.57 91.2526 161.318 90.3492 167.512C90.3492 167.512 77.7695 174.495 64.9592 151.531C64.9592 151.531 61.2593 147.678 65.7472 145.222C70.2352 142.765 78.7786 130.368 78.7786 130.368C79.6823 122.435 78.6432 114.4 75.7514 106.96C72.5993 94.2258 74.9538 93.5516 74.9538 93.5516C74.9538 93.5516 71.4845 89.1687 72.3783 85.2192C72.3783 85.2192 57.002 75.6539 49.016 73.7466C41.03 71.8393 33.0631 61.4745 33.0631 61.4745C33.0631 61.4745 32.1694 41.66 37.109 46.4956V59.3361C41.4562 64.9239 47.6404 68.7845 54.561 70.2307L58.8375 70.0091C58.8375 70.0091 69.1685 77.5516 81.1811 77.2048C81.1811 77.2048 98.2584 59.0856 127.454 61.7924C156.65 64.4992 164.299 66.9652 164.299 66.9652C164.299 66.9652 183.798 64.9808 186.143 68.2656C189.161 63.8538 196.205 55.4444 204.201 51.6588C203.941 48.9134 206.257 44.858 214.445 43.3842C224.661 41.5636 234.117 46.6305 234.117 49.8285C235.138 50.3025 235.982 51.0903 236.527 52.0776C237.071 53.0649 237.287 54.2003 237.144 55.3192C236.837 58.604 246.101 63.3818 250.772 65.3661C252.03 65.6744 254.106 67.389 252.28 71.7623Z" fill="#542D00"/>
<path id="dog6" d="M259.381 68.0699C259.491 70.4479 257.38 74.8229 248.044 73.2345C251.046 75.7487 255.645 81.4035 250.045 83.9541C243.031 87.14 241.03 78.7895 233.355 80.3779C227.214 81.6486 222.78 87.0039 221.339 89.5181C221.054 90.0536 220.714 90.7616 220.338 91.633C220.338 91.633 218.86 106.682 212.158 108.879L207.174 113.807C207.174 113.807 208.202 117.547 225.387 121.795C225.387 121.795 233.814 122.303 236.559 129.102L241.719 142.717C241.719 142.717 247.052 147.818 241.719 153.427C241.719 153.427 236.21 149.179 236.045 143.906C236.045 143.906 234.154 133.921 227.783 135.074C227.783 135.074 230.188 127.595 213.682 129.801C213.682 129.801 220.733 134.557 215.748 140.003C212.687 143.351 209.819 146.866 207.155 150.532C207.155 150.532 196.671 154.78 195.808 149.515C194.946 144.251 206.981 141.864 206.981 141.864C206.981 141.864 205.09 136.771 207.669 135.238L189.107 125.044C189.107 125.044 186.353 124.89 176.411 128.276C176.411 128.276 167.974 130.527 161.475 126.242L155.544 126.016C155.544 126.016 129.537 116.322 118.704 108.879L115.28 110.231V133.576L99.8847 159.962C99.8847 159.962 97.3785 171.354 112.434 170.219C112.434 170.219 114.94 170.773 114.142 175.974C114.142 175.974 99.6552 179.359 96.3503 173.832C94.1384 170.348 91.0306 167.507 87.3446 165.599V161.315C87.3446 161.315 99.8847 145.222 92.4763 134.321C92.4763 134.321 88.5931 133.803 84.5997 139.667C84.5997 139.667 77.7604 144.623 73.0877 145.413C68.415 146.202 62.659 154.199 62.659 154.199C62.659 154.199 65.9639 164.573 69.1586 165.817C69.1586 165.817 77.9349 164.465 77.026 169.085C77.026 169.085 73.4916 171.572 63.4577 170.21V167.977L54.1031 155.569C54.1031 155.569 54.1031 150.051 52.5057 148.471V145.54C52.5057 145.54 74.171 136.29 72.9225 122.085C73.6539 118.521 73.7687 114.859 73.2621 111.257C73.2621 111.257 72.8031 101.218 74.4005 99.5297C74.4005 99.5297 75.1992 92.3137 72.693 91.1792L73.152 85.7331C73.152 85.7331 68.7547 79.3068 36.4312 65.7644C36.4312 65.7644 25.6537 58.4395 27.1409 46.7033C27.1409 46.7033 30.9048 45.3418 33.411 56.0614L55.4434 68.7688L61.943 69.4404C61.943 69.4404 79.9637 83.9632 88.1708 75.0771C88.1708 75.0771 93.7615 71.1287 96.9562 71.3556C96.9562 71.3556 109.047 64.2576 116.684 63.9127C124.322 63.5678 157.518 65.0473 158.546 66.1728C159.574 67.2983 171.885 66.1728 171.885 66.1728C171.885 66.1728 198.618 63.9581 201.161 64.9565C203.823 61.1262 210.029 53.8104 217.079 50.5246C216.859 48.1374 218.915 44.6066 226.103 43.3358C235.109 41.7474 243.435 46.1587 243.435 48.9362C244.337 49.3454 245.082 50.0281 245.564 50.885C246.046 51.742 246.24 52.7285 246.116 53.7014C245.84 56.5606 254.002 60.7177 258.124 62.4332C259.161 62.7691 260.951 64.2576 259.381 68.0699Z" fill="#542D00"/>
<path id="dog7" d="M259.383 68.6226C259.489 70.9647 257.464 75.2664 248.3 73.7082C251.236 76.1745 255.737 81.7572 250.219 84.2235C243.367 87.3494 241.419 79.1379 233.905 80.6961C227.907 81.9484 223.579 87.2156 222.169 89.6915C221.881 90.2268 221.555 90.9246 221.209 91.7754C221.209 91.7754 220.825 98.467 218.158 99.6237C215.49 100.78 209.396 110.818 209.396 110.818L223.359 117.05C226.449 116.64 229.592 117.147 232.395 118.508C235.197 119.868 237.535 122.021 239.116 124.698C245.19 134.19 251.102 136.638 251.102 136.638C251.102 136.638 255.036 137.785 254.22 142.45C254.22 142.45 247.321 143.673 244.864 139.419C242.407 135.165 237.552 133.129 235.757 128.627L232.389 128.388C232.389 128.388 229.759 124.87 227.38 126.591C227.38 126.591 229.683 135.988 228.282 139.974L227.792 144.39C227.792 144.39 230.585 147.497 230.249 150.03C230.249 150.03 231.813 154.695 226.89 152.975L226.478 149.294C226.478 149.294 225.652 144.964 223.119 143.989L223.186 132.498C223.186 132.498 221.267 131.351 220.067 131.686L219.894 128.904C219.894 128.904 213.177 123.35 190.031 122.117C190.031 122.117 170.378 133.904 126.197 113.571L121.619 113.437C121.619 113.437 116.101 109.565 114.355 114.393C114.355 114.393 113.395 133.598 108.885 139.113C104.375 144.629 95.1047 154.408 95.1047 154.408C95.1047 154.408 90.1626 155.202 89.5772 161.1C89.5772 165.469 99.0583 170.229 99.0583 170.229C99.0583 170.229 117.579 168.996 114.93 174.426C112.282 179.855 97.0432 175.009 97.0432 175.009C97.0432 175.009 84.9231 173.403 87.4469 168.681C87.4469 168.681 76.9869 163.021 78.1961 157.142C78.1961 157.142 90.9783 145.996 88.752 136.771L88.0322 132.145L80.5567 137.135C80.5567 137.135 66.8724 140.566 59.2721 150.518V161.176C59.2314 161.53 59.2697 161.887 59.3841 162.224C59.4985 162.561 59.6862 162.868 59.9339 163.124C60.1815 163.379 60.483 163.578 60.8165 163.704C61.1501 163.83 61.5075 163.881 61.8632 163.853C64.6845 163.853 67.1891 163.853 67.1891 163.853C67.1891 163.853 74.3479 166.883 72.9468 168.709C71.5458 170.535 65.481 170.755 65.481 170.755C65.481 170.755 56.6716 171.606 55.9519 166.883C55.2321 162.161 51.979 153.166 51.979 153.166C51.979 153.166 50.9042 143.004 51.979 139.783C51.979 139.783 70.6246 132.135 71.6706 122.299C72.5563 115.381 74.1117 108.565 76.3151 101.947C76.3151 101.947 78.6087 97.4728 80.4608 95.6278V87.837C80.4608 87.837 67.1604 74.4539 42.2197 69.0815C42.2197 69.0815 29.9652 62.7245 27 55.8609L30.9728 56.6639C30.9728 56.6639 35.7037 64.1871 53.1785 67.1792C70.6533 70.1712 86.612 80.9064 86.612 80.9064C86.612 80.9064 115.89 62.5429 160.57 69.4925C160.57 69.4925 167.825 70.6779 171.558 68.202C171.558 68.202 182.92 65.4298 188.783 66.6725C188.783 66.6725 200.827 61.8928 202.506 65.6114C205.097 61.845 211.143 54.6468 218.042 51.4158C217.831 49.0642 219.818 45.5845 226.871 44.3323C235.661 42.7645 243.799 47.1045 243.799 49.8385C244.68 50.2445 245.408 50.9189 245.879 51.7643C246.35 52.6097 246.539 53.5823 246.419 54.5417C246.15 57.3521 254.096 61.4435 258.155 63.1451C259.162 63.4032 260.947 64.8754 259.383 68.6226Z" fill="#542D00"/>
<path id="dog8" d="M259.402 68.5743C259.505 70.8087 257.542 74.9844 248.659 73.4368C251.505 75.8177 255.868 81.1472 250.519 83.5098C243.887 86.5042 241.999 78.6381 234.707 80.1399C228.884 81.3304 224.689 86.376 223.331 88.7569C223.052 89.2605 222.736 89.9199 222.401 90.744C222.401 90.744 217.536 94.0681 217.88 99.6632C218.225 105.258 210.765 109.269 210.765 109.269C210.765 109.269 212.523 115.991 230.67 115.798C242.278 117.236 241.99 123.005 241.99 123.005C241.99 123.005 244.911 127.227 252.036 130.981C252.036 130.981 253.31 129.342 256.333 134.333C259.356 139.323 253.012 137.51 253.012 137.51C253.012 137.51 245.701 137.409 239.255 127.996C234.605 125.981 238.669 130.88 238.669 130.88C238.669 130.88 242.967 134.543 242.967 136.741C242.967 136.741 249.478 138.188 251.933 140.77C254.389 143.352 245.422 142.702 245.422 142.702L239.274 142.776C239.274 142.776 232.93 131.457 231.07 131.558C229.21 131.659 228.633 131.356 228.54 129.626C228.447 127.895 197.845 122.611 197.845 122.611C197.845 122.611 194.822 118.582 191.994 119.736C191.994 119.736 181.763 123.674 176.963 123.188C172.164 122.703 161.941 123.289 152.863 119.635C152.863 119.635 134.028 116.952 131.981 113.5C131.981 113.5 113.536 109.745 112.95 115.221C112.364 120.697 105.825 136.649 102.03 139.232C98.3571 141.994 94.8362 144.946 91.4825 148.078C91.4825 148.078 74.7398 154.414 78.2093 159.698C81.6787 164.982 82.3112 162.39 85.8272 168.855C85.8272 168.855 98.5144 167.601 97.2401 174.139L85.1482 175L75.1863 170C75.1863 170 75.7723 166.932 76.9536 166.639C76.9536 166.639 70.117 159.726 67.5777 154.158C67.5777 154.158 66.4057 151.466 70.8053 148.865C75.2049 146.265 84.0692 139.259 82.7112 131.769C82.7112 131.769 72.554 139.36 64.1082 140.706C55.6625 142.052 50.249 159.726 50.249 159.726C50.249 159.726 60.2946 166.136 58.053 168.279C58.053 168.279 54.0998 167.802 53.0952 168.855C52.0907 169.909 44.882 169.139 44.882 165.879C44.882 162.619 50.1467 139.745 50.1467 139.745C50.1467 139.745 46.054 138.115 59.7179 132.254C59.7179 132.254 68.0892 126.76 68.7869 124.754C69.4845 122.749 70.2565 117.749 73.4376 113.033C76.6187 108.317 76.7489 101.705 76.7489 101.705C76.7489 101.705 78.9999 97.383 82.6089 96.7054C86.2178 96.0278 83.4832 88.1617 83.4832 88.1617C77.5051 84.0483 70.9203 80.864 63.9594 78.7205C53.5138 75.7444 37.4129 76.1199 37.4129 76.1199L26 71.1292C26 71.1292 47.2725 70.653 65.3174 74.4899C83.3623 78.3268 90.1059 82.5574 90.1059 82.5574C90.1059 82.5574 104.839 77.5667 120.652 74.1053C136.465 70.6438 147.626 71.9899 147.626 71.9899L165.299 72.6676C165.299 72.6676 170.964 69.0047 181.493 69.783C181.493 69.783 197.64 63.4462 204.254 65.6989C206.774 62.0909 212.625 55.1955 219.322 52.0912C219.118 49.8385 221.043 46.5144 227.88 45.3148C236.4 43.8222 244.287 47.9796 244.287 50.5986C245.141 50.9848 245.848 51.6289 246.305 52.4375C246.761 53.2461 246.944 54.1769 246.827 55.0948C246.566 57.787 254.268 61.6972 258.202 63.3363C259.188 63.5836 260.918 64.9846 259.402 68.5743Z" fill="#542D00"/>
<path id="dog9" d="M259.349 68.7982C259.472 71.2619 257.292 75.7772 247.686 74.1378C250.772 76.7327 255.509 82.5688 249.743 85.2105C242.525 88.4986 240.477 79.8803 232.569 81.5196C226.256 82.8311 221.699 88.3581 220.208 90.9529C219.915 91.515 219.566 92.2457 219.179 93.145C219.179 93.145 216.518 91.5712 215.678 100.808C212.77 104.799 209.598 108.595 206.186 112.171L220.236 117.792C220.236 117.792 230.38 116.967 234.843 123.525C238.044 128.03 241.658 132.232 245.639 136.077C245.639 136.077 251.121 137.464 250.753 142.269C250.753 142.269 244.893 143.291 242.562 141.529C240.232 139.768 232.428 129.351 232.428 129.351L229.257 128.977C229.257 128.977 227.493 124.546 224.332 127.59C224.332 127.59 226.285 134.981 225.171 140.986C224.983 141.955 225.01 142.953 225.25 143.911C225.489 144.868 225.936 145.763 226.558 146.532C228.7 149.211 227.398 152.902 227.398 152.902C227.398 152.902 225.086 155.759 223.397 149.67C221.906 144.312 220.236 144.771 220.236 144.771L219.585 132.949L216.981 131.749L216.518 130.091C216.518 130.091 219.349 125.651 187.266 122.513C187.266 122.513 171.894 135.141 123.986 114.391L119.457 114.073C119.457 114.073 114.154 111.178 113.229 114.4C112.304 117.623 111.521 125.482 111.521 125.482C111.521 125.482 110.719 141.745 94.5356 153.586C94.5356 153.586 84.8823 158.101 89.3079 163.028C91.7009 165.795 94.5079 168.181 97.6307 170.101C97.6307 170.101 117.57 169.97 112.398 175.235C107.227 180.499 86.3355 172.312 86.3355 172.312C86.3355 172.312 83.9764 171.534 85.8354 168.565C85.8354 168.565 78.1354 163.553 76.6539 160.846C75.1724 158.138 78.5978 155.225 78.5978 155.225C78.5978 155.225 90.1761 146.522 86.4959 132.433C86.4959 132.433 77.2295 139.862 68.2084 142.082C68.2084 142.082 61.603 144.583 58.5268 150.092L58.2343 162.7L65.604 164.021C65.604 164.021 73.757 167.094 70.8978 169.192C68.0386 171.291 56.3282 170.129 56.3282 170.129L50.9495 154.11L50.7419 140.593C50.7419 140.593 71.5017 131.89 70.9166 120.049C70.3316 108.208 79.1262 96.5736 79.1262 96.5736L78.8431 88.5642C74.9982 86.2512 71.378 83.5887 68.0291 80.6109C63.679 76.5079 46.7032 71.9739 46.7032 71.9739C46.7032 71.9739 32.2091 69.8849 26 57.4164L29.9632 57.9785C29.9632 57.9785 36.144 66.756 50.4588 68.0769C64.7736 69.3977 85.892 82.4283 85.892 82.4283C85.892 82.4283 116.003 63.7958 157.674 70.831C157.674 70.831 163.449 71.7678 167.62 69.8942C171.79 68.0207 185.473 68.0863 185.473 68.0863C185.473 68.0863 196.476 64.2642 199.373 65.6881C202.1 61.7349 208.488 54.1752 215.744 50.784C215.509 48.311 217.632 44.6669 225.03 43.346C234.296 41.7067 242.864 46.2688 242.864 49.1353C243.792 49.5585 244.558 50.2649 245.052 51.1515C245.546 52.038 245.742 53.0581 245.61 54.0627C245.337 57.0136 253.735 61.304 257.972 63.0839C259.123 63.3275 261.001 64.8638 259.349 68.7982Z" fill="#542D00"/>
<path id="dog10" d="M267.328 67.671C267.448 70.2208 265.206 74.9048 255.284 73.2141C258.471 75.9026 263.354 81.9723 257.406 84.6977C249.994 88.0975 247.835 79.1545 239.682 80.8637C233.197 82.231 228.463 87.9497 226.925 90.6474C226.622 91.2263 226.27 91.9839 225.869 92.9201C225.869 92.9201 222.747 93.0402 222.626 96.9574C222.506 100.875 214.65 108.838 214.65 108.838C214.65 108.838 208.6 113.615 225.869 116.922C243.138 120.229 239.321 118.021 244.398 122.798C249.475 127.574 255.979 133.274 255.979 133.274C257.451 133.628 258.796 134.381 259.867 135.448C260.938 136.516 261.692 137.858 262.047 139.326C263.307 144.462 249.901 138.734 249.901 138.734C249.901 138.734 240.266 126.558 240.461 131.168C240.461 131.168 246.205 138.346 247.391 140.314C247.391 140.314 257.23 142.033 256.173 145.977C255.117 149.922 242.277 145.054 242.277 145.054C242.277 145.054 236.718 133.339 233.225 134.789C229.732 136.24 231.78 132.877 231.78 132.877C228.005 130.161 223.464 128.709 218.809 128.729C218.809 128.729 207.784 124.71 201.911 124.978C196.037 125.246 197.686 122.807 197.686 122.807C197.686 122.807 196.028 120.109 190.423 123.269C187.145 125.15 183.349 125.934 179.592 125.505C179.592 125.505 147.166 124.978 131.102 115.536C131.102 115.536 114.249 112.127 110.923 116.044C107.597 119.961 104.216 134.725 104.216 134.725C104.216 134.725 100.649 143.344 87.9285 151.964C87.9285 151.964 71.8822 157.507 73.9111 163.863C73.9111 163.863 79.1271 169.231 81.5822 174.127C81.5822 174.127 85.1676 176.225 91.5139 174.432C91.5139 174.432 95.9517 179.052 92.533 180.576C89.1144 182.1 77.0889 179.024 77.0889 179.024C77.0889 179.024 69.8996 176.04 70.9836 173.952C72.0676 171.864 73.4387 172.16 70.2609 168.935C67.0832 165.711 62.5991 156.574 62.5991 156.574C62.5991 156.574 79.7849 147.474 79.0067 133.884C79.0067 133.884 65.712 141.802 60.0792 143.529C60.0792 143.529 53.2604 147.169 50.2031 150.818C47.1458 154.468 44.5146 165.443 44.5146 165.443C44.5146 165.443 53.3808 170.876 52.8527 173.148C52.3247 175.421 40.5772 173.564 40.5772 173.564C40.5772 173.564 37.9645 160.233 44.7369 143.455C44.7369 143.455 43.5048 141.404 45.6634 140.499C47.8221 139.594 62.4787 128.378 62.4787 128.378C62.4787 128.378 64.4334 127.842 64.6373 123.25C64.7107 121.891 65.0863 120.565 65.7369 119.368C66.3874 118.172 67.2967 117.134 68.3987 116.331C68.3987 116.331 73.1885 101.891 76.2273 99.5996C77.1109 98.9394 77.8519 98.1082 78.4059 97.1557C78.9599 96.2033 79.3155 95.1491 79.4515 94.0564C79.4515 94.0564 79.2105 90.5458 80.2389 89.7697C81.2673 88.9937 68.6396 82.3788 68.6396 82.3788C68.6396 82.3788 57.1052 75.9949 46.488 77.2144C35.8707 78.4339 19 70.4795 19 70.4795C19 70.4795 46.3583 72.3272 52.7416 71.9669C52.7416 71.9669 61.6449 74.1287 66.342 74.1287C71.0392 74.1287 87.7154 82.4435 87.7154 82.4435C87.7154 82.4435 125.209 65.8879 165.056 72.281C165.056 72.281 175.164 67.403 181.186 68.8073C187.208 70.2116 201.077 61.1577 205.431 64.5113C208.211 60.4186 214.844 52.5843 222.33 49.0644C222.089 46.5053 224.248 42.7267 231.909 41.3594C241.48 39.6595 250.318 44.3804 250.318 47.3553C251.274 47.7962 252.063 48.5291 252.573 49.4476C253.083 50.3662 253.286 51.4228 253.153 52.4642C252.866 55.5222 261.491 59.9752 265.911 61.8229C267.096 61.9707 269.033 63.569 267.328 67.671Z" fill="#542D00"/>
<path id="dog11" d="M267.316 66.6148C267.444 69.2374 265.158 74.0638 255.087 72.3188C258.319 75.0909 263.295 81.3433 257.245 84.1554C249.677 87.6655 247.519 78.4515 239.242 80.1667C232.61 81.5727 227.831 87.4761 226.274 90.2582C225.969 90.8466 225.604 91.6344 225.2 92.5917C225.2 92.5917 215.82 97.5777 213.149 108.547C210.479 119.516 235.192 118.259 235.192 118.259C235.192 118.259 240.03 118.698 247.194 126.955C247.194 126.955 266.606 134.205 259.738 140.048L263.62 140.956C263.62 140.956 267.995 145.493 257.649 145.084C251.468 144.84 245.605 142.252 241.223 137.834C241.223 137.834 234.887 139.948 236.217 136.219C236.217 136.219 229.585 130.984 210.676 126.955C210.676 126.955 195.541 127.952 195.747 118.848C195.747 118.848 195.245 114.969 187.786 121.111C180.326 127.254 148.173 119.905 148.173 119.905C148.173 119.905 135.629 113.563 104.817 116.076L98.0471 124.841C98.0471 124.841 90.9819 139.24 84.6164 141.963C79.489 147.056 73.0886 150.641 66.1011 152.334L59.0359 160.092C59.0359 160.092 57.7451 173.693 68.5941 175.299L70.289 177.014C70.289 177.014 78.9406 178.221 72.378 182H58.9866V178.57C58.9866 178.57 51.1726 170.313 51.3795 149.162C51.3795 149.162 66.4066 143.927 68.2985 134.155L65.7069 133.955C62.0717 138.15 57.293 141.165 51.9707 142.621C51.9707 142.621 39.0327 151.785 35.3474 158.327C35.3474 158.327 31.6719 163.063 30.7752 165.307L30.1742 169.745C30.1742 169.745 36.0864 172.866 25.0009 174.172L23.0992 162.196C23.0992 162.196 25.6907 158.207 29.2676 157.768C29.2676 157.768 32.2238 149.511 41.0133 139.938L40.9148 137.356C40.9148 137.356 54.3554 133.796 60.5238 121.51C60.5238 121.51 61.7161 112.137 72.3484 97.0292L75.9253 93.6088L76.0239 87.2667C76.0239 87.2667 66.5741 76.5867 40.294 79.708C40.294 79.708 27.76 83.6967 19 82.2309C19 82.2309 51.5175 65.8071 80.7044 79.8077C80.7044 79.8077 86.6758 82.9289 92.4501 79.3091C98.2245 75.6893 124.199 70.7432 124.199 70.7432C124.199 70.7432 145.592 69.1377 159.131 71.1521L171.665 67.5223H184.603C184.603 67.5223 195.619 61.5391 204.438 63.3041C207.306 59.076 214.007 50.9988 221.614 47.349C221.367 44.7065 223.584 40.8074 231.349 39.3715C241.065 37.6164 250.071 42.4827 250.071 45.5541C251.043 46.0065 251.846 46.7615 252.364 47.7087C252.882 48.656 253.087 49.7459 252.949 50.8193C252.663 53.9704 261.462 58.5575 265.916 60.4621C267.079 60.7613 269.05 62.4067 267.316 66.6148Z" fill="#542D00"/>
<path id="dog12" d="M269.362 66.7436C269.475 69.1938 267.334 73.6873 257.872 72.0507C260.91 74.6428 265.579 80.4608 259.891 83.0718C252.787 86.3449 250.769 77.7646 242.986 79.4012C236.76 80.7067 232.27 86.2031 230.807 88.7857C230.515 89.3438 230.175 90.0722 229.789 90.9615L225.298 98.1228C225.298 98.1228 213.091 101.708 218.789 109.39C224.487 117.071 238.684 117.535 238.684 117.535C238.684 117.535 245.41 118.386 249.146 122.88C252.882 127.373 267.268 133.286 267.268 133.286C267.268 133.286 266.428 143.03 252.891 133.664L246.722 127.761L244.382 129.067C244.382 129.067 235.703 123.542 239.345 129.161C242.034 132.999 245.313 136.383 249.061 139.189C249.061 139.189 253.637 142.377 257.929 142.027C257.929 142.027 263.438 146.757 263.438 148.299H254.004L244.175 141.053C244.175 141.053 239.128 141.8 237.637 137.581C237.637 137.581 222.874 129.436 219.232 125.69C219.232 125.69 200.639 126.91 200.922 119.134L198.214 113.325C198.214 113.325 178.31 124.677 158.98 116.277C139.651 107.876 105.501 110.629 105.501 110.629C101.392 115.964 96.6387 120.769 91.3512 124.933L83.8043 134.544C83.8043 134.544 76.9367 137.94 73.5406 141.261C70.1446 144.581 61.1638 147.722 61.1638 147.722L55.3999 152.452C55.3999 152.452 41.6647 173.368 56.9282 175.752C56.9282 175.752 58.9564 178.647 54.8905 179.584C50.8247 180.52 44.5136 179.584 44.5136 179.584C44.5136 179.584 43.7589 175.582 42.1458 175.667C41.5717 172.412 42.1737 169.058 43.8438 166.207C43.8438 166.207 48.8436 149.718 48.504 144.023C48.504 144.023 59.0979 138.063 60.4563 134.837C61.8147 131.612 47.3154 141.895 47.3154 141.895C47.3154 141.895 37.3913 145.631 35.7027 150.059C34.0141 154.486 25.3258 159.405 25.3258 159.405C25.3258 159.405 15.2413 161.619 17.2695 154.477C19.2977 147.334 27.8728 149.463 27.8728 149.463L41.8628 133.986C41.8628 133.986 58.2206 127.014 62.5506 117.062C62.8254 111.328 65.3197 105.929 69.5031 102.011C71.5655 95.9552 75.8769 90.9302 81.5403 87.9815L80.7762 86.0328L80.4365 83.5637C80.4365 83.5637 72.9746 82.1163 71.9464 79.5715L42.7024 78.7201C42.7024 78.7201 31.5047 82.3717 25.6559 89.2587C25.6559 89.2587 20.4015 84.2448 41.5137 74.6334C62.626 65.0219 92.4549 77.5281 92.4549 77.5281C92.4549 77.5281 121.51 62.4866 155.028 68.6829C155.028 68.6829 162.32 70.206 171.329 65.5327C180.338 60.8594 191.686 63.9056 191.686 63.9056C191.686 63.9056 204.299 58.9674 210.252 63.565C212.94 59.6391 219.232 52.1183 226.374 48.741C226.147 46.2814 228.26 42.6487 235.524 41.3432C244.656 39.7161 253.089 44.2475 253.089 47.1044C254.002 47.5255 254.757 48.2279 255.244 49.1094C255.731 49.9909 255.925 51.0053 255.797 52.0048C255.523 54.9374 263.796 59.2134 267.975 60.9824C269.136 61.2946 270.985 62.8271 269.362 66.7436Z" fill="#542D00"/>
<path id="dog13" d="M265.805 138.563C261.107 144.999 244.852 129.246 244.852 129.246C244.852 129.246 242.119 129.077 241.726 130.132C241.726 130.132 236.421 124.317 224.757 125.256L234.287 136.843L234.84 140.558C234.84 140.558 242.387 145.159 243.227 147.437C243.227 147.437 252.22 146.214 254.283 148.873C256.347 151.533 251.256 154.671 251.256 154.671C247.826 153.449 244.168 152.986 240.538 153.315C240.538 153.315 214.638 130.416 208.583 123.173L201.375 122.898C201.375 122.898 199.142 119.795 199.535 117.242C199.928 114.689 195.177 109.317 195.177 109.317C195.177 109.317 185.513 114.911 179.199 114.973C172.885 115.035 154.192 115.363 139.902 108.483C125.612 101.604 102.391 102.827 102.391 102.827C102.391 102.827 89.0474 114.414 81.1701 121.958C73.2927 129.503 59.3244 138.59 59.3244 138.59C59.3244 138.59 33.8526 152.597 32.6201 171.249C32.6201 171.249 34.4063 177.454 28.5475 175.681C22.6886 173.908 25.9217 163.864 25.9217 163.864L28.7707 161.816C28.7707 161.816 36.648 146.231 42.23 140.859L42.1765 138.084L45.0255 137.366C45.0255 137.366 60.2085 126.604 49.8841 128.324C39.5596 130.044 32.0217 141.621 32.0217 141.621C31.8024 142.487 31.364 143.282 30.7482 143.932C30.1323 144.582 29.3595 145.065 28.5028 145.336C25.4305 146.444 24.7606 153.767 24.7606 153.767C24.7606 153.767 20.563 156.32 19 152.047C19 152.047 20.7862 146.338 19.9556 144.839C19.125 143.341 24.1444 141.515 24.1444 141.515C24.1444 141.515 30.7892 133.306 35.2548 127.428C35.2548 127.428 43.0785 118.563 48.4462 118.563C53.8138 118.563 61.9055 106.923 61.9055 106.923C61.9055 106.923 65.6476 97.1715 66.9337 92.0031C66.9337 92.0031 71.0689 83.6343 76.6509 83.0226C76.6509 83.0226 77.4368 78.528 74.9807 77.7035C72.5247 76.8791 59.2261 78.3684 59.2261 78.3684C54.8302 78.5382 50.4397 77.9165 46.2669 76.5333C38.8362 74.2107 22.8047 82.3578 22.8047 82.3578C22.8047 82.3578 16.4903 83.9624 23.0816 79.4766C29.6728 74.9908 41.7388 71.7639 45.5346 71.8791C49.3304 71.9944 52.5188 73.4217 59.896 71.8791C67.2731 70.3366 85.198 71.8791 85.198 71.8791C85.198 71.8791 118.243 59.397 148.359 64.982C148.359 64.982 157.023 66.099 161.247 66.7551C164.882 67.3136 195.927 66.0725 204.456 65.7178C207.27 61.8438 212.986 55.3633 219.416 52.358C219.202 50.0265 221.202 46.5691 228.204 45.328C236.966 43.7766 245.075 48.085 245.075 50.8066C245.95 51.2078 246.674 51.8751 247.141 52.712C247.609 53.5488 247.795 54.5116 247.674 55.4608C247.415 58.2534 255.355 62.3136 259.365 63.998C260.446 64.2551 262.223 65.709 260.66 69.4324C260.776 71.755 258.713 76.028 249.621 74.4766C252.551 76.9323 257.034 82.4553 251.568 84.9552C244.745 88.0581 242.807 79.911 235.331 81.4624C229.356 82.7035 225.043 87.9251 223.632 90.3896C223.355 90.9126 223.024 91.6041 222.658 92.4552C222.658 92.4552 208.198 104.468 218.13 112.242C218.13 112.242 226.757 117.774 233.688 117.996C240.619 118.217 250.657 125.815 250.657 125.815L259.874 131.63C259.874 131.63 270.494 132.127 265.805 138.563Z" fill="#542D00"/>
<path id="dog14" d="M284 150.033C284 150.033 278.094 155.848 267.928 152.585L255.892 141.271C253.177 140.932 250.587 139.93 248.35 138.353C244.456 135.68 228.151 133.606 228.151 133.606L217.325 131.299C220.178 140.504 224.141 149.328 229.127 157.576C229.127 157.576 234.596 159.883 234.596 163.776L241.173 164.508C241.173 164.508 251.755 164.508 247.008 169.987C242.261 175.466 221.096 161.957 221.096 161.957C221.096 161.957 212.059 148.214 208.43 139.817C204.801 131.421 195.55 114.994 195.55 114.994C195.55 114.994 173.888 128.015 135.94 110.623C97.9924 93.2302 88.8537 106.364 88.8537 106.364C88.8537 106.364 75.3539 118.887 65.7374 129.469C60.9891 131.348 56.7433 134.306 53.3356 138.109C48.1004 144.209 34.7226 141.759 23.1644 156.722C23.1644 156.722 17.3193 165.118 16.9534 170.475L14.2798 174.003C14.2798 174.003 11.6063 187.868 5.76117 179.085C-0.083969 170.303 10.8439 165.22 10.8439 165.22C10.7833 164.454 10.5428 163.713 10.1418 163.058C9.74081 162.403 9.19077 161.851 8.53638 161.449L8.4144 150.013C8.4144 150.013 16.9229 142.592 19.3626 133.342C19.3626 133.342 25.1976 127.141 26.0515 123.126C26.9053 119.111 33.1063 119.965 33.1063 119.965C33.1063 119.965 45.3048 118.745 48.8018 109.017C52.2987 99.2886 54.0268 96.2492 54.0268 96.2492V87.1006C54.0268 87.1006 61.5695 78.4602 65.097 77.7283C64.6259 77.1375 64.3126 76.4368 64.1864 75.6918C64.0601 74.9469 64.1251 74.182 64.3752 73.4691H52.9797C52.9797 73.4691 48.1105 80.4119 32.1711 76.1527C32.1711 76.1527 4.80567 76.5186 2 74.6889C2 74.6889 12.2264 70.1857 40.2018 70.4297C40.2018 70.4297 47.7445 71.4462 51.15 67.1463C54.5554 62.8464 76.6958 65.8045 76.6958 65.8045C76.6958 65.8045 90.8156 54.7346 150.182 60.3357C157.63 61.68 165.303 60.9629 172.373 58.262C181.298 54.6432 203.886 58.3636 212.313 59.9392C216.013 55.619 221.279 50.5872 227.023 47.8731C226.768 45.0574 229.137 40.8998 237.544 39.3954C248.035 37.525 257.732 42.7194 257.732 46.0028C258.783 46.4918 259.648 47.3045 260.203 48.3217C260.757 49.3389 260.971 50.507 260.813 51.6546C260.497 55.0193 269.962 59.9189 274.81 61.9519C276.101 62.2569 278.226 63.985 276.356 68.4983C276.488 71.3039 274.028 76.4576 263.14 74.5974C266.637 77.5656 272.005 84.234 265.479 87.2327C257.346 90.9735 254.978 81.1336 246.032 83.0142C242.121 83.9736 238.57 86.042 235.806 88.971L231.739 96.7473C231.739 96.7473 217.67 110.979 223.749 116.712C229.828 122.445 249.661 129.001 249.661 129.001C249.661 129.001 257.793 130.943 268.396 142.379C268.427 142.369 283.39 140.427 284 150.033Z" fill="#542D00"/>
<path id="dog15" d="M284.258 68.7425C284.391 71.5752 281.901 76.7788 270.934 74.9006C274.46 77.8975 279.871 84.6304 273.281 87.6581C265.082 91.4453 262.704 81.5 253.685 83.3988C246.51 84.9178 241.263 91.2811 239.571 94.2678C239.233 94.9144 238.834 95.756 238.393 96.7926C237.901 96.5873 224.823 91.2298 221.236 119.157C221.236 119.157 228.103 130.662 246.51 137.539C246.51 137.539 254.515 140.967 261.72 150.932C261.72 150.932 271.785 154.945 274.183 157.922C274.183 157.922 283.407 158.373 274.183 164.213C264.959 170.053 257.149 155.284 257.149 155.284L251.768 150.932C251.768 150.932 247.771 151.733 246.059 148.182C244.348 144.631 209.572 133.987 209.572 133.987C209.572 133.987 204.775 132.612 204.663 128.035C204.663 128.035 198.513 113.604 196.463 119.67V139.714C196.463 139.714 198.985 154.258 202.182 158.035C202.182 158.035 201.27 162.612 206.641 162.838C212.011 163.064 208.127 169.253 208.127 169.253C208.127 169.253 194.977 172.578 190.17 165.014L188.12 147.474C188.12 147.474 180.208 135.055 178.322 122.503L159.402 121.897C159.402 121.897 123.95 109.252 100.254 99.3995C100.254 99.3995 93.3764 96.1563 84.1316 108.37C79.0305 115.23 73.2476 121.553 66.8719 127.244C66.8719 127.244 47.1114 138.534 33.8386 141.428C33.8386 141.428 29.1137 143.789 24.8808 150.286C24.8808 150.286 22.7182 157.778 23.0154 160.334L20.2686 161.216C20.2686 161.216 18.393 164.768 20.2686 172.937C22.1442 181.107 18.6902 182 18.6902 182C18.6902 182 10.6241 179.947 9.25068 169.396L12.0999 166.246C12.0999 166.246 18.2495 138.873 22.2262 130.498C22.2262 130.498 23.8046 120.163 27.2483 120.06C30.6921 119.957 45.4407 118.982 46.8141 109.796C48.1875 100.611 48.3823 81.8387 53.8964 79.8681C59.4104 77.8975 58.9082 68.3422 58.9082 68.3422C58.9082 68.3422 48.6589 67.8599 43.2781 72.8787H26.2644C21.1046 73.5534 15.8769 73.5188 10.7265 72.7761C3.55205 71.5444 1.18449 72.6734 1 72.7761C1.22548 72.6118 8.87141 67.1722 40.7158 66.9772C40.7158 66.9772 44.7438 57.4322 65.9904 60.1828C65.9904 60.1828 67.5585 61.7634 72.8676 60.1828C78.1767 58.6022 107.879 55.2666 107.879 55.2666C107.879 55.2666 134.814 55.8516 152.412 60.2854C170.01 64.7192 178.179 58.1198 178.179 58.1198C178.179 58.1198 183.98 57.6272 188.305 60.0904C188.305 60.0904 210.423 62.0918 219.186 60.6857C222.927 56.2005 228.41 50.802 234.488 47.9487C234.221 45.1057 236.62 40.908 245.086 39.3992C255.673 37.5108 265.451 42.7554 265.451 46.0602C266.51 46.5475 267.385 47.3612 267.95 48.3824C268.514 49.4035 268.737 50.5786 268.587 51.7359C268.269 55.1331 277.811 60.0699 282.7 62.1226C283.992 62.451 286.144 64.2163 284.258 68.7425Z" fill="#542D00"/>
<path id="dog16" d="M265.096 170.638C265.096 170.638 253.067 167.566 247.078 160.583L241.764 160.813C241.764 160.813 238.123 152.779 234.163 152.232C230.204 151.685 211.823 134.373 207.713 134.223C207.713 134.223 203.602 131.363 204.373 128.582C204.373 128.582 199.802 113.345 191.883 117.062C187.56 119.19 182.926 120.623 178.153 121.308C178.153 121.308 173.653 153.627 183.468 157.882C183.468 157.882 187.728 160.045 188.118 162.296C188.118 162.296 198.668 161.519 194.868 168.096C194.868 168.096 181.528 170.647 174.928 165.774C174.928 165.774 171.828 159.277 169.117 158.712C169.117 158.712 168.568 145.876 166.318 140.076C164.068 134.276 163.377 120.213 163.377 120.213C163.377 120.213 155.927 121.449 136.377 109.311C116.827 97.1722 98.9868 95.2389 98.9868 95.2389C98.9868 95.2389 94.2565 94.8505 83.786 116.267C79.3578 121.583 73.8696 125.924 67.6695 129.015C61.4694 132.106 54.6925 133.879 47.7685 134.223C47.7685 134.223 38.7686 137.083 41.5678 149.372C44.367 161.66 39.867 160.124 39.867 160.124C39.867 160.124 42.737 173.569 39.867 174.885C36.9969 176.2 30.3267 165.845 30.3267 165.845C30.3267 165.845 26.8365 162.049 31.4871 158.879L30.9379 128.035L33.2233 126.075L33.994 118.13C33.994 118.13 55.2537 111.95 55.2537 107.925C55.2537 103.899 54.1642 87.0554 54.1642 87.0554C54.1642 87.0554 54.3945 77.9274 60.2143 74.1402C64.4043 67.5722 61.1001 62.6197 61.1001 62.6197C56.3838 61.4817 51.4228 61.919 46.9801 63.8645C39.3798 67.1043 42.0904 58.3735 13 64.7473C13 64.7473 23.5501 54.6923 41.1603 57.8703C41.1603 57.8703 46.05 59.5653 51.7901 55.0807C57.5303 50.5961 72.2704 57.323 72.2704 57.323C72.2704 57.323 109.785 44.549 142.419 55.9988C142.419 55.9988 166.929 60.7394 175.752 58.091C184.575 55.4426 194.239 60.1832 194.239 60.1832C194.239 60.1832 209.378 59.5123 216.748 63.7144C219.476 61.0313 222.612 58.7939 226.04 57.0846C225.801 54.5157 227.971 50.7285 235.66 49.3602C245.263 47.6564 254.13 52.3882 254.13 55.372C255.091 55.8128 255.886 56.548 256.399 57.4706C256.912 58.3931 257.117 59.4548 256.982 60.501C256.69 63.5643 265.388 68.0312 269.782 69.8763C270.96 70.1588 272.909 71.7566 271.199 75.8528C271.323 78.4041 269.073 83.1005 259.117 81.3967C262.315 84.0981 267.222 90.1805 261.243 92.873C253.775 96.2895 251.649 87.3203 243.464 89.0241C236.918 90.3924 232.197 96.1394 230.664 98.8407C230.354 99.4234 229.991 100.183 229.592 101.118C229.592 101.118 223.392 106.751 223.232 126.463C223.232 126.463 234.013 141.303 241.613 145.408C241.613 145.408 246.653 149.036 247.353 152.673C247.353 152.673 256.043 156.92 256.743 158.623H256.043C256.043 158.623 257.443 160.327 256.743 158.623C259.852 158.623 272.271 158.959 272.953 162.331C273.706 166.224 265.096 170.638 265.096 170.638Z" fill="#542D00"/>
<path id="dog17 " d="M285.128 73.6885C285.285 76.9923 282.376 83.0612 269.502 80.8707C273.637 84.354 279.972 92.2184 272.255 95.7497C262.639 100.155 259.838 88.5675 249.261 90.782C240.847 92.5536 236.279 101.555 232.709 103.458C230.017 104.859 215.569 110.844 214.679 112.161V112.221V120.971C214.679 120.971 210.027 129.35 213.117 136.245C216.206 143.14 225.726 164.662 225.726 164.662C225.726 164.662 240.943 178.524 254.574 174.61C254.574 174.61 262.771 180.295 256.713 181.72C250.655 183.144 240.534 181.014 240.534 181.014C240.534 181.014 238.13 177.423 229.716 177.698L194.762 141.691V133.049C194.762 133.049 188.932 128.261 188.692 125.113L172.994 128.548L157.777 129.613C157.777 129.613 153.377 136.724 153.137 148.682C153.137 148.682 154.796 158.258 152.536 161.586C150.276 164.914 158.546 169.283 158.546 169.283C158.546 169.283 161.875 177.339 149.387 171.294L142.968 158.869V124.526C142.968 124.526 96.5468 93.2479 88.3372 98.5746C88.3372 98.5746 80.1876 133.396 54.0923 138.843C54.0923 138.843 40.113 144.169 38.4663 147.952C36.8195 151.734 40.8703 173.891 40.8703 173.891C40.8703 173.891 51.1714 174.837 49.9935 183.132C48.8155 191.428 34.055 179.218 33.6944 177.913C33.3338 176.609 33.6944 169.271 33.6944 169.271L24.3068 139.345C24.3068 139.345 28.4657 135.754 26.0857 133.54C26.0857 133.54 22.8764 123.712 31.7952 123.365C40.714 123.018 50.7026 114.244 49.0318 109.144C47.361 104.045 45.3537 95.9771 45.3537 95.9771L42.6132 91.8354C42.6132 91.8354 39.7644 87.2149 48.0823 75.0172L48.3227 62.8196C48.3227 62.8196 38.334 57.2534 32.5043 59.6235C32.5043 59.6235 18.7175 44.8163 1 39.4896C1 39.4896 17.1669 36.7723 31.7952 52.0463C31.7952 52.0463 49.7531 51.8069 56.2919 57.3731C62.8308 62.9393 65.5713 48.9939 98.0253 49.0897C130.479 49.1855 139.771 56.2718 139.771 56.2718C139.771 56.2718 169.111 62.3407 181.131 59.6115C181.131 59.6115 187.141 58.4145 189.209 63.047C195.834 62.6347 202.485 62.9478 209.042 63.9807C213.441 58.8215 219.788 52.7047 226.723 49.4488C226.423 46.1331 229.223 41.2372 239.164 39.4656C251.569 37.2631 263.048 43.3799 263.048 47.2343C264.287 47.8057 265.312 48.7552 265.973 49.9454C266.634 51.1355 266.898 52.5045 266.726 53.8538C266.353 57.816 277.544 63.5857 283.277 65.9797C284.828 66.3388 287.34 68.4097 285.128 73.6885Z" fill="#542D00"/>
<path id="dog18" d="M272.191 71.2033C272.339 74.3387 269.609 80.0889 257.545 78.0069C261.431 81.3158 267.383 88.7639 260.127 92.1223C251.077 96.2987 248.494 85.3187 238.583 87.4131C230.651 89.0861 224.932 96.088 223.063 99.4341C222.694 100.14 222.252 101.082 221.772 102.222C221.772 102.222 209.549 109.844 199.895 110.278C190.242 110.712 186.811 135.559 186.811 135.559L189.811 159.552C189.811 159.552 198.112 174.596 220.432 172.502C220.432 172.502 226.445 176.703 225.351 180.161C224.256 183.618 203.523 179.169 203.523 179.169C203.523 179.169 196.28 171.511 191.373 172.626L168.561 137.926C168.561 137.926 172.484 121.233 164.872 123.823C157.26 126.413 140.585 124.319 140.585 124.319C140.585 124.319 131.141 138.533 130.157 149.91C130.157 149.91 125.496 160.171 128.693 168.697C128.693 168.697 141.323 170.309 141.569 176.616C141.815 182.924 123.787 178.711 123.787 178.711C123.787 178.711 119.729 170.036 121.204 166.318C122.68 162.6 114.453 157.643 114.453 157.643C114.453 157.643 122.68 140.95 122.926 129.573C122.926 129.573 126.615 118.321 127.218 117.713C127.218 117.713 116.298 107.7 109.067 106.56C109.067 106.56 94.8265 93.3244 85.1362 93.5723L83.3039 108.53C83.3039 108.53 80.4755 124.641 54.5896 139.314C54.5896 139.314 46.7439 147.233 45.8831 149.823C45.8831 149.823 54.5896 161.572 51.4046 165.934C51.4046 165.934 58.6477 177.31 63.9233 179.653C63.9233 179.653 59.0044 189.914 50.9127 182.007L47.6047 171.003C47.6047 171.003 33.1308 156.664 32.024 146.217L29.3186 144.11L32.6389 140.529C32.6389 140.529 26.3796 131.631 27.72 125.323C27.72 125.323 50.1626 116.053 47.9613 107.031C46.4521 101.398 43.2886 96.3571 38.8859 92.5685C38.8859 92.5685 35.3197 80.8201 41.0872 72.1699C46.8546 63.5198 40.7182 58.6866 40.7182 58.6866C40.7182 58.6866 12.1392 52.4902 14.8323 14.8037L13 8L17.5377 12.2012C17.5377 12.2012 20.2308 36.5654 28.8267 43.4806C37.4225 50.3958 53.6059 53.3948 53.6059 53.3948C53.6059 53.3948 83.0457 33.3681 130.145 51.6722C130.145 51.6722 170.873 51.9201 180.933 59.5789L203.252 59.4054C207.274 54.8422 212.092 51.0617 217.468 48.2518C217.185 45.1041 219.817 40.4568 229.126 38.7837C240.759 36.6894 251.507 42.5016 251.507 46.1574C252.67 46.6959 253.633 47.5944 254.254 48.7223C254.876 49.8501 255.124 51.1484 254.963 52.4282C254.618 56.146 265.157 61.6608 270.482 63.9287C271.908 64.2385 274.245 66.1966 272.191 71.2033Z" fill="#542D00"/>
<path id="dog19" d="M267.221 72.8996C267.361 75.8619 264.751 81.2928 253.203 79.3394C256.912 82.4734 262.606 89.5143 255.672 92.6805C247.046 96.641 244.544 86.2407 235.055 88.2371C227.507 89.8148 215.527 98.1007 213.747 101.235C213.392 101.911 208.55 103.907 208.086 104.991C208.086 104.991 199.557 113.427 188.979 116.207C178.401 118.987 165.429 140.206 165.429 140.206C165.136 144.624 165.536 149.059 166.615 153.354C166.615 153.354 162.636 174.251 179.738 178.287C179.738 178.287 185.755 180.734 178.897 185.285C172.039 189.836 158.409 178.63 158.409 178.63C158.409 178.63 160.857 173.747 160.565 171.471C160.274 169.196 147.238 141.666 147.238 141.666C147.238 141.666 145.976 135.226 147.238 133.917C148.499 132.607 131.915 130.632 131.915 130.632C131.915 130.632 128.195 136.868 124.895 139.82C121.595 142.771 114.479 160.985 114.479 160.985L110.834 164.527L107.286 173.629C107.286 173.629 109.065 177.085 111.686 177.75C114.306 178.416 114.306 184.19 106.014 185.006C97.7217 185.821 101.701 178.426 101.701 178.426L104.828 163.132C104.828 163.132 102.962 158.334 106.1 154.374C109.238 150.413 119.471 122.518 119.471 122.518C119.471 122.518 85.2673 92.2941 86.2916 105.743C87.316 119.191 86.2916 118.043 86.2916 118.043C86.2916 118.043 80.7276 136.836 67.2595 148.632C59.4742 157.733 63.9599 162.531 63.9599 162.531C63.9599 162.531 71.5081 164.978 68.2731 169.615L64.4667 170.688C64.4667 170.688 71.8316 175.743 73.0177 178.942C74.2038 182.14 82.7225 181.389 82.7225 181.389C82.7225 181.389 89.3217 188.977 81.5363 191.843C73.7509 194.708 46.06 157.497 46.06 157.497L48.346 154.213C48.346 154.213 35.4064 143.684 36.3337 137.534C36.3337 137.534 51.9045 128.26 54.2767 118.15C54.2767 118.15 48.346 105.335 45.219 105.421C42.0919 105.506 37.5091 98.6803 39.2883 91.7682C41.0675 84.8562 39.4608 69.6153 39.4608 69.6153C39.4608 69.6153 4.1247 50.7467 26.327 15.2849C26.327 15.2849 28.117 5.9043 29.5619 7.1064C31.0069 8.30849 29.6482 15.8216 29.6482 15.8216C29.6482 15.8216 19.4474 39.0907 29.0012 50.8433C30.0296 50.9283 31.0064 51.3276 31.7979 51.9867C32.5893 52.6457 33.1567 53.5322 33.4223 54.5247C33.4223 54.5247 41.3694 62.8321 48.1196 63.3902C54.8698 63.9483 54.708 61.4797 54.708 61.4797C54.708 61.4797 83.4773 42.4287 123.375 59.1399C123.375 59.1399 165.709 59.7624 176.212 66.1378C176.212 66.1378 189.777 65.8051 198.576 64.6567C202.522 59.9342 208.388 54.1813 214.826 51.1653C214.545 48.1923 217.069 43.7917 225.986 42.214C237.136 40.2391 247.38 45.7237 247.38 49.1797C248.494 49.6893 249.415 50.5402 250.009 51.6081C250.602 52.6759 250.837 53.9048 250.679 55.1151C250.345 58.6677 260.384 63.841 265.528 65.9768C266.94 66.3096 269.205 68.1556 267.221 72.8996Z" fill="#542D00"/>
<path id="dog20" d="M272.152 69.0779C272.301 72.2652 269.535 78.1086 257.228 76.0068C261.189 79.3789 267.239 86.9544 259.857 90.3611C250.673 94.6224 248.01 83.4323 237.919 85.5802C229.883 87.2778 223.994 94.4376 222.1 97.8097C221.721 98.5257 221.285 99.4842 220.78 100.639C220.78 100.639 214.156 104.669 209.082 104.669C204.007 104.669 188.911 124.174 188.911 124.174C188.911 124.174 179.992 128.378 176.444 135.399C172.897 142.42 171.232 171.822 171.232 171.822C171.232 171.822 173.184 175.482 173.184 177.446C173.184 177.446 178.224 178.473 179.234 181.28C179.234 181.28 197.854 178.658 196.637 188.024C195.421 197.389 172.908 187.273 172.908 187.273C172.908 187.273 169.522 179.039 162.37 180.529L161.566 165.643L158.478 136.715L155.126 127.916C155.126 127.916 153.002 125.294 141.821 150.1C141.821 150.1 142.28 158.183 136.517 160.308C130.754 162.433 118.081 173.23 118.081 173.23C118.081 173.23 113.489 180.344 108.587 174.166C103.685 167.988 115.015 163.68 115.015 163.68C115.015 163.68 129.629 156.382 131.087 148.668C132.545 140.953 138.71 121.98 138.71 121.98C138.71 121.98 125.313 107.845 113.121 101.759L108.529 101.852L109.746 106.067C109.746 106.067 112.49 134.614 98.5762 153.345C98.5762 153.345 94.3517 176.66 128.309 184.986L125.428 190.703L113.948 190.795L81.0924 160.366C81.0924 160.366 89.4727 156.717 87.2341 136.496C87.2341 136.496 78.762 141.646 85.1907 148.287C85.1907 148.287 86.5912 154.753 81.9304 156.624L68.2579 143.921V139.799C68.2579 139.799 82.1141 126.507 79.5082 116.495C79.5082 116.495 59.7743 104.323 58.9362 97.1976C58.4234 93.064 58.4234 88.8823 58.9362 84.7487C58.9362 84.7487 58.4885 77.254 56.158 74.0783V68.847C56.158 68.847 13.4299 41.2816 55.5955 0.539828C55.5955 0.539828 60.1875 -3.12093 55.343 8.62351C55.343 8.62351 40.7406 22.5506 43.955 40.7158C43.955 40.7158 46.6872 48.0488 49.3964 48.6724C52.9217 54.4325 58.1357 58.9513 64.3203 61.6063C64.3203 61.6063 101.791 35.6115 143.44 54.7698C143.44 54.7698 185.249 54.2733 191.908 61.2368L197.361 62.2876C201.493 56.9524 208.496 49.4692 216.268 45.7854C215.981 42.5865 218.644 37.8518 228.138 36.1542C239.985 34.0294 250.937 39.9305 250.937 43.649C252.125 44.1965 253.109 45.1111 253.745 46.2596C254.381 47.4081 254.636 48.7307 254.473 50.0351C254.106 53.8575 264.805 59.4237 270.269 61.7218C271.854 61.9874 274.31 63.9737 272.152 69.0779Z" fill="#542D00"/>
<path id="dog21" d="M269.289 59.4358C269.416 62.1472 267.048 67.1358 256.577 65.3247C259.944 68.195 265.101 74.6558 258.818 77.5579C250.967 81.1907 248.726 71.669 240.117 73.4801C233.234 74.9312 228.267 81.0319 226.657 83.9022C226.331 84.5165 225.952 85.3214 225.531 86.317L209.861 93.2015C209.861 93.2015 203.978 99.228 203.315 102.575C202.652 105.922 184.74 116.344 184.74 116.344C184.74 116.344 171.059 124.012 168.817 136.468L165.166 141.838C165.166 141.838 164.218 155.85 160.567 163.783C160.567 163.783 164.892 169.079 165.145 172.32C165.145 172.32 178.657 173.548 176.563 177.52C174.469 181.492 162.387 179.501 162.387 179.501C162.387 179.501 151.948 163.148 151.337 151.635C151.337 151.635 134.972 157.99 131.036 161.665C131.036 161.665 125.985 164.143 125.985 153.245C125.985 153.245 136.94 155.469 149.611 141.721V116.587C149.611 116.587 134.878 98.1265 121.312 98.01C121.312 98.01 126.974 125.251 121.312 146.551C121.312 146.551 116.629 165.012 143.834 169.587C143.834 169.587 154.442 164.292 156.178 171.928C157.915 179.564 145.412 177.891 145.412 177.891C145.412 177.891 135.835 178.495 131.952 172.775C128.069 167.056 113.346 163.677 107.663 151.942L90.9614 138.999L98.928 119.426L85.0996 105.996C85.0996 105.996 71.2185 99.0162 72.4708 83.1819C72.4708 83.1819 71.3342 76.3186 68.9979 75.2277L69.24 68.6716C69.24 68.6716 22.0927 31.8344 75.407 4C75.407 4 78.5115 5.26039 73.0812 9.79354C67.6508 14.3267 51.9491 29.176 55.5273 37.6174C59.1054 46.0588 64.6936 57.6247 76.6488 61.0669C76.6488 61.0669 102.959 33.868 147.328 50.1259C147.328 50.1259 189.897 51.058 192.381 54.193L204.641 55.0298C207.914 50.4966 214.46 42.9978 221.826 39.5027C221.574 36.7806 223.858 32.7453 231.94 31.2943C242.043 29.4831 251.367 34.4717 251.367 37.6491C252.372 38.1211 253.204 38.9006 253.742 39.8764C254.281 40.8522 254.499 41.9743 254.367 43.0826C254.061 46.3448 263.207 51.0791 267.827 53.0492C269.047 53.3881 271.089 55.0721 269.289 59.4358Z" fill="#542D00"/>
<path id="dog22" d="M272.17 62.6315C272.319 65.791 269.558 71.5948 257.343 69.5C261.267 72.8311 267.277 80.3521 259.955 83.729C250.831 87.9417 248.173 76.8606 238.136 78.9784C230.152 80.6611 224.324 87.7585 222.431 91.1011C222.054 91.8223 221.609 92.761 221.119 93.9058C221.119 93.9058 211.401 99.7897 205.71 104.323C200.019 108.856 207.637 110.848 198.867 115.599C190.096 120.349 167.558 136.868 167.558 136.868C167.558 136.868 174.333 157.805 169.486 164.49C164.638 171.175 156.483 174.312 156.483 174.312C156.483 174.312 151.533 185.53 142.614 183.47L147.884 169.332C147.884 169.332 157.133 170.958 159.392 163.941C159.392 163.941 154.681 159.362 160.795 158.011C160.795 158.011 161.217 147.216 155.411 153.581C149.606 159.946 139.512 187.236 139.512 187.236C139.512 187.236 138.976 191.815 146.925 191.815C154.875 191.815 157.898 192.456 152.845 197.962C152.845 197.962 151.978 199.256 149.081 199.107C146.184 198.958 149.617 204.499 140.265 200.618C130.912 196.737 134.778 151.2 149.298 135.986C149.298 135.986 155.309 132.106 143.812 131.888C143.812 131.888 134.459 126.485 133.923 122.284C133.923 122.284 125.426 116.56 125.107 114.729C124.787 112.897 116.94 111.386 116.94 111.386C116.94 111.386 108.66 109.657 108.01 111.489C107.359 113.32 109.298 120.235 109.298 120.235C110.076 123.145 111.158 125.966 112.526 128.649C114.568 132.426 112.845 139.226 112.845 139.226C112.845 139.226 114.784 144.297 116.723 146.232C118.662 148.166 117.476 163.712 117.476 163.712L122.951 175.159L127.365 174.621L133.273 177.426C133.273 177.426 132.52 191.884 135.965 198.249L88.6542 162.052L90.7985 142.305C90.7985 142.305 76.2905 125.798 67.1546 118.895C67.1546 118.895 56.6159 116.308 56.0798 100.442C56.0798 100.442 53.5021 91.0554 50.6964 90.1396C50.6964 90.1396 49.6242 81.4052 50.6964 79.9972C50.6964 79.9972 22.1824 66.8327 25.2276 37.4931C32.858 13.6483 56.0228 19.681 56.0228 19.681L51.8369 23.3556C51.8369 23.3556 33.0177 26.3777 31.7288 42.8848C30.44 59.3919 59.3646 73.0945 59.3646 73.0945C59.3646 73.0945 84.6394 52.3175 109.173 53.3821C133.706 54.4467 140.458 58.0297 140.458 58.0297L196.072 58.6708V58.6135C199.494 53.5424 207.66 43.835 216.865 39.4735C216.579 36.3026 219.237 31.6206 228.669 29.9264C240.44 27.8201 251.321 33.6697 251.321 37.3558C252.5 37.8989 253.476 38.806 254.106 39.9447C254.736 41.0834 254.987 42.3942 254.822 43.6862C254.469 47.4752 265.087 52.9929 270.528 55.2824C271.885 55.5914 274.269 57.5833 272.17 62.6315Z" fill="#542D00"/>
<path id="dog23" d="M272.076 60.8844C272.242 64.3798 269.143 70.7882 255.499 68.4832C259.886 72.1813 266.618 80.4893 258.419 84.2254C248.218 88.8987 245.259 76.6266 234.038 78.9822C225.112 80.8439 218.583 88.696 216.479 92.3941C216.046 93.1794 215.561 94.2178 215.013 95.497C215.013 95.497 209.415 99.4484 205.105 99.7776C205.105 99.7776 196.905 126.475 173.226 132.82C173.226 132.82 168.648 129.73 184.702 156.237C182.806 169.473 176.93 181.833 167.845 191.698C167.845 191.698 158.013 190.229 164.236 178.679C164.236 178.679 178.161 169.243 173.238 165.026C168.316 160.809 172.92 161.936 172.92 161.936C172.92 161.936 169.273 146.485 162.17 145.662C162.17 145.662 156.7 151.032 155.233 156.237C155.233 156.237 143.604 166.647 141.971 178.679L119.86 194.94C119.86 194.94 108.562 187.341 118.585 184.213C128.608 181.085 133.16 169.573 133.16 169.573C133.16 169.573 137.253 144.37 143.973 140.444C150.694 136.518 132.344 133.605 132.344 133.605C132.344 133.605 107.619 112.949 103.36 114.608C99.1006 116.267 95.5046 117.698 95.5046 117.698C95.5046 117.698 93.3751 122.903 95.5046 133.96C97.6341 145.016 103.525 162.747 103.525 162.747L102.709 179.008C102.709 179.008 107.95 191.85 118.266 199.499C118.266 199.499 150.515 203.236 138.669 212.025L119.184 213C119.184 213 109.684 199.335 85.6094 178.197C85.6094 178.197 83.0591 167.141 84.6275 163.228C84.6275 163.228 73.8269 149.297 69.7336 148.6C65.6404 147.904 64.8115 134.935 47.9539 125.804C47.9539 125.804 40.303 117.344 41.0681 109.707C41.0681 109.707 34.3606 94.0912 35.6613 88.5567C35.6613 88.5567 -31.4631 55.5399 18.4722 19.2808C19.9289 18.1711 21.6436 17.4437 23.458 17.1658C23.9765 17.0757 24.5005 17.0207 25.0265 17.0012C29.1198 16.8366 10.4514 33.4653 10.4514 33.4653C10.4514 33.4653 -8.86729 63.8606 44.6767 79.6535C44.6767 79.6535 69.045 50.398 123.418 58.6554C123.418 58.6554 136.042 60.8464 146.613 57.7942C155.144 55.3372 178.492 56.3251 187.189 56.7937L186.934 56.4517C190.759 50.8286 199.889 40.0889 210.193 35.2764C209.861 31.7556 212.845 26.5757 223.378 24.714C236.55 22.3837 248.715 28.8554 248.715 32.9334C250.033 33.5347 251.122 34.5387 251.824 35.7988C252.526 37.0588 252.804 38.5089 252.617 39.937C252.222 44.129 264.157 50.2207 270.176 52.7536C271.745 53.1082 274.422 55.2866 272.076 60.8844Z" fill="#542D00"/>
</g>
</svg>
