<svg width="1440" height="1024" viewBox="0 0 1440 1024" fill="none" xmlns="http://www.w3.org/2000/svg">
<g id="jump">
<rect width="1440" height="1024" fill="white"/>
<path id="dog24" d="M747.35 485.289C741.802 482.956 730.816 477.356 731.176 473.483C731.344 472.169 731.086 470.835 730.437 469.677C729.789 468.519 728.785 467.596 727.572 467.044C727.572 463.279 716.351 457.307 704.22 459.453C694.504 461.18 691.761 465.955 692.059 469.19C682.578 473.623 674.209 483.516 670.636 488.695C670.636 488.695 656.891 480.918 644.604 482.893C644.604 482.893 619.623 476.501 605.942 470.45C592.26 464.399 556.183 471.601 556.183 471.601C556.183 471.601 536.719 480.7 528.131 491.059H506.096C500.925 489.742 495.502 489.742 490.33 491.059C482.792 493.361 465.631 481.494 461.917 468.957C458.203 456.42 450.429 481.727 477.918 494.746C487.838 498.398 498.464 499.77 508.995 498.759C508.995 498.759 519.778 497.032 519.198 507.174C519.198 507.174 518.038 512.462 525.576 516.257C525.576 516.257 522.912 533.072 536.123 539.169C549.335 545.266 551.435 565.176 551.435 565.176C550.892 572.571 548.57 579.729 544.665 586.049C543.891 587.341 543.46 588.806 543.414 590.308C543.367 591.81 543.706 593.299 544.398 594.635C547.627 600.857 555.604 610.874 574.049 613.518C574.049 613.518 581.368 607.297 567.671 606.488C553.974 605.679 557.704 575.706 568.314 575.955L569.599 591.96C569.599 591.96 562.64 599.893 571.448 600.017C580.256 600.142 579.566 600.826 579.566 600.826C586.509 605.776 594.283 609.462 602.525 611.714L603.45 614.996C603.45 614.996 624.779 620.067 620.689 610.968C616.599 601.868 607.008 611.31 581.509 594.853C581.509 594.853 583.938 585.412 581.29 583.219C578.641 581.025 586.509 569.997 586.509 569.997L584.863 535.778C584.863 535.778 599.83 547.288 602.494 550.975C605.158 554.661 611.803 558.207 611.803 558.207C611.803 558.207 607.258 572.828 607.603 579.734L603.199 584.401C603.199 584.401 580.35 587.045 583.829 593.142C587.308 599.24 611.803 595.211 611.803 595.211C611.803 595.211 618.072 593.951 616.881 586.469C615.69 578.988 630.453 565.176 630.453 565.176C637.402 571.83 645.107 577.661 653.412 582.55C665.574 589.347 666.169 595.802 663.379 597.404C660.59 599.006 655.841 606.846 655.841 606.846C655.841 606.846 647.253 615.478 656.766 621L664.602 612.134C664.602 612.134 663.787 603.735 675.572 594.402C675.572 594.402 680.43 590.389 661.06 572.424C661.06 572.424 647.504 559.981 654.791 559.545C654.791 559.545 667.658 553.665 671.262 549.979C674.867 546.293 686.934 526.057 696.573 524.61C697.09 523.443 697.544 522.479 697.936 521.748C699.879 518.357 705.772 511.124 714.109 509.398C724.453 507.251 727.148 518.528 736.599 514.235C744.137 510.798 737.931 503.145 733.903 499.739C746.441 501.885 749.324 495.959 749.168 492.739C751.299 487.669 748.838 485.647 747.35 485.289Z" fill="#542D00"/>
<path id="dog25" d="M760.403 457.016C754.586 455.659 742.874 451.956 742.574 448.106C742.52 446.778 742.038 445.502 741.2 444.468C740.362 443.434 739.212 442.697 737.922 442.368C737.286 438.679 725.312 434.635 713.796 438.838C704.602 442.168 702.717 447.324 703.549 450.435C695.538 456.056 689.297 466.283 686.407 472.158C686.225 472.534 686.045 472.893 685.902 473.221C683.535 471.55 677.89 471.95 672.233 472.942C660.2 475.132 648.019 476.406 635.792 476.754C628.808 476.917 621.732 477.157 616.934 477.35C609.597 477.556 602.314 478.674 595.255 480.678C568.52 488.463 557.565 505.578 557.565 505.578C557.565 505.578 537.633 507.125 534.497 503.974C531.361 500.823 525.833 502.129 525.833 502.129C513.832 503.789 501.777 492.559 501.777 492.559L499.16 477.916C494.79 472.927 497.163 495.459 497.163 495.459C505.883 507.265 523.251 508.198 523.251 508.198L549.473 516.273C550.06 525.055 554.581 526.5 554.581 526.5L556.955 541.446L562.882 548.924C565.205 555.499 566.517 562.387 566.772 569.353C563.58 582.098 551.187 594.023 551.187 594.023C553.578 601.385 571.857 613.969 577.292 614.332C581.022 614.385 584.698 613.437 587.934 611.586C589.152 603.619 577.428 607.654 577.428 607.654C577.428 607.654 568.877 602.092 567.774 597.86C566.672 593.627 573.27 585.613 573.27 585.613C581.098 582.619 585.224 573.214 585.224 573.214C585.224 573.214 588.207 562.553 594.268 568.721C600.33 574.889 600.402 588.203 600.402 588.203L602.756 601.844C602.756 601.844 640.968 622.668 638.86 613.601C638.679 612.438 638.257 611.325 637.62 610.333C636.983 609.342 636.146 608.495 635.162 607.846C634.178 607.197 633.069 606.761 631.905 606.565C630.742 606.369 629.551 606.418 628.408 606.71L616.876 599.99C609.734 588.626 615.589 576.338 615.589 576.338C617.909 545.867 608.394 532.697 607.993 532.175C611.422 534.383 615.033 536.295 618.788 537.891C631.748 542.966 645.086 547.022 658.68 550.021L673.083 547.561C678.008 551.989 683.4 555.869 689.166 559.132C692.185 568.048 678.203 561.193 678.203 561.193C678.203 561.193 667.6 559.86 669.422 567.128C671.243 574.395 685.649 571.005 685.649 571.005C685.649 571.005 710.676 570.049 700.648 558.279C690.619 546.509 694.743 546.705 694.743 546.705C694.743 546.705 716.026 544.346 725.943 552.467C735.859 560.587 724.992 560.945 730.138 569.329C735.284 577.713 739.041 567.806 739.041 567.806C739.041 567.806 734.529 563.568 735.634 551.731C736.739 539.895 726.895 538.62 726.895 538.62C719.75 539.109 701.221 531.586 701.221 531.586C718.745 515.987 717.407 504.371 717.407 504.371C717.688 503.14 717.986 502.112 718.233 501.318C718.253 501.066 718.425 500.808 718.549 500.513C720.207 496.558 724.71 489.332 731.969 486.464C741.726 482.635 746.276 493.277 754.761 487.455C761.578 482.809 754.217 476.322 749.672 473.64C762.342 473.656 764.127 467.374 763.434 464.223C764.67 458.679 761.99 457.12 760.403 457.016Z" fill="#542D00"/>
<path id="dog26" d="M775.313 466.136C769.652 463.732 758.435 457.925 758.802 453.959C758.979 452.6 758.719 451.22 758.059 450.02C757.398 448.82 756.373 447.864 755.133 447.292C755.133 443.414 743.689 437.255 731.302 439.466C721.395 441.221 718.599 446.186 718.897 449.503C709.217 454.1 700.691 464.311 697.022 469.645C697.022 469.645 681.699 468.224 636.08 459.118C570.63 444.712 549.297 478.067 549.297 478.067C542.002 476.16 534.543 474.955 527.02 474.47C523.264 471.435 516.852 471.628 516.852 471.628C511.978 472.165 507.056 471.226 502.719 468.931C498.382 466.636 494.827 463.09 492.513 458.749L493.072 442.958C486.084 432.43 487.045 462.083 487.045 462.083C487.045 462.083 496.672 480.278 513.078 479.506C522.948 479.16 532.596 482.498 540.159 488.876C537.154 494.561 545.645 504.036 545.645 504.036C545.645 504.036 545.645 512.001 546.012 517.669C546.379 523.336 554.504 528.196 554.504 528.196C552.617 534.074 553.752 535.583 558.452 543.163C563.152 550.743 557.334 564.376 546.012 573.658C534.691 582.94 569.984 604.539 569.984 604.539L586.005 606.294C609.016 601.03 574.491 597.398 574.491 597.398C574.491 597.398 565.756 593.029 562.051 587.73C558.347 582.431 560.724 573.342 569.599 568.219C578.475 563.095 581.096 552.866 581.096 552.866C588.644 542.075 594.112 567.657 594.112 567.657L595.615 588.713C595.615 588.713 634.053 619.014 643.348 610.487C652.643 601.96 635.049 600.644 635.049 600.644C600.525 587.958 610.588 558.972 610.588 558.972C605.888 542.303 607.199 530.758 607.199 530.758C604.368 523.178 605.452 517.862 609.662 523.108C613.873 528.354 623.168 533.776 623.168 533.776C623.168 533.776 628.689 537.004 633.232 540.408C638.108 543.565 643.212 546.351 648.502 548.743L650.582 570.903L641.723 571.272C641.723 571.272 627.187 554.989 623.605 565.587C620.023 576.185 638.893 577.729 652.661 582.273C666.429 586.818 666.428 569.991 665.293 559.165C664.157 548.339 668.123 547.988 669.451 549.883C670.779 551.778 694.715 562.569 703.574 565.411C712.432 568.254 706.369 585.677 706.369 585.677C706.369 585.677 703.015 583.414 702.456 592.502C702.071 607.276 713.201 589.853 713.201 589.853L716.608 575.448C716.608 575.448 722.636 563.902 710.178 556.691C693.58 546.655 689.212 538.899 689.212 538.899L704.482 529.425L718.075 508.773L723.457 506.808C723.963 505.597 724.435 504.597 724.82 503.843C726.811 500.333 732.892 492.859 741.33 491.087C751.814 488.858 754.644 500.526 764.271 496.07C771.976 492.56 765.651 484.63 761.528 481.12C774.37 483.331 777.253 477.225 777.113 473.909C779.349 468.593 776.833 466.505 775.313 466.136Z" fill="#542D00"/>
<path id="dog27" d="M790.677 539.244C777.452 511.402 771.128 517.297 771.128 517.297C750.145 518.701 739.891 512.013 739.891 512.013C753.926 499.429 753.515 481.145 753.515 481.145C753.751 479.81 754.036 478.726 754.276 477.894C755.531 473.949 760.084 465.138 768.212 461.553C778.303 457.069 783.623 468.204 792.365 461.677C799.386 456.464 791.326 449.886 786.403 447.229C799.823 446.738 801.447 439.976 800.592 436.718C801.622 430.892 798.714 429.354 797.086 429.308C790.884 428.1 778.343 424.672 777.875 420.59C777.762 419.188 777.203 417.859 776.279 416.798C775.355 415.738 774.116 415.001 772.743 414.697C771.92 410.832 759.088 407.055 747.071 412.017C737.441 415.894 735.675 421.46 736.693 424.746C727.908 431.414 721.459 443.481 718.924 449.617C718.924 449.617 702.552 459.017 685.472 460.851C668.393 462.685 637.341 469.079 619.608 471.244C601.875 473.409 587.686 487.92 587.686 487.92C587.686 487.92 582.785 488.709 577.53 496.131C572.275 503.554 552.972 498.298 552.972 498.298C550.739 496.603 548.152 495.433 545.405 494.877C542.657 494.32 539.819 494.39 537.102 495.082L506.715 485.206L496.104 473.284C495.277 486.159 511.923 495.502 511.923 495.502C543.611 501.702 564.215 511.801 564.215 511.801L564.825 519.498C567.53 521.446 569.22 529.446 569.22 529.446C567.858 535.046 569.781 542.994 569.781 542.994C571.981 547.85 573.104 553.126 573.071 558.458C580.386 575.135 553.158 593.552 553.158 593.552L553.932 597.168C557.628 597.933 557.755 605.731 557.755 605.731L573.381 618.632L574.051 621.783C580.114 621.13 586.041 619.542 591.619 617.078C591.877 609.943 580.285 614.924 580.285 614.924L569.937 601.933C569.937 601.933 570.831 594.148 581.621 586.551C592.412 578.955 595.631 570.428 595.631 570.428C605.655 561.486 606.633 586.548 606.633 586.548C606.633 586.548 599.124 609.662 603.239 608.79C607.354 607.919 619.462 618.524 619.462 618.524C632.082 621.928 638.608 614.47 638.608 614.47C638.717 606.602 632.135 610.274 632.135 610.274C617.709 612.559 617.662 599.158 617.662 599.158L629.754 560.652L623.826 532.557C624.299 522.838 632.477 532.748 666.753 539.35C701.029 545.952 720.309 529.365 720.309 529.365L746.489 539.055C743.658 542.442 747.881 546.853 747.881 546.853C738.587 549.562 730.633 563.409 740.229 562.148C749.824 560.888 750.69 554.103 757.177 544.126C763.665 534.15 751.73 530.347 751.73 530.347C768.667 521.958 772.396 533.574 772.396 533.574C773.827 530.739 778.028 533.901 778.028 533.901C790.198 554.357 792.612 552.589 792.612 552.589C801.598 544.264 790.677 539.244 790.677 539.244Z" fill="#542D00"/>
<path id="dog28" d="M831.116 418.743C825.498 416.794 814.312 411.905 814.442 408.038C814.521 406.726 814.18 405.423 813.469 404.317C812.758 403.21 811.713 402.358 810.485 401.882C810.241 398.162 798.81 392.948 786.988 395.839C777.527 398.13 775.133 403.035 775.589 406.219C766.503 411.206 758.882 421.521 755.674 426.882C752.222 425.745 716.919 430.943 716.919 430.943C716.919 430.943 700.635 433.493 699.202 432.064C697.769 430.634 653.608 431.446 643.431 432.535C633.254 433.623 617.866 444.149 617.866 444.149C613.616 444.149 606.467 449.867 606.467 449.867C596.322 462.489 571.164 444.507 571.164 444.507L562.469 444.149L532.165 428.912C527.931 414.764 523.046 416.908 523.046 416.908C522.069 432.73 537.001 441.648 537.001 441.648C581.065 457.079 587.48 465.315 587.48 465.315L587.334 472.609C590.753 473.908 590.314 483.639 590.314 483.639C588.327 486.043 589.793 499.444 589.793 499.444C590.782 504.255 590.936 509.201 590.249 514.064C593.115 532.988 565.139 547.186 565.139 547.186L565.383 551.117C567.631 553.099 568.103 560.49 568.103 560.49L581.569 576.328L581.765 579.349C595.199 580.324 599.677 576.701 599.677 576.701C600.507 570.431 588.962 572.981 588.962 572.981C584.614 571.584 579.355 557.956 579.355 557.956C579.355 557.956 586.389 546.747 592.528 545.301C598.667 543.856 607.33 536.643 607.33 536.643C612.215 528.521 617.345 528.83 617.345 528.83C628.092 542.816 612.818 565.412 612.818 565.412L613.176 571.162C618.233 573.402 622.6 576.946 625.828 581.428C630.713 588.559 649.635 582.809 649.635 582.809C650.254 575.775 646.867 575.256 646.867 575.256C626.985 578.033 629.346 562.553 629.346 562.553L647.648 525.792L645.678 494.522L650.107 492.427C665.121 501.491 700.456 512.31 700.456 512.31L708.354 512.115C717.343 517.313 728.367 513.593 728.367 513.593C741.247 508.232 744.943 508.2 744.943 508.2L770.443 520.302C767.187 522.576 770.102 529.236 770.102 529.236C770.102 529.236 754.323 533.443 755.902 540.428C757.482 547.413 771.062 540.834 771.062 540.834C774.292 535.706 777.803 530.76 781.581 526.02C787.737 518.304 777.967 512.521 777.967 512.521C799.705 508.184 797.132 518.417 797.132 518.417C805.47 516.289 808.824 529.545 808.824 529.545C809.508 536.594 817.161 541.825 817.161 541.825C823.772 533.882 816.266 527.482 816.266 527.482L808.221 509.71C804.004 500.825 792.785 500.841 792.785 500.841C769.597 496.601 767.919 491.663 767.919 491.663L774.124 484.646C782.835 481.137 783.519 460.848 783.519 460.848C783.943 459.662 784.333 458.688 784.675 457.94C786.304 454.448 791.808 446.911 799.852 444.685C809.899 441.924 813.269 452.937 822.307 448.096C829.537 444.214 822.942 437.018 818.741 433.899C831.279 435.247 833.705 429.205 833.396 426.037C835.171 420.79 832.614 418.955 831.116 418.743Z" fill="#542D00"/>
<path id="dog29" d="M886.489 504.139L881.082 503.401C889.751 494.653 862.337 487.309 862.337 487.309C851.523 477.066 844.873 477.084 844.873 477.084C844.873 477.084 811.259 481.854 813.566 466.733C815.16 457.471 820.339 449.207 827.985 443.728C828.417 442.378 828.814 441.28 829.156 440.452C830.959 436.492 836.744 427.941 845.63 425.223C856.714 421.821 860.805 433.972 870.7 428.301C878.63 423.747 871.06 415.935 866.302 412.604C880.27 413.702 882.794 406.916 882.289 403.388C884.092 397.501 881.244 395.521 879.586 395.287C873.26 393.271 860.679 388.195 860.679 383.911C860.731 382.446 860.316 381.003 859.493 379.79C858.67 378.576 857.482 377.656 856.101 377.16C855.723 373.02 842.836 367.584 829.787 371.166C819.334 374.028 816.81 379.554 817.477 383.083C807.528 388.933 799.364 400.652 795.975 406.718C783.701 405.386 769.391 414.872 769.391 414.872L751.728 416.493L735.056 422.955C716.312 421.929 687.276 426.753 687.276 426.753C687.276 426.753 652.419 436.654 644.976 442.27C642.682 443.888 640.029 444.929 637.245 445.302C634.462 445.675 631.629 445.369 628.989 444.412C587.427 429.165 545 455.375 545 455.375C557.148 456.311 573.837 449.308 573.837 449.308C609.362 441.82 623.582 455.051 623.582 455.051L624.231 463.601L619.779 468.659C607.163 490.369 606.622 503.149 606.622 503.149C599.701 520.484 581.786 526.965 581.786 526.965L582.236 530.439C571.422 544.426 568.394 555.928 568.394 555.928C563.564 556.918 560.518 562.679 560.518 562.679L564.573 578.592C579.515 575.459 571.098 571.985 571.098 571.985L571.368 565.919C572.874 562.454 574.683 559.129 576.775 555.982C581.011 546.712 597.556 532.725 597.556 532.725C604.646 530.105 610.799 525.444 615.237 519.332H618.842C617.472 532.743 597.592 541.69 597.592 541.69C599.917 570.221 611.614 580.374 611.614 580.374L612.029 585L630.323 583.326C638.83 577.476 626.862 576.936 626.862 576.936L624.339 574.829C609.307 574.019 609.398 555.532 609.398 555.532L618.085 544.192C627.422 541.035 635.726 535.404 642.11 527.901C650.473 523.437 658.331 503.131 658.331 503.131L666.495 490.531C708.328 483.33 726.261 490.279 726.261 490.279C726.261 490.279 771.067 496.183 780.511 486.948C789.955 477.714 791.109 482.898 791.109 482.898C791.956 495.229 812.503 491.899 812.503 491.899C838.835 494.977 848.549 501.205 848.549 501.205C847.18 506.39 855.578 502.753 855.578 502.753C862.138 508.179 870.504 510.936 879.009 510.476C892.995 509.792 886.489 504.139 886.489 504.139Z" fill="#542D00"/>
</g>
</svg>
