<svg width="1440" height="1024" viewBox="0 0 1440 1024" fill="none" xmlns="http://www.w3.org/2000/svg">
<g id="preloader">
<rect width="1440" height="1024" fill="white"/>
<rect id="bg container" width="1440" height="1024" fill="white"/>
<path id="bone" d="M889.112 548.747C890.793 544.448 888.368 539.537 883.942 538.277C880.162 537.156 876.23 538.997 874.576 542.532C874.506 542.74 874.344 542.763 874.137 542.693L850.561 534.742C850.354 534.672 850.262 534.487 850.309 534.348C851.134 530.533 849.051 526.664 845.433 525.29C841.148 523.613 836.29 526.145 834.978 530.491C834.556 531.97 834.572 533.52 835.005 534.979C835.027 535.141 834.98 535.279 834.864 535.395C833.66 536.225 832.709 537.448 832.125 538.95C830.444 543.249 832.869 548.16 837.295 549.421C841.075 550.541 845.007 548.701 846.661 545.165C846.731 544.957 846.893 544.935 847.1 545.005L870.676 552.955C870.883 553.025 870.975 553.211 870.928 553.349C870.103 557.164 872.186 561.033 875.804 562.408C880.089 564.085 884.947 561.553 886.259 557.207C886.681 555.727 886.664 554.177 886.232 552.719C886.21 552.557 886.257 552.418 886.373 552.303C887.6 551.404 888.552 550.18 889.112 548.747Z" fill="black" stroke="black" stroke-width="4" stroke-miterlimit="10"/>
<ellipse id="shadow-dog" cx="606.147" cy="644.332" rx="87.5964" ry="9.65221" fill="#A9A9A9"/>
<ellipse id="shadow-bone" cx="858.947" cy="641.371" rx="29.4756" ry="3.2174" fill="#A9A9A9"/>
<line id="Line1" x1="1144" y1="594.5" x2="1270" y2="594.5" stroke="black"/>
<line id="line2" x1="1153" y1="519.5" x2="1200" y2="519.5" stroke="black"/>
<line id="line3" x1="1048" y1="402.5" x2="1124" y2="402.5" stroke="black"/>
<line id="line4" x1="1067" y1="382.5" x2="1171" y2="382.5" stroke="black"/>
<line id="line5" x1="1099" y1="374.5" x2="1189" y2="374.5" stroke="black"/>
<line id="line6" x1="1002" y1="385.5" x2="1078" y2="385.5" stroke="black"/>
<line id="line7" x1="1081" y1="496.5" x2="1153" y2="496.5" stroke="black"/>
<line id="line8" x1="1133" y1="592.5" x2="1189" y2="592.5" stroke="black"/>
<line id="line9" x1="1125" y1="691.5" x2="1197" y2="691.5" stroke="black"/>
<line id="line10" x1="1111" y1="630.5" x2="1176" y2="630.5" stroke="black"/>
<line id="line11" x1="1048" y1="449.5" x2="1113" y2="449.5" stroke="black"/>
<path id="dog1" d="M722.347 487.579C722.462 490.024 720.319 494.517 710.835 492.895C713.882 495.482 718.557 501.295 712.872 503.909C705.788 507.169 703.724 498.592 695.932 500.232C689.733 501.543 685.208 507.037 683.738 509.615C683.446 510.173 683.101 510.9 682.72 511.795C675.503 512.893 666.355 528.266 663.645 531.066C660.936 533.866 651.248 538.323 651.248 538.323C645.74 538.668 655.959 548.114 655.959 548.114C670.553 561.75 666.886 564.807 666.886 564.807C657.969 571.895 658.58 578.275 658.58 578.275L652.638 585C645.474 580.809 651.948 574.252 651.948 574.252C651.948 574.252 655.49 568.307 657.624 567.084C659.758 565.861 659.28 560.961 650.106 555.805C640.932 550.648 632.811 542.603 632.811 542.603C632.811 542.603 621.716 553.093 622.583 558.782C623.451 564.47 618.758 565.418 618.758 565.418C618.758 565.418 600.312 568.484 597.691 563.85C595.07 559.216 612.276 557.205 612.276 557.205L615.597 553.66C615.34 548.415 618.758 537.313 618.758 537.313C618.758 537.313 613.764 534.655 611.753 531.81C609.743 528.966 598.47 520.292 598.47 520.292L599.701 546.262C599.701 546.262 593.759 554.653 595.769 556.31C597.78 557.967 595.938 565.17 595.938 565.17C615.163 577.672 622.327 570.486 625.47 577.407C628.614 584.327 612.541 580.472 612.541 580.472L611.842 577.974C605.63 576.27 599.771 573.474 594.539 569.716C594.539 569.716 595.07 569.193 588.429 569.104C581.787 569.016 587.029 562.982 587.029 562.982L586.064 550.834C578.094 550.657 575.314 573.517 585.63 574.084C595.947 574.651 590.439 579.4 590.439 579.4C576.536 577.389 570.523 569.769 568.088 565.055C567.57 564.039 567.317 562.907 567.355 561.767C567.392 560.627 567.717 559.514 568.3 558.534C573.33 549.939 573.401 542.682 573.401 542.682C573.401 542.682 571.825 527.557 561.889 522.923C551.954 518.289 553.919 505.53 553.919 505.53C548.234 502.642 549.111 498.628 549.111 498.628C549.545 490.928 541.425 492.239 541.425 492.239C533.487 493.003 525.479 491.958 518.002 489.183C497.299 479.303 503.152 460.076 505.95 469.601C508.749 479.126 521.677 488.137 527.354 486.383C533.03 484.628 539.237 486.383 539.237 486.383H555.841C562.305 478.515 576.979 471.612 576.979 471.612C576.979 471.612 604.156 466.19 614.463 470.726C624.771 475.263 643.597 480.127 643.597 480.127C652.851 478.612 663.203 484.557 663.203 484.557C665.859 480.623 672.2 473.11 679.346 469.734C679.124 467.279 681.188 463.656 688.511 462.344C697.65 460.714 706.098 465.25 706.098 468.103C707.014 468.523 707.773 469.225 708.262 470.106C708.751 470.988 708.945 472.003 708.816 473.003C708.542 475.936 716.786 480.198 721.01 481.97C722.117 482.138 724.003 483.671 722.347 487.579Z" fill="#542D00"/>
<path id="dog2" d="M718.364 486.401C718.478 488.816 716.369 493.263 707.014 491.653C710.021 494.212 714.651 499.962 709.019 502.549C701.994 505.789 699.999 497.297 692.305 498.917C686.158 500.211 681.729 505.626 680.278 508.204C679.992 508.75 679.648 509.478 679.276 510.36L675.362 511.798L665.464 526.834L654.334 533.735C654.334 533.735 657.494 539.389 669.606 546.701C678.674 551.943 674.284 560.358 674.284 560.358L671.802 570.842C671.802 570.842 663.698 583.531 663.975 572.759C664.385 566.137 666.838 567.785 666.838 567.785C666.838 567.785 671.267 555.096 664.805 553.026C658.343 550.956 640.942 543.098 639.94 541.718C638.937 540.338 636.122 540.606 636.914 548.474C637.706 556.342 637.735 568.6 627.712 565.303C617.69 562.006 603.935 560.895 606.55 553.161C609.166 545.427 619.742 557.301 619.742 557.301L626.195 557.023L624.686 540.884C624.686 540.884 616.85 537.3 613.557 534.817C610.263 532.335 606.226 530.026 606.226 530.026C606.226 530.026 599.401 526.077 596.385 522.253C593.368 518.429 592.566 522.301 594.59 527.821C594.59 527.821 593.636 536.236 597.062 548.378C597.062 548.378 589.789 569.462 614.931 578.73C614.931 578.73 627.712 579.688 620.973 585.898C614.234 592.109 586.209 570.037 586.209 570.037L585.112 554.704C585.112 554.704 581.103 536.044 575.576 543.903C575.576 543.903 573.667 551.349 567.195 555.077C560.723 558.805 558.948 565.428 561.697 569.29C564.446 573.152 570.765 576.324 570.765 576.324C570.765 576.324 595.907 578.941 579.146 582.803L567.472 581.566C567.472 581.566 541.776 565.84 550.014 559.074C558.251 552.308 562.518 542.389 559.082 536.868C555.645 531.348 554.824 530.246 556.218 525.972C556.218 525.972 550.309 522.378 550.033 518.238C549.756 514.098 549.765 508.309 549.765 508.309C549.765 508.309 543.58 501.409 545.776 497.269C540.241 492.633 533.19 490.225 525.988 490.512C514.037 491.068 507.031 477.823 507.031 477.823C507.031 477.823 506.344 456.164 511.422 463.889L511.012 475.389C512.699 478.547 515.288 481.127 518.447 482.797C521.605 484.467 525.189 485.152 528.737 484.762C528.737 484.762 533.414 484.628 536.154 486.832C541.633 487.191 547.067 488.07 552.381 489.458C552.381 489.458 567.921 465.163 615.599 475.658C648.836 482.28 660.004 483.324 660.004 483.324C662.667 479.434 668.881 471.997 675.935 468.652C675.715 466.227 677.758 462.633 684.974 461.34C693.995 459.73 702.328 464.215 702.328 467.032C703.23 467.452 703.977 468.148 704.459 469.022C704.941 469.895 705.134 470.9 705.01 471.891C704.733 474.766 712.913 479.012 717.037 480.766C718.144 480.986 719.977 482.5 718.364 486.401Z" fill="#542D00"/>
<path id="dog3" d="M718.333 485.709C718.453 488.25 716.22 492.902 706.368 491.211C709.542 493.903 714.378 499.935 708.481 502.646C701.092 506.038 698.98 497.144 690.88 498.835C684.402 500.185 679.727 505.888 678.205 508.569C677.904 509.149 677.544 509.91 677.153 510.83C677.153 510.83 676.633 520.074 660.924 529.838C660.924 529.838 674.32 538.192 679.947 538.762C679.947 538.762 687.436 541.063 684.953 550.137C682.47 559.211 685.443 563.143 685.443 563.143C685.443 563.143 681.198 570.346 678.315 563.143C675.431 555.94 683.942 557.09 677.314 549.457C670.686 541.824 653.816 540.823 653.816 540.823C653.816 540.823 650.572 540.103 656.819 550.617C663.067 561.132 643.483 558.531 643.483 558.531C643.483 558.531 631.809 559.251 631.379 553.349C630.948 547.446 639.008 549.897 639.008 549.897C639.008 549.897 648.96 557.09 647.808 549.747C647.808 549.747 640.89 544.145 636.855 538.592H625.321C625.321 538.592 608.601 531.889 595.916 523.826C595.916 523.826 590.049 519.964 588.287 517.943C588.527 518.403 594.204 529.948 588.287 553.349C588.287 553.349 582.09 562.133 586.125 571.927L594.204 578.7C594.204 578.7 600.972 578.12 601.403 585.463C601.833 592.806 574.891 571.457 574.891 571.457V560.532C574.891 560.532 576.613 550.157 572.729 544.525C568.844 538.892 565.089 546.826 565.089 546.826C565.089 546.826 560.614 553.599 554.136 554.889C554.136 554.889 547.939 560.222 548.219 563.683C548.5 567.145 554.417 572.607 554.417 572.607C554.417 572.607 564.078 571.026 562.056 577.069C559.291 578.074 556.308 578.322 553.415 577.789C549.23 576.789 536.695 564.544 535.824 558.491C535.824 558.491 547.068 550.858 551.253 541.353C551.989 535.898 551.891 530.362 550.963 524.936L547.358 518.313L547.508 506.358C547.508 506.358 544.184 504.637 544.905 497.724L525.592 487.93C525.592 487.93 512.196 484.929 507 474.534C507 474.534 508.161 456.676 510.895 461.138L511.045 472.953C511.045 472.953 518.964 483.318 528.476 483.608C528.476 483.608 532.951 483.318 534.963 486.199C536.976 489.081 552.695 490.521 552.695 490.521C552.695 490.521 563.518 478.656 585.354 476.165C591.11 475.546 596.922 475.643 602.654 476.455C606.419 476.955 611.956 477.706 617.412 478.506C626.968 479.869 636.614 480.505 646.267 480.407C650.802 480.407 655.277 480.827 656.859 482.408C659.663 478.326 666.21 470.532 673.639 467.021C673.409 464.48 675.562 460.718 683.161 459.358C692.672 457.667 701.453 462.359 701.453 465.36C702.402 465.797 703.187 466.526 703.694 467.44C704.2 468.354 704.4 469.406 704.266 470.442C703.986 473.444 712.596 477.916 716.941 479.756C718.102 480.067 720.025 481.647 718.333 485.709Z" fill="#542D00"/>
<path id="dog4" d="M722.378 483.792C722.486 486.251 720.339 490.731 710.857 489.125C713.909 491.732 718.587 497.58 712.895 500.207C705.776 503.497 703.748 494.874 695.949 496.509C689.716 497.828 685.216 503.359 683.749 505.956C683.454 506.511 683.119 507.244 682.764 508.146C682.764 508.146 680.342 521.111 668.634 527.901C668.634 527.901 674.838 534.155 689.755 536.296C689.755 536.296 695.073 533.075 700.223 554.702C700.223 554.702 707.115 559.877 699.514 564.347C699.514 564.347 697.544 565.239 692.06 548.983C692.06 548.983 689.578 546.119 688.121 547.913C688.121 547.913 687.235 539.151 674.099 542.55C674.099 542.55 681.917 547.011 675.881 553.087C669.845 559.163 668.221 563.812 661.328 563.266C654.435 562.721 662.047 554.147 668.969 553.612C668.969 553.612 666.655 549.865 669.146 547.903L652.279 537.178C652.279 537.178 636.307 546.02 613.227 536.237C590.146 526.453 585.892 518.236 584.12 525.026V545.752L569.921 571.127C569.921 571.127 567.951 580.592 578.438 581.128C578.438 581.128 583.588 579.522 582.377 585.093C582.377 585.093 576.695 589.384 568.355 585.093C568.355 585.093 561.462 575.805 558.41 575.805C555.357 575.805 564.091 560.61 564.091 560.61C564.091 560.61 567.114 542.768 558.764 547.586C558.764 547.586 555.219 553.107 546.525 556.863C537.83 560.62 536.048 565.972 536.048 565.972L541.375 576.697C541.375 576.697 550.237 574.913 549.006 579.909C544.749 580.817 540.378 581.058 536.048 580.622V578.303L526.999 566.864C526.999 566.864 528.062 561.334 525.581 560.253V557.577C525.581 557.577 547.411 548.656 544.742 535.771C545.564 532.003 545.564 528.1 544.742 524.332C544.742 524.332 544.565 518.385 546.347 514.688C546.347 514.688 546.347 508.79 544.742 507.006L545.461 501.485C545.461 501.485 532.503 491.276 511.195 482.167C511.195 482.167 500.905 473.058 503.386 464.117L509.068 474.128L528.948 485.567C528.948 485.567 534.63 484.843 539.602 490.205C539.602 490.205 552.403 496.817 557.169 492.346C561.935 487.876 565.509 488.064 565.509 488.064C565.509 488.064 577.581 480.026 590.362 481.126C603.144 482.226 625.86 482.375 638.109 483.624C650.359 484.873 663.238 480.65 663.238 480.65C665.926 476.686 672.238 469.143 679.387 465.782C679.16 463.314 681.228 459.657 688.554 458.348C697.702 456.703 706.15 461.263 706.15 464.137C707.071 464.561 707.832 465.272 708.321 466.164C708.81 467.056 709.002 468.083 708.868 469.093C708.592 472.067 716.883 476.339 721.058 478.123C722.122 478.311 723.973 479.857 722.378 483.792Z" fill="#542D00"/>
<path id="dog5" d="M720.293 485.333C720.425 488.037 718.067 492.991 707.669 491.197C710.999 494.044 716.161 500.458 709.886 503.343C702.083 506.949 699.856 497.498 691.298 499.291C684.458 500.734 679.523 506.797 677.919 509.644C677.508 510.425 677.137 511.226 676.806 512.044C676.806 512.044 674.588 521.448 662.483 530.567C662.483 530.567 671.39 537.361 681.353 540.056C681.353 540.056 689.723 542.741 686.703 552.392C686.703 552.392 685.76 559.176 686.524 563.475C686.524 563.475 687.939 570.81 681.174 568.134C680.07 566.708 679.457 564.959 679.426 563.152C679.395 561.345 679.949 559.577 681.004 558.113V552.211C681.004 552.211 677.23 553.094 677.626 548.814C677.626 548.814 668.729 542.912 654.151 542.912C654.151 542.912 664.606 557.753 655.378 559.897C649.601 561.186 643.642 561.43 637.781 560.618C637.781 560.618 627.836 555.789 634.006 551.13C638.271 548.283 642.187 554.166 642.187 554.166C642.187 554.166 648.792 555.779 648.792 551.841L637.752 540.369L625.071 539.828C625.071 539.828 603.37 532.18 588.358 519.085C588.358 519.085 594.963 543.595 584.282 564.224C584.282 564.224 584.065 570.99 585.707 574.985C587.348 578.98 594.425 581.409 594.425 581.409C594.425 581.409 602.256 581.086 601.369 589C601.369 589 590.556 588.772 585.489 582.007C585.489 582.007 575.111 576.693 574.025 573.799C574.025 573.799 573.582 562.27 574.969 556.614C574.969 556.614 572.138 540.198 568.364 544.639C564.59 549.08 554.466 556.026 554.466 556.026C554.466 556.026 545.313 562.45 547.078 566.464C548.842 570.478 553.041 574.786 553.041 574.786C553.041 574.786 562.193 573.552 561.306 579.653C561.306 579.653 548.956 586.533 536.378 563.911C536.378 563.911 532.745 560.116 537.152 557.696C541.558 555.276 549.946 543.064 549.946 543.064C550.834 535.249 549.813 527.335 546.974 520.006C543.879 507.461 546.191 506.797 546.191 506.797C546.191 506.797 542.785 502.48 543.662 498.589C543.662 498.589 528.566 489.167 520.725 487.288C512.884 485.409 505.062 475.199 505.062 475.199C505.062 475.199 504.184 455.68 509.034 460.443V473.092C513.302 478.597 519.374 482.4 526.169 483.824L530.368 483.606C530.368 483.606 540.511 491.036 552.305 490.694C552.305 490.694 569.072 472.846 597.737 475.512C626.402 478.178 633.912 480.607 633.912 480.607C633.912 480.607 653.057 478.653 655.359 481.889C658.322 477.543 665.238 469.259 673.088 465.53C672.833 462.825 675.107 458.83 683.146 457.378C693.176 455.585 702.46 460.576 702.46 463.727C703.463 464.194 704.292 464.97 704.826 465.942C705.361 466.915 705.573 468.033 705.433 469.135C705.131 472.371 714.226 477.078 718.812 479.032C720.048 479.336 722.086 481.025 720.293 485.333Z" fill="#542D00"/>
<path id="dog6" d="M720.429 484.199C720.531 486.4 718.582 490.448 709.967 488.978C712.737 491.305 716.981 496.538 711.814 498.898C705.342 501.846 703.496 494.119 696.414 495.588C690.747 496.764 686.655 501.72 685.325 504.047C685.063 504.542 684.749 505.197 684.402 506.004C684.402 506.004 683.038 519.93 676.854 521.962L672.255 526.523C672.255 526.523 673.203 529.984 689.061 533.915C689.061 533.915 696.837 534.385 699.37 540.676L704.131 553.275C704.131 553.275 709.053 557.996 704.131 563.186C704.131 563.186 699.048 559.256 698.896 554.375C698.896 554.375 697.151 545.136 691.272 546.203C691.272 546.203 693.491 539.282 678.26 541.323C678.26 541.323 684.766 545.724 680.166 550.764C677.342 553.862 674.695 557.115 672.238 560.507C672.238 560.507 662.564 564.438 661.767 559.566C660.971 554.695 672.077 552.486 672.077 552.486C672.077 552.486 670.332 547.774 672.712 546.354L655.584 536.922C655.584 536.922 653.042 536.779 643.868 539.912C643.868 539.912 636.083 541.995 630.086 538.03L624.614 537.82C624.614 537.82 600.615 528.85 590.62 521.962L587.46 523.214V544.817L573.254 569.234C573.254 569.234 570.942 579.775 584.834 578.725C584.834 578.725 587.147 579.238 586.41 584.05C586.41 584.05 573.042 587.183 569.993 582.068C567.952 578.844 565.084 576.215 561.683 574.45V570.485C561.683 570.485 573.254 555.593 566.418 545.506C566.418 545.506 562.835 545.027 559.15 550.453C559.15 550.453 552.839 555.039 548.527 555.77C544.216 556.501 538.904 563.9 538.904 563.9C538.904 563.9 541.954 573.501 544.902 574.652C544.902 574.652 553 573.4 552.161 577.675C552.161 577.675 548.9 579.977 539.641 578.717V576.651L531.009 565.169C531.009 565.169 531.009 560.062 529.535 558.6V555.887C529.535 555.887 549.527 547.328 548.375 534.183C549.05 530.885 549.156 527.497 548.688 524.163C548.688 524.163 548.265 514.873 549.739 513.311C549.739 513.311 550.476 506.634 548.163 505.584L548.587 500.544C548.587 500.544 544.529 494.597 514.703 482.066C514.703 482.066 504.758 475.287 506.13 464.427C506.13 464.427 509.603 463.167 511.916 473.087L532.246 484.846L538.244 485.467C538.244 485.467 554.872 498.906 562.445 490.683C562.445 490.683 567.604 487.03 570.552 487.24C570.552 487.24 581.708 480.671 588.756 480.352C595.804 480.033 626.435 481.402 627.384 482.444C628.332 483.485 639.692 482.444 639.692 482.444C639.692 482.444 664.36 480.394 666.706 481.318C669.163 477.773 674.889 471.004 681.395 467.963C681.191 465.754 683.089 462.487 689.722 461.311C698.032 459.841 705.715 463.923 705.715 466.493C706.547 466.872 707.235 467.504 707.68 468.297C708.124 469.09 708.303 470.003 708.188 470.903C707.934 473.549 715.465 477.396 719.269 478.983C720.226 479.294 721.878 480.671 720.429 484.199Z" fill="#542D00"/>
<path id="dog7" d="M725.404 482.882C725.506 485.154 723.551 489.326 714.701 487.815C717.537 490.207 721.883 495.622 716.555 498.014C709.938 501.046 708.057 493.081 700.801 494.592C695.009 495.807 690.83 500.916 689.468 503.317C689.19 503.837 688.875 504.513 688.541 505.339C688.541 505.339 688.17 511.829 685.594 512.951C683.018 514.073 677.134 523.808 677.134 523.808L690.617 529.853C693.601 529.456 696.636 529.947 699.343 531.267C702.049 532.586 704.307 534.675 705.833 537.271C711.699 546.478 717.407 548.851 717.407 548.851C717.407 548.851 721.206 549.964 720.419 554.489C720.419 554.489 713.756 555.676 711.384 551.55C709.011 547.424 704.322 545.449 702.59 541.082L699.337 540.85C699.337 540.85 696.798 537.438 694.5 539.107C694.5 539.107 696.724 548.221 695.371 552.087L694.898 556.371C694.898 556.371 697.595 559.384 697.27 561.841C697.27 561.841 698.781 566.366 694.027 564.697L693.629 561.127C693.629 561.127 692.832 556.927 690.385 555.982L690.45 544.837C690.45 544.837 688.597 543.724 687.438 544.049L687.272 541.351C687.272 541.351 680.785 535.964 658.433 534.767C658.433 534.767 639.455 546.2 596.791 526.478L592.37 526.349C592.37 526.349 587.042 522.594 585.355 527.276C585.355 527.276 584.429 545.903 580.073 551.253C575.718 556.603 566.766 566.088 566.766 566.088C566.766 566.088 561.994 566.857 561.429 572.578C561.429 576.815 570.584 581.433 570.584 581.433C570.584 581.433 588.469 580.237 585.911 585.503C583.354 590.77 568.638 586.069 568.638 586.069C568.638 586.069 556.934 584.511 559.371 579.931C559.371 579.931 549.271 574.442 550.438 568.74C550.438 568.74 562.782 557.929 560.632 548.981L559.937 544.494L552.718 549.334C552.718 549.334 539.503 552.662 532.164 562.314V572.652C532.125 572.995 532.162 573.342 532.272 573.668C532.383 573.995 532.564 574.293 532.803 574.541C533.042 574.789 533.333 574.981 533.655 575.104C533.978 575.226 534.323 575.275 534.666 575.248C537.391 575.248 539.809 575.248 539.809 575.248C539.809 575.248 546.722 578.188 545.369 579.959C544.016 581.73 538.16 581.943 538.16 581.943C538.16 581.943 529.653 582.768 528.958 578.188C528.263 573.607 525.121 564.883 525.121 564.883C525.121 564.883 524.083 555.027 525.121 551.902C525.121 551.902 543.127 544.484 544.137 534.944C544.992 528.234 546.494 521.624 548.622 515.204C548.622 515.204 550.837 510.865 552.625 509.075V501.519C552.625 501.519 539.781 488.538 515.697 483.327C515.697 483.327 503.863 477.161 501 470.504L504.836 471.283C504.836 471.283 509.405 478.58 526.28 481.482C543.155 484.384 558.565 494.796 558.565 494.796C558.565 494.796 586.838 476.985 629.984 483.726C629.984 483.726 636.99 484.876 640.595 482.474C640.595 482.474 651.567 479.785 657.229 480.991C657.229 480.991 668.858 476.355 670.48 479.961C672.982 476.308 678.82 469.327 685.483 466.193C685.279 463.912 687.197 460.537 694.008 459.322C702.497 457.802 710.355 462.011 710.355 464.663C711.206 465.057 711.909 465.711 712.364 466.531C712.819 467.351 713.001 468.294 712.885 469.225C712.625 471.951 720.298 475.919 724.218 477.569C725.191 477.82 726.915 479.248 725.404 482.882Z" fill="#542D00"/>
<path id="dog8" d="M729.402 481.574C729.505 483.809 727.542 487.984 718.659 486.437C721.505 488.818 725.868 494.147 720.519 496.51C713.887 499.504 711.999 491.638 704.707 493.14C698.884 494.33 694.689 499.376 693.331 501.757C693.052 502.261 692.736 502.92 692.401 503.744C692.401 503.744 687.536 507.068 687.88 512.663C688.225 518.258 680.765 522.269 680.765 522.269C680.765 522.269 682.523 528.991 700.67 528.798C712.278 530.236 711.99 536.005 711.99 536.005C711.99 536.005 714.911 540.227 722.036 543.981C722.036 543.981 723.31 542.342 726.333 547.333C729.356 552.323 723.012 550.51 723.012 550.51C723.012 550.51 715.701 550.409 709.255 540.996C704.605 538.981 708.669 543.88 708.669 543.88C708.669 543.88 712.967 547.543 712.967 549.741C712.967 549.741 719.478 551.188 721.933 553.77C724.389 556.352 715.422 555.702 715.422 555.702L709.274 555.776C709.274 555.776 702.93 544.457 701.07 544.558C699.21 544.659 698.633 544.356 698.54 542.626C698.447 540.895 667.845 535.611 667.845 535.611C667.845 535.611 664.822 531.582 661.994 532.736C661.994 532.736 651.763 536.674 646.963 536.188C642.164 535.703 631.941 536.289 622.863 532.635C622.863 532.635 604.028 529.952 601.981 526.5C601.981 526.5 583.536 522.745 582.95 528.221C582.364 533.697 575.825 549.649 572.03 552.232C568.357 554.994 564.836 557.946 561.483 561.078C561.483 561.078 544.74 567.414 548.209 572.698C551.679 577.982 552.311 575.39 555.827 581.855C555.827 581.855 568.514 580.601 567.24 587.139L555.148 588L545.186 583C545.186 583 545.772 579.932 546.954 579.639C546.954 579.639 540.117 572.726 537.578 567.158C537.578 567.158 536.406 564.466 540.805 561.865C545.205 559.265 554.069 552.259 552.711 544.769C552.711 544.769 542.554 552.36 534.108 553.706C525.662 555.052 520.249 572.726 520.249 572.726C520.249 572.726 530.295 579.136 528.053 581.279C528.053 581.279 524.1 580.802 523.095 581.855C522.091 582.909 514.882 582.139 514.882 578.879C514.882 575.619 520.147 552.745 520.147 552.745C520.147 552.745 516.054 551.115 529.718 545.254C529.718 545.254 538.089 539.76 538.787 537.754C539.484 535.749 540.256 530.749 543.438 526.033C546.619 521.317 546.749 514.705 546.749 514.705C546.749 514.705 549 510.383 552.609 509.705C556.218 509.028 553.483 501.162 553.483 501.162C547.505 497.048 540.92 493.864 533.959 491.721C523.514 488.744 507.413 489.12 507.413 489.12L496 484.129C496 484.129 517.273 483.653 535.317 487.49C553.362 491.327 560.106 495.557 560.106 495.557C560.106 495.557 574.839 490.567 590.652 487.105C606.465 483.644 617.626 484.99 617.626 484.99L635.299 485.668C635.299 485.668 640.964 482.005 651.493 482.783C651.493 482.783 667.64 476.446 674.254 478.699C676.774 475.091 682.625 468.196 689.322 465.091C689.118 462.839 691.043 459.514 697.88 458.315C706.4 456.822 714.287 460.98 714.287 463.599C715.141 463.985 715.848 464.629 716.305 465.437C716.761 466.246 716.944 467.177 716.827 468.095C716.566 470.787 724.268 474.697 728.202 476.336C729.188 476.584 730.918 477.985 729.402 481.574Z" fill="#542D00"/>
<path id="dog9" d="M729.349 481.798C729.472 484.262 727.292 488.777 717.686 487.138C720.772 489.733 725.509 495.569 719.743 498.211C712.525 501.499 710.477 492.88 702.569 494.52C696.256 495.831 691.699 501.358 690.208 503.953C689.915 504.515 689.566 505.246 689.179 506.145C689.179 506.145 686.518 504.571 685.678 513.808C682.77 517.799 679.598 521.595 676.186 525.171L690.236 530.792C690.236 530.792 700.38 529.967 704.843 536.525C708.044 541.03 711.658 545.232 715.639 549.077C715.639 549.077 721.121 550.464 720.753 555.269C720.753 555.269 714.893 556.291 712.562 554.529C710.232 552.768 702.428 542.351 702.428 542.351L699.257 541.977C699.257 541.977 697.493 537.546 694.332 540.59C694.332 540.59 696.285 547.981 695.171 553.986C694.983 554.955 695.01 555.953 695.25 556.911C695.489 557.868 695.936 558.763 696.558 559.532C698.7 562.211 697.398 565.902 697.398 565.902C697.398 565.902 695.086 568.759 693.397 562.67C691.906 557.312 690.236 557.771 690.236 557.771L689.585 545.949L686.981 544.749L686.518 543.091C686.518 543.091 689.349 538.651 657.266 535.513C657.266 535.513 641.894 548.141 593.986 527.391L589.457 527.073C589.457 527.073 584.154 524.178 583.229 527.4C582.304 530.623 581.521 538.482 581.521 538.482C581.521 538.482 580.719 554.745 564.536 566.586C564.536 566.586 554.882 571.101 559.308 576.028C561.701 578.795 564.508 581.181 567.631 583.101C567.631 583.101 587.57 582.97 582.398 588.235C577.227 593.499 556.336 585.312 556.336 585.312C556.336 585.312 553.976 584.534 555.835 581.565C555.835 581.565 548.135 576.553 546.654 573.846C545.172 571.138 548.598 568.225 548.598 568.225C548.598 568.225 560.176 559.522 556.496 545.433C556.496 545.433 547.23 552.862 538.208 555.082C538.208 555.082 531.603 557.583 528.527 563.092L528.234 575.7L535.604 577.021C535.604 577.021 543.757 580.094 540.898 582.192C538.039 584.291 526.328 583.129 526.328 583.129L520.949 567.11L520.742 553.593C520.742 553.593 541.502 544.89 540.917 533.049C540.332 521.208 549.126 509.574 549.126 509.574L548.843 501.564C544.998 499.251 541.378 496.589 538.029 493.611C533.679 489.508 516.703 484.974 516.703 484.974C516.703 484.974 502.209 482.885 496 470.416L499.963 470.978C499.963 470.978 506.144 479.756 520.459 481.077C534.774 482.398 555.892 495.428 555.892 495.428C555.892 495.428 586.003 476.796 627.674 483.831C627.674 483.831 633.449 484.768 637.62 482.894C641.79 481.021 655.473 481.086 655.473 481.086C655.473 481.086 666.476 477.264 669.373 478.688C672.1 474.735 678.488 467.175 685.744 463.784C685.509 461.311 687.632 457.667 695.03 456.346C704.296 454.707 712.864 459.269 712.864 462.135C713.792 462.558 714.558 463.265 715.052 464.151C715.546 465.038 715.742 466.058 715.61 467.063C715.337 470.014 723.735 474.304 727.972 476.084C729.123 476.327 731.001 477.864 729.349 481.798Z" fill="#542D00"/>
<path id="dog10" d="M730.366 483.147C730.479 485.551 728.363 489.967 718.999 488.373C722.007 490.908 726.615 496.631 721.001 499.201C714.006 502.406 711.969 493.974 704.275 495.586C698.154 496.875 693.686 502.267 692.235 504.81C691.949 505.356 691.617 506.071 691.238 506.953C691.238 506.953 688.291 507.066 688.177 510.76C688.064 514.453 680.649 521.962 680.649 521.962C680.649 521.962 674.94 526.465 691.238 529.584C707.536 532.702 703.934 530.62 708.725 535.124C713.517 539.627 719.655 545.002 719.655 545.002C721.044 545.335 722.314 546.045 723.324 547.051C724.335 548.058 725.047 549.323 725.382 550.707C726.571 555.55 713.919 550.15 713.919 550.15C713.919 550.15 704.825 538.669 705.009 543.015C705.009 543.015 710.43 549.784 711.549 551.639C711.549 551.639 720.835 553.259 719.838 556.979C718.842 560.698 706.723 556.108 706.723 556.108C706.723 556.108 701.477 545.062 698.18 546.43C694.884 547.798 696.816 544.627 696.816 544.627C693.254 542.066 688.968 540.697 684.575 540.716C684.575 540.716 674.17 536.927 668.627 537.179C663.083 537.432 664.64 535.132 664.64 535.132C664.64 535.132 663.074 532.589 657.784 535.568C654.691 537.342 651.109 538.08 647.563 537.676C647.563 537.676 616.96 537.179 601.799 528.277C601.799 528.277 585.894 525.063 582.755 528.756C579.616 532.449 576.424 546.369 576.424 546.369C576.424 546.369 573.058 554.496 561.053 562.623C561.053 562.623 545.909 567.85 547.824 573.843C547.824 573.843 552.746 578.904 555.064 583.52C555.064 583.52 558.447 585.498 564.437 583.808C564.437 583.808 568.625 588.163 565.399 589.6C562.172 591.038 550.823 588.137 550.823 588.137C550.823 588.137 544.038 585.323 545.061 583.355C546.084 581.386 547.378 581.665 544.379 578.625C541.38 575.585 537.148 566.97 537.148 566.97C537.148 566.97 553.367 558.39 552.633 545.576C552.633 545.576 540.086 553.041 534.769 554.67C534.769 554.67 528.334 558.102 525.449 561.543C522.563 564.984 520.08 575.332 520.08 575.332C520.08 575.332 528.448 580.454 527.949 582.597C527.451 584.74 516.364 582.989 516.364 582.989C516.364 582.989 513.898 570.419 520.29 554.601C520.29 554.601 519.127 552.667 521.164 551.813C523.202 550.96 537.034 540.385 537.034 540.385C537.034 540.385 538.879 539.88 539.071 535.55C539.141 534.269 539.495 533.019 540.109 531.89C540.723 530.762 541.581 529.784 542.621 529.026C542.621 529.026 547.142 515.411 550.01 513.251C550.844 512.629 551.543 511.845 552.066 510.947C552.589 510.049 552.924 509.055 553.053 508.025C553.053 508.025 552.825 504.715 553.796 503.983C554.766 503.251 542.849 497.014 542.849 497.014C542.849 497.014 531.963 490.995 521.942 492.145C511.922 493.295 496 485.795 496 485.795C496 485.795 521.82 487.537 527.844 487.197C527.844 487.197 536.247 489.236 540.68 489.236C545.113 489.236 560.852 497.075 560.852 497.075C560.852 497.075 596.238 481.466 633.844 487.494C633.844 487.494 643.384 482.894 649.067 484.218C654.75 485.542 667.84 477.006 671.949 480.168C674.572 476.309 680.833 468.922 687.898 465.604C687.67 463.191 689.708 459.628 696.939 458.339C705.971 456.736 714.312 461.187 714.312 463.992C715.214 464.408 715.959 465.099 716.44 465.965C716.922 466.831 717.113 467.827 716.988 468.809C716.717 471.692 724.857 475.891 729.028 477.633C730.147 477.772 731.975 479.279 730.366 483.147Z" fill="#542D00"/>
<path id="dog11" d="M729.359 486.877C729.479 489.334 727.34 493.857 717.917 492.222C720.941 494.819 725.597 500.678 719.936 503.313C712.855 506.603 710.835 497.969 703.09 499.576C696.884 500.893 692.412 506.425 690.956 509.032C690.67 509.584 690.329 510.322 689.951 511.219C689.951 511.219 681.173 515.891 678.674 526.17C676.175 536.448 699.3 535.271 699.3 535.271C699.3 535.271 703.828 535.682 710.531 543.419C710.531 543.419 728.696 550.213 722.269 555.688L725.902 556.539C725.902 556.539 729.996 560.79 720.314 560.407C714.531 560.179 709.044 557.754 704.943 553.614C704.943 553.614 699.014 555.595 700.259 552.1C700.259 552.1 694.054 547.194 676.359 543.419C676.359 543.419 662.197 544.354 662.39 535.822C662.39 535.822 661.92 532.187 654.94 537.944C647.96 543.7 617.873 536.813 617.873 536.813C617.873 536.813 606.135 530.87 577.302 533.225L570.968 541.438C570.968 541.438 564.357 554.932 558.4 557.483C553.602 562.255 547.613 565.615 541.075 567.201L534.463 574.471C534.463 574.471 533.255 587.216 543.407 588.721L544.993 590.328C544.993 590.328 553.089 591.459 546.948 595H534.417V591.786C534.417 591.786 527.105 584.048 527.299 564.229C527.299 564.229 541.36 559.323 543.131 550.166L540.706 549.979C537.304 553.91 532.832 556.735 527.852 558.099C527.852 558.099 515.745 566.687 512.297 572.817C512.297 572.817 508.858 577.255 508.019 579.358L507.456 583.516C507.456 583.516 512.989 586.441 502.615 587.665L500.836 576.442C500.836 576.442 503.261 572.704 506.608 572.293C506.608 572.293 509.374 564.556 517.599 555.586L517.507 553.165C517.507 553.165 530.084 549.83 535.856 538.317C535.856 538.317 536.971 529.534 546.92 515.377L550.267 512.172L550.36 506.229C550.36 506.229 541.517 496.221 516.926 499.146C516.926 499.146 505.197 502.884 497 501.51C497 501.51 527.428 486.12 554.739 499.239C554.739 499.239 560.327 502.164 565.73 498.772C571.134 495.38 595.439 490.745 595.439 490.745C595.439 490.745 615.457 489.241 628.126 491.128L639.855 487.727H651.962C651.962 487.727 662.27 482.121 670.523 483.774C673.206 479.812 679.476 472.244 686.594 468.824C686.364 466.347 688.438 462.694 695.704 461.348C704.796 459.704 713.223 464.264 713.223 467.142C714.133 467.566 714.884 468.273 715.369 469.161C715.853 470.048 716.045 471.07 715.916 472.075C715.648 475.028 723.882 479.327 728.05 481.111C729.138 481.392 730.982 482.934 729.359 486.877Z" fill="#542D00"/>
<path id="dog12" d="M732.397 486.262C732.504 488.571 730.482 492.806 721.543 491.264C724.413 493.707 728.824 499.19 723.45 501.65C716.74 504.735 714.833 496.649 707.481 498.191C701.599 499.421 697.357 504.601 695.976 507.035C695.7 507.561 695.379 508.248 695.014 509.086L690.772 515.835C690.772 515.835 679.24 519.214 684.623 526.454C690.005 533.693 703.417 534.13 703.417 534.13C703.417 534.13 709.771 534.932 713.3 539.167C716.829 543.402 730.419 548.975 730.419 548.975C730.419 548.975 729.626 558.158 716.838 549.331L711.01 543.768L708.8 544.998C708.8 544.998 700.601 539.791 704.041 545.087C706.581 548.704 709.68 551.894 713.22 554.538C713.22 554.538 717.542 557.542 721.597 557.213C721.597 557.213 726.801 561.67 726.801 563.124H717.89L708.604 556.294C708.604 556.294 703.836 556.999 702.428 553.022C702.428 553.022 688.481 545.346 685.042 541.815C685.042 541.815 667.477 542.965 667.744 535.637L665.187 530.163C665.187 530.163 646.383 540.861 628.124 532.944C609.864 525.027 577.604 527.622 577.604 527.622C573.722 532.65 569.232 537.178 564.237 541.102L557.108 550.16C557.108 550.16 550.62 553.361 547.412 556.49C544.204 559.62 535.72 562.58 535.72 562.58L530.275 567.038C530.275 567.038 517.3 586.75 531.719 588.997C531.719 588.997 533.635 591.725 529.794 592.608C525.953 593.49 519.991 592.608 519.991 592.608C519.991 592.608 519.278 588.836 517.754 588.917C517.212 585.848 517.781 582.687 519.358 580.001C519.358 580.001 524.081 564.461 523.761 559.094C523.761 559.094 533.768 553.477 535.052 550.437C536.335 547.396 522.638 557.088 522.638 557.088C522.638 557.088 513.263 560.609 511.668 564.782C510.073 568.955 501.865 573.591 501.865 573.591C501.865 573.591 492.339 575.677 494.255 568.946C496.171 562.214 504.271 564.22 504.271 564.22L517.487 549.634C517.487 549.634 532.94 543.063 537.03 533.684C537.29 528.281 539.646 523.192 543.598 519.499C545.546 513.792 549.619 509.057 554.969 506.278L554.247 504.441L553.926 502.114C553.926 502.114 546.877 500.75 545.906 498.352L518.28 497.549C518.28 497.549 507.702 500.991 502.177 507.481C502.177 507.481 497.213 502.756 517.157 493.698C537.101 484.639 565.28 496.426 565.28 496.426C565.28 496.426 592.727 482.25 624.39 488.09C624.39 488.09 631.278 489.525 639.789 485.121C648.299 480.716 659.02 483.587 659.02 483.587C659.02 483.587 670.935 478.933 676.558 483.266C679.098 479.566 685.042 472.478 691.788 469.295C691.574 466.977 693.57 463.554 700.432 462.323C709.058 460.79 717.025 465.061 717.025 467.753C717.888 468.15 718.601 468.812 719.061 469.643C719.521 470.473 719.704 471.429 719.583 472.371C719.324 475.135 727.14 479.165 731.087 480.832C732.184 481.127 733.93 482.571 732.397 486.262Z" fill="#542D00"/>
<path id="dog13" d="M731.843 552.706C727.297 558.946 711.567 543.673 711.567 543.673C711.567 543.673 708.922 543.51 708.541 544.533C708.541 544.533 703.407 538.895 692.12 539.806L701.342 551.039L701.878 554.64C701.878 554.64 709.181 559.1 709.994 561.309C709.994 561.309 718.697 560.123 720.694 562.701C722.69 565.28 717.764 568.322 717.764 568.322C714.444 567.138 710.904 566.689 707.392 567.007C707.392 567.007 682.327 544.808 676.467 537.786L669.492 537.52C669.492 537.52 667.331 534.512 667.711 532.036C668.092 529.561 663.494 524.353 663.494 524.353C663.494 524.353 654.142 529.776 648.031 529.836C641.921 529.896 623.831 530.214 610.002 523.545C596.173 516.876 573.701 518.062 573.701 518.062C573.701 518.062 560.788 529.295 553.165 536.609C545.541 543.923 532.024 552.732 532.024 552.732C532.024 552.732 507.373 566.311 506.181 584.394C506.181 584.394 507.909 590.41 502.239 588.691C496.57 586.972 499.698 577.235 499.698 577.235L502.456 575.249C502.456 575.249 510.079 560.14 515.481 554.932L515.429 552.242L518.186 551.546C518.186 551.546 532.879 541.112 522.888 542.779C512.896 544.447 505.602 555.671 505.602 555.671C505.389 556.51 504.965 557.281 504.369 557.911C503.773 558.542 503.025 559.01 502.196 559.272C499.223 560.347 498.575 567.446 498.575 567.446C498.575 567.446 494.513 569.921 493 565.778C493 565.778 494.729 560.243 493.925 558.791C493.121 557.338 497.978 555.568 497.978 555.568C497.978 555.568 504.409 547.61 508.73 541.911C508.73 541.911 516.302 533.317 521.496 533.317C526.691 533.317 534.521 522.032 534.521 522.032C534.521 522.032 538.143 512.578 539.387 507.568C539.387 507.568 543.389 499.455 548.791 498.862C548.791 498.862 549.552 494.504 547.175 493.705C544.798 492.906 531.928 494.35 531.928 494.35C527.674 494.514 523.425 493.911 519.387 492.57C512.196 490.319 496.682 498.217 496.682 498.217C496.682 498.217 490.571 499.773 496.95 495.424C503.328 491.075 515.005 487.947 518.679 488.058C522.352 488.17 525.438 489.554 532.577 488.058C539.716 486.563 557.063 488.058 557.063 488.058C557.063 488.058 589.042 475.957 618.187 481.372C618.187 481.372 626.57 482.455 630.659 483.091C634.176 483.632 664.22 482.429 672.474 482.085C675.196 478.329 680.728 472.047 686.951 469.133C686.744 466.873 688.68 463.521 695.456 462.318C703.935 460.814 711.783 464.991 711.783 467.629C712.63 468.018 713.33 468.665 713.782 469.476C714.234 470.288 714.415 471.221 714.298 472.141C714.047 474.849 721.731 478.785 725.612 480.418C726.657 480.667 728.377 482.077 726.865 485.686C726.977 487.938 724.981 492.081 716.182 490.577C719.017 492.957 723.356 498.312 718.066 500.735C711.463 503.743 709.587 495.845 702.353 497.349C696.571 498.552 692.396 503.614 691.031 506.004C690.763 506.511 690.443 507.181 690.088 508.006C690.088 508.006 676.095 519.652 685.706 527.189C685.706 527.189 694.056 532.552 700.763 532.767C707.47 532.982 717.185 540.347 717.185 540.347L726.104 545.985C726.104 545.985 736.381 546.466 731.843 552.706Z" fill="#542D00"/>
<path id="dog14" d="M740 566.163C740 566.163 734.68 571.408 725.524 568.464L714.683 558.258C712.237 557.952 709.904 557.049 707.889 555.626C704.383 553.215 689.696 551.344 689.696 551.344L679.945 549.263C682.515 557.567 686.085 565.527 690.575 572.967C690.575 572.967 695.501 575.049 695.501 578.561L701.425 579.221C701.425 579.221 710.957 579.221 706.681 584.163C702.405 589.106 683.342 576.919 683.342 576.919C683.342 576.919 675.202 564.521 671.933 556.947C668.665 549.373 660.333 534.554 660.333 534.554C660.333 534.554 640.821 546.301 606.641 530.611C572.461 514.921 564.23 526.769 564.23 526.769C564.23 526.769 552.071 538.066 543.409 547.612C539.132 549.307 535.308 551.976 532.238 555.406C527.523 560.908 515.474 558.698 505.063 572.197C505.063 572.197 499.798 579.771 499.469 584.604L497.061 587.786C497.061 587.786 494.652 600.293 489.388 592.371C484.123 584.448 493.966 579.863 493.966 579.863C493.911 579.172 493.695 578.504 493.333 577.912C492.972 577.321 492.477 576.824 491.887 576.461L491.778 566.144C491.778 566.144 499.441 559.45 501.639 551.106C501.639 551.106 506.894 545.512 507.663 541.89C508.432 538.268 514.018 539.038 514.018 539.038C514.018 539.038 525.005 537.938 528.155 529.162C531.304 520.386 532.861 517.644 532.861 517.644V509.391C532.861 509.391 539.655 501.597 542.832 500.937C542.408 500.404 542.126 499.772 542.012 499.1C541.898 498.428 541.957 497.738 542.182 497.094H531.918C531.918 497.094 527.532 503.358 513.175 499.515C513.175 499.515 488.527 499.845 486 498.195C486 498.195 495.211 494.133 520.409 494.353C520.409 494.353 527.203 495.27 530.27 491.391C533.337 487.512 553.279 490.18 553.279 490.18C553.279 490.18 565.997 480.194 619.469 485.247C626.177 486.46 633.089 485.813 639.457 483.376C647.496 480.112 667.841 483.468 675.431 484.889C678.764 480.992 683.507 476.453 688.68 474.004C688.451 471.464 690.584 467.714 698.156 466.357C707.606 464.669 716.341 469.355 716.341 472.317C717.286 472.758 718.066 473.491 718.566 474.409C719.065 475.327 719.257 476.38 719.115 477.416C718.831 480.451 727.355 484.871 731.723 486.705C732.886 486.98 734.799 488.539 733.115 492.61C733.234 495.141 731.018 499.79 721.212 498.112C724.361 500.79 729.196 506.805 723.318 509.511C715.993 512.885 713.859 504.009 705.802 505.705C702.279 506.571 699.08 508.437 696.591 511.079L692.928 518.094C692.928 518.094 680.256 530.932 685.732 536.104C691.207 541.275 709.071 547.19 709.071 547.19C709.071 547.19 716.396 548.942 725.945 559.258C725.973 559.249 739.451 557.497 740 566.163Z" fill="#542D00"/>
<path id="dog15" d="M744.31 489.663C744.434 492.297 742.119 497.137 731.925 495.39C735.202 498.177 740.233 504.439 734.106 507.255C726.485 510.778 724.274 501.528 715.89 503.294C709.221 504.707 704.343 510.625 702.771 513.403C702.456 514.004 702.085 514.787 701.675 515.751C701.218 515.56 689.061 510.577 685.726 536.551C685.726 536.551 692.109 547.252 709.221 553.648C709.221 553.648 716.662 556.836 723.359 566.105C723.359 566.105 732.715 569.837 734.945 572.606C734.945 572.606 743.52 573.026 734.945 578.457C726.37 583.889 719.11 570.152 719.11 570.152L714.108 566.105C714.108 566.105 710.393 566.85 708.801 563.547C707.21 560.244 674.884 550.345 674.884 550.345C674.884 550.345 670.425 549.066 670.32 544.808C670.32 544.808 664.604 531.387 662.698 537.029V555.671C662.698 555.671 665.042 569.198 668.015 572.711C668.015 572.711 667.167 576.968 672.159 577.178C677.151 577.388 673.54 583.144 673.54 583.144C673.54 583.144 661.317 586.237 656.848 579.202L654.943 562.888C654.943 562.888 647.588 551.338 645.835 539.663L628.247 539.1C628.247 539.1 595.291 527.34 573.264 518.176C573.264 518.176 566.871 515.159 558.277 526.519C553.535 532.899 548.16 538.78 542.233 544.073C542.233 544.073 523.864 554.574 511.526 557.266C511.526 557.266 507.134 559.461 503.199 565.504C503.199 565.504 501.189 572.472 501.465 574.849L498.912 575.67C498.912 575.67 497.168 578.973 498.912 586.571C500.655 594.17 497.444 595 497.444 595C497.444 595 489.946 593.091 488.67 583.278L491.318 580.347C491.318 580.347 497.035 554.889 500.731 547.099C500.731 547.099 502.199 537.487 505.4 537.391C508.601 537.296 522.311 536.389 523.588 527.846C524.864 519.302 525.045 501.843 530.171 500.01C535.297 498.177 534.83 489.29 534.83 489.29C534.83 489.29 525.303 488.842 520.301 493.51H504.485C499.689 494.137 494.829 494.105 490.042 493.414C483.372 492.269 481.171 493.319 481 493.414C481.21 493.261 488.317 488.202 517.919 488.021C517.919 488.021 521.663 479.143 541.414 481.701C541.414 481.701 542.871 483.172 547.807 481.701C552.742 480.231 580.352 477.129 580.352 477.129C580.352 477.129 605.39 477.673 621.749 481.797C638.108 485.921 645.701 479.783 645.701 479.783C645.701 479.783 651.094 479.325 655.114 481.616C655.114 481.616 675.675 483.477 683.821 482.169C687.298 477.998 692.395 472.977 698.045 470.323C697.797 467.679 700.027 463.775 707.896 462.371C717.738 460.615 726.827 465.493 726.827 468.567C727.812 469.02 728.626 469.777 729.15 470.726C729.675 471.676 729.883 472.769 729.743 473.845C729.448 477.005 738.318 481.596 742.862 483.506C744.063 483.811 746.063 485.453 744.31 489.663Z" fill="#542D00"/>
<path id="dog16" d="M726.643 583.95C726.643 583.95 715.447 581.097 709.873 574.613L704.926 574.826C704.926 574.826 701.537 567.367 697.852 566.858C694.166 566.35 677.058 550.275 673.232 550.136C673.232 550.136 669.407 547.48 670.124 544.898C670.124 544.898 665.87 530.749 658.499 534.2C654.475 536.176 650.161 537.507 645.719 538.143C645.719 538.143 641.531 568.154 650.666 572.105C650.666 572.105 654.632 574.113 654.995 576.203C654.995 576.203 664.814 575.482 661.277 581.589C661.277 581.589 648.86 583.958 642.718 579.433C642.718 579.433 639.832 573.4 637.309 572.875C637.309 572.875 636.798 560.956 634.704 555.571C632.61 550.185 631.966 537.126 631.966 537.126C631.966 537.126 625.032 538.274 606.836 527.003C588.639 515.731 572.034 513.936 572.034 513.936C572.034 513.936 567.631 513.575 557.885 533.462C553.764 538.398 548.656 542.429 542.885 545.299C537.114 548.17 530.806 549.816 524.361 550.136C524.361 550.136 515.985 552.792 518.59 564.202C521.195 575.613 517.007 574.187 517.007 574.187C517.007 574.187 519.678 586.671 517.007 587.893C514.336 589.114 508.127 579.499 508.127 579.499C508.127 579.499 504.879 575.974 509.207 573.031L508.696 544.389L510.823 542.57L511.541 535.192C511.541 535.192 531.328 529.454 531.328 525.716C531.328 521.978 530.314 506.337 530.314 506.337C530.314 506.337 530.529 497.861 535.946 494.344C539.846 488.246 536.77 483.647 536.77 483.647C532.38 482.59 527.763 482.996 523.628 484.803C516.553 487.811 519.076 479.704 492 485.622C492 485.622 501.82 476.286 518.211 479.237C518.211 479.237 522.762 480.811 528.105 476.646C533.447 472.482 547.167 478.728 547.167 478.728C547.167 478.728 582.084 466.867 612.459 477.499C612.459 477.499 635.273 481.901 643.485 479.442C651.697 476.982 660.692 481.384 660.692 481.384C660.692 481.384 674.783 480.761 681.642 484.663C684.182 482.172 687.101 480.094 690.291 478.507C690.069 476.122 692.089 472.605 699.245 471.334C708.183 469.752 716.436 474.146 716.436 476.917C717.331 477.326 718.071 478.009 718.549 478.866C719.026 479.722 719.216 480.708 719.091 481.68C718.819 484.524 726.915 488.672 731.005 490.385C732.101 490.647 733.915 492.131 732.324 495.935C732.44 498.304 730.345 502.665 721.078 501.083C724.054 503.591 728.622 509.239 723.057 511.739C716.106 514.912 714.127 506.583 706.509 508.165C700.416 509.436 696.022 514.772 694.595 517.281C694.307 517.822 693.969 518.527 693.598 519.396C693.598 519.396 687.826 524.626 687.678 542.93C687.678 542.93 697.712 556.71 704.786 560.522C704.786 560.522 709.477 563.891 710.129 567.268C710.129 567.268 718.217 571.211 718.868 572.793H718.217C718.217 572.793 719.52 574.375 718.868 572.793C721.762 572.793 733.322 573.105 733.957 576.236C734.657 579.851 726.643 583.95 726.643 583.95Z" fill="#542D00"/>
<path id="dog17 " d="M736.245 501.205C736.38 504.082 733.859 509.366 722.702 507.459C726.286 510.492 731.776 517.34 725.088 520.415C716.754 524.25 714.327 514.161 705.159 516.089C697.867 517.632 693.909 525.47 690.815 527.127C688.481 528.347 675.96 533.558 675.189 534.705V534.757V542.376C675.189 542.376 671.157 549.672 673.834 555.676C676.512 561.68 684.762 580.42 684.762 580.42C684.762 580.42 697.951 592.49 709.764 589.082C709.764 589.082 716.868 594.033 711.618 595.273C706.368 596.513 697.596 594.658 697.596 594.658C697.596 594.658 695.513 591.531 688.221 591.771L657.927 560.418V552.893C657.927 552.893 652.875 548.724 652.666 545.982L639.061 548.974L625.873 549.902C625.873 549.902 622.06 556.093 621.852 566.505C621.852 566.505 623.29 574.844 621.331 577.742C619.373 580.639 626.54 584.444 626.54 584.444C626.54 584.444 629.425 591.458 618.602 586.195L613.039 575.375V545.472C613.039 545.472 572.807 518.236 565.692 522.875C565.692 522.875 558.629 553.195 536.013 557.938C536.013 557.938 523.898 562.576 522.471 565.87C521.044 569.163 524.554 588.456 524.554 588.456C524.554 588.456 533.482 589.28 532.461 596.503C531.44 603.726 518.648 593.095 518.335 591.959C518.023 590.822 518.335 584.433 518.335 584.433L510.199 558.375C510.199 558.375 513.804 555.249 511.741 553.32C511.741 553.32 508.96 544.763 516.689 544.461C524.419 544.158 533.076 536.518 531.628 532.078C530.18 527.638 528.44 520.613 528.44 520.613L526.065 517.006C526.065 517.006 523.596 512.983 530.805 502.362L531.013 491.741C531.013 491.741 522.356 486.894 517.304 488.958C517.304 488.958 505.355 476.065 490 471.426C490 471.426 504.011 469.06 516.689 482.36C516.689 482.36 532.253 482.152 537.92 486.998C543.587 491.845 545.962 479.702 574.089 479.786C602.215 479.869 610.268 486.039 610.268 486.039C610.268 486.039 635.697 491.324 646.114 488.947C646.114 488.947 651.323 487.905 653.114 491.939C658.856 491.58 664.62 491.853 670.303 492.752C674.116 488.26 679.616 482.933 685.627 480.098C685.366 477.211 687.794 472.948 696.409 471.405C707.159 469.488 717.108 474.814 717.108 478.17C718.182 478.668 719.07 479.494 719.643 480.531C720.217 481.567 720.445 482.759 720.296 483.934C719.973 487.384 729.671 492.408 734.64 494.493C735.984 494.805 738.161 496.608 736.245 501.205Z" fill="#542D00"/>
<path id="dog18" d="M729.272 495.776C729.405 498.592 726.948 503.758 716.091 501.888C719.588 504.86 724.945 511.551 718.415 514.568C710.269 518.319 707.945 508.456 699.024 510.337C691.886 511.84 686.739 518.13 685.057 521.136C684.725 521.77 684.326 522.616 683.895 523.641C683.895 523.641 672.894 530.487 664.206 530.877C655.518 531.266 652.43 553.587 652.43 553.587L655.13 575.14C655.13 575.14 662.601 588.654 682.688 586.773C682.688 586.773 688.101 590.547 687.115 593.653C686.13 596.759 667.47 592.762 667.47 592.762C667.47 592.762 660.952 585.882 656.536 586.884L636.005 555.713C636.005 555.713 639.536 540.718 632.685 543.045C625.834 545.371 610.826 543.49 610.826 543.49C610.826 543.49 602.327 556.259 601.441 566.478C601.441 566.478 597.247 575.696 600.124 583.355C600.124 583.355 611.491 584.803 611.712 590.469C611.933 596.135 595.708 592.35 595.708 592.35C595.708 592.35 592.056 584.558 593.384 581.218C594.712 577.878 587.308 573.425 587.308 573.425C587.308 573.425 594.712 558.43 594.933 548.21C594.933 548.21 598.254 538.102 598.796 537.556C598.796 537.556 588.968 528.561 582.46 527.537C582.46 527.537 569.644 515.647 560.923 515.87L559.274 529.307C559.274 529.307 556.728 543.779 533.431 556.96C533.431 556.96 526.37 564.074 525.595 566.401C525.595 566.401 533.431 576.954 530.564 580.873C530.564 580.873 537.083 591.092 541.831 593.197C541.831 593.197 537.404 602.414 530.121 595.312L527.144 585.426C527.144 585.426 514.118 572.546 513.122 563.161L510.687 561.268L513.675 558.051C513.675 558.051 508.042 550.058 509.248 544.392C509.248 544.392 529.446 536.064 527.465 527.96C526.107 522.9 523.26 518.372 519.297 514.968C519.297 514.968 516.088 504.415 521.278 496.644C526.469 488.874 520.946 484.532 520.946 484.532C520.946 484.532 495.225 478.966 497.649 445.112L496 439L500.084 442.774C500.084 442.774 502.508 464.66 510.244 470.872C517.98 477.084 532.545 479.778 532.545 479.778C532.545 479.778 559.041 461.788 601.43 478.231C601.43 478.231 638.086 478.454 647.139 485.334L667.227 485.178C670.846 481.079 675.183 477.683 680.021 475.158C679.767 472.331 682.135 468.156 690.513 466.653C700.983 464.772 710.656 469.993 710.656 473.277C711.703 473.761 712.569 474.568 713.129 475.581C713.688 476.594 713.911 477.76 713.766 478.91C713.456 482.25 722.941 487.204 727.734 489.241C729.017 489.519 731.12 491.278 729.272 495.776Z" fill="#542D00"/>
<path id="dog19" d="M729.271 493.625C729.402 496.395 726.96 501.474 716.154 499.647C719.625 502.578 724.952 509.162 718.464 512.123C710.392 515.826 708.051 506.101 699.172 507.968C692.109 509.443 680.898 517.191 679.234 520.122C678.901 520.754 674.37 522.621 673.936 523.635C673.936 523.635 665.955 531.524 656.056 534.124C646.158 536.723 634.019 556.566 634.019 556.566C633.745 560.697 634.12 564.845 635.129 568.861C635.129 568.861 631.406 588.402 647.409 592.176C647.409 592.176 653.039 594.465 646.622 598.72C640.205 602.976 627.451 592.498 627.451 592.498C627.451 592.498 629.741 587.931 629.469 585.803C629.196 583.675 616.997 557.931 616.997 557.931C616.997 557.931 615.817 551.909 616.997 550.684C618.178 549.46 602.659 547.613 602.659 547.613C602.659 547.613 599.178 553.444 596.091 556.204C593.003 558.965 586.343 575.997 586.343 575.997L582.933 579.309L579.613 587.82C579.613 587.82 581.278 591.052 583.73 591.674C586.182 592.297 586.182 597.697 578.423 598.459C570.663 599.222 574.387 592.307 574.387 592.307L577.313 578.004C577.313 578.004 575.567 573.518 578.503 569.814C581.44 566.111 591.015 540.025 591.015 540.025C591.015 540.025 559.009 511.762 559.968 524.338C560.926 536.914 559.968 535.84 559.968 535.84C559.968 535.84 554.761 553.414 542.159 564.445C534.873 572.956 539.071 577.442 539.071 577.442C539.071 577.442 546.134 579.731 543.107 584.067L539.545 585.07C539.545 585.07 546.437 589.798 547.547 592.789C548.657 595.78 556.628 595.077 556.628 595.077C556.628 595.077 562.803 602.173 555.518 604.853C548.233 607.533 522.321 572.735 522.321 572.735L524.46 569.664C524.46 569.664 512.352 559.818 513.22 554.067C513.22 554.067 527.79 545.395 530.01 535.94C530.01 535.94 524.46 523.956 521.534 524.037C518.608 524.117 514.32 517.733 515.985 511.27C517.649 504.806 516.146 490.554 516.146 490.554C516.146 490.554 483.081 472.909 503.856 439.748C503.856 439.748 505.531 430.975 506.883 432.099C508.235 433.224 506.964 440.249 506.964 440.249C506.964 440.249 497.419 462.009 506.359 472.999C507.321 473.079 508.235 473.452 508.976 474.069C509.716 474.685 510.247 475.514 510.496 476.442C510.496 476.442 517.932 484.211 524.248 484.732C530.565 485.254 530.414 482.946 530.414 482.946C530.414 482.946 557.334 465.131 594.668 480.758C594.668 480.758 634.282 481.34 644.11 487.302C644.11 487.302 656.803 486.991 665.037 485.917C668.73 481.501 674.219 476.121 680.243 473.301C679.98 470.52 682.341 466.405 690.686 464.93C701.119 463.083 710.705 468.212 710.705 471.444C711.747 471.92 712.609 472.716 713.165 473.715C713.72 474.713 713.94 475.862 713.792 476.994C713.48 480.316 722.874 485.154 727.687 487.151C729.008 487.462 731.127 489.189 729.271 493.625Z" fill="#542D00"/>
<path id="dog20" d="M732.224 492.962C732.361 495.867 729.828 501.193 718.565 499.277C722.19 502.351 727.727 509.255 720.971 512.36C712.565 516.244 710.128 506.045 700.892 508.003C693.537 509.55 688.147 516.076 686.413 519.149C686.067 519.802 685.667 520.676 685.205 521.728C685.205 521.728 679.142 525.402 674.498 525.402C669.854 525.402 656.038 543.179 656.038 543.179C656.038 543.179 647.874 547.011 644.627 553.41C641.38 559.81 639.857 586.608 639.857 586.608C639.857 586.608 641.643 589.945 641.643 591.734C641.643 591.734 646.256 592.671 647.18 595.229C647.18 595.229 664.223 592.839 663.109 601.376C661.995 609.912 641.391 600.692 641.391 600.692C641.391 600.692 638.291 593.187 631.745 594.545L631.01 580.977L628.183 554.61L625.115 546.59C625.115 546.59 623.172 544.2 612.938 566.81C612.938 566.81 613.358 574.177 608.084 576.114C602.809 578.051 591.209 587.892 591.209 587.892C591.209 587.892 587.007 594.376 582.52 588.745C578.034 583.114 588.404 579.188 588.404 579.188C588.404 579.188 601.779 572.535 603.114 565.504C604.448 558.473 610.09 541.18 610.09 541.18C610.09 541.18 597.829 528.296 586.67 522.749L582.468 522.833L583.581 526.675C583.581 526.675 586.092 552.695 573.358 569.767C573.358 569.767 569.491 591.018 600.571 598.607L597.934 603.818L587.427 603.902L557.356 576.167C557.356 576.167 565.026 572.841 562.977 554.41C562.977 554.41 555.223 559.105 561.107 565.157C561.107 565.157 562.389 571.051 558.123 572.757L545.609 561.178V557.421C545.609 557.421 558.291 545.306 555.906 536.18C555.906 536.18 537.844 525.086 537.077 518.592C536.608 514.824 536.608 511.013 537.077 507.245C537.077 507.245 536.667 500.414 534.534 497.519V492.751C534.534 492.751 495.427 467.626 534.02 430.492C534.02 430.492 538.222 427.155 533.789 437.86C533.789 437.86 520.424 450.554 523.366 467.111C523.366 467.111 525.866 473.794 528.346 474.363C531.572 479.613 536.345 483.732 542.005 486.152C542.005 486.152 576.3 462.458 614.419 479.92C614.419 479.92 652.686 479.468 658.78 485.815L663.771 486.773C667.553 481.91 673.963 475.089 681.076 471.731C680.813 468.816 683.251 464.5 691.94 462.953C702.783 461.016 712.807 466.395 712.807 469.784C713.894 470.283 714.795 471.117 715.377 472.164C715.959 473.21 716.192 474.416 716.043 475.605C715.707 479.089 725.499 484.162 730.501 486.257C731.951 486.499 734.199 488.309 732.224 492.962Z" fill="#542D00"/>
<path id="dog21" d="M730.348 482.711C730.464 485.192 728.289 489.755 718.675 488.098C721.767 490.724 726.502 496.634 720.733 499.289C713.525 502.612 711.466 493.902 703.562 495.559C697.243 496.886 692.682 502.467 691.203 505.092C690.904 505.654 690.556 506.391 690.169 507.301L675.781 513.599C675.781 513.599 670.38 519.112 669.771 522.174C669.162 525.235 652.716 534.769 652.716 534.769C652.716 534.769 640.154 541.784 638.096 553.178L634.743 558.09C634.743 558.09 633.873 570.908 630.52 578.165C630.52 578.165 634.492 583.01 634.724 585.974C634.724 585.974 647.131 587.098 645.208 590.732C643.285 594.365 632.192 592.543 632.192 592.543C632.192 592.543 622.606 577.584 622.046 567.052C622.046 567.052 607.02 572.865 603.406 576.227C603.406 576.227 598.768 578.495 598.768 568.525C598.768 568.525 608.827 570.56 620.461 557.983V534.992C620.461 534.992 606.933 518.104 594.478 517.998C594.478 517.998 599.676 542.917 594.478 562.402C594.478 562.402 590.178 579.289 615.156 583.475C615.156 583.475 624.897 578.63 626.491 585.616C628.085 592.602 616.606 591.071 616.606 591.071C616.606 591.071 607.813 591.623 604.247 586.391C600.681 581.159 587.163 578.068 581.945 567.333L566.61 555.493L573.925 537.589L561.228 525.303C561.228 525.303 548.482 518.918 549.632 504.433C549.632 504.433 548.589 498.155 546.444 497.157L546.666 491.16C546.666 491.16 503.376 457.462 552.328 432C552.328 432 555.179 433.153 550.193 437.3C545.207 441.447 530.79 455.03 534.075 462.752C537.36 470.474 542.491 481.054 553.468 484.203C553.468 484.203 577.626 459.322 618.364 474.195C618.364 474.195 657.451 475.047 659.731 477.915L670.989 478.681C673.994 474.534 680.004 467.674 686.768 464.477C686.536 461.987 688.633 458.295 696.054 456.968C705.33 455.311 713.892 459.875 713.892 462.781C714.815 463.213 715.578 463.926 716.072 464.819C716.567 465.711 716.768 466.738 716.646 467.752C716.365 470.736 724.762 475.067 729.004 476.869C730.125 477.179 732 478.719 730.348 482.711Z" fill="#542D00"/>
<path id="dog22" d="M730.251 488.578C730.385 491.444 727.892 496.709 716.858 494.809C720.402 497.83 725.831 504.653 719.217 507.716C710.976 511.537 708.576 501.486 699.51 503.407C692.299 504.933 687.034 511.371 685.324 514.403C684.984 515.057 684.583 515.909 684.14 516.947C684.14 516.947 675.362 522.285 670.222 526.397C665.081 530.509 671.963 532.316 664.041 536.625C656.119 540.934 635.762 555.918 635.762 555.918C635.762 555.918 641.882 574.911 637.503 580.975C633.125 587.039 625.759 589.884 625.759 589.884C625.759 589.884 621.288 600.06 613.232 598.191L617.992 585.367C617.992 585.367 626.346 586.842 628.386 580.476C628.386 580.476 624.131 576.323 629.653 575.097C629.653 575.097 630.034 565.305 624.791 571.079C619.547 576.852 610.43 601.608 610.43 601.608C610.43 601.608 609.946 605.761 617.126 605.761C624.307 605.761 627.037 606.343 622.473 611.337C622.473 611.337 621.69 612.511 619.073 612.376C616.457 612.241 619.557 617.267 611.11 613.747C602.662 610.226 606.155 568.919 619.269 555.119C619.269 555.119 624.698 551.599 614.314 551.401C614.314 551.401 605.866 546.5 605.382 542.689C605.382 542.689 597.707 537.497 597.419 535.836C597.13 534.174 590.043 532.804 590.043 532.804C590.043 532.804 582.564 531.236 581.976 532.897C581.389 534.558 583.14 540.83 583.14 540.83C583.843 543.471 584.82 546.029 586.056 548.463C587.9 551.889 586.344 558.057 586.344 558.057C586.344 558.057 588.096 562.657 589.847 564.412C591.598 566.167 590.527 580.269 590.527 580.269L595.472 590.653L599.459 590.165L604.795 592.709C604.795 592.709 604.115 605.824 607.226 611.597L564.494 578.763L566.431 560.851C566.431 560.851 553.327 545.877 545.075 539.615C545.075 539.615 535.556 537.269 535.072 522.877C535.072 522.877 532.744 514.362 530.21 513.531C530.21 513.531 529.241 505.608 530.21 504.331C530.21 504.331 504.455 492.389 507.206 465.775C514.098 444.145 535.021 449.618 535.021 449.618L531.24 452.951C531.24 452.951 514.242 455.692 513.078 470.666C511.914 485.64 538.039 498.069 538.039 498.069C538.039 498.069 560.868 479.222 583.027 480.188C605.186 481.154 611.285 484.404 611.285 484.404L661.517 484.986V484.934C664.607 480.334 671.983 471.528 680.297 467.572C680.04 464.695 682.44 460.448 690.959 458.911C701.591 457.001 711.419 462.307 711.419 465.651C712.484 466.143 713.366 466.966 713.934 467.999C714.503 469.032 714.73 470.221 714.582 471.393C714.262 474.83 723.853 479.835 728.767 481.912C729.993 482.192 732.146 483.999 730.251 488.578Z" fill="#542D00"/>
<path id="dog23" d="M729.164 488.63C729.314 491.787 726.511 497.574 714.166 495.492C718.135 498.832 724.226 506.335 716.808 509.709C707.578 513.929 704.901 502.846 694.749 504.974C686.673 506.655 680.766 513.746 678.862 517.086C678.47 517.795 678.031 518.732 677.535 519.888C677.535 519.888 672.47 523.456 668.571 523.753C668.571 523.753 661.152 547.862 639.728 553.592C639.728 553.592 635.586 550.802 650.111 574.739C648.395 586.693 643.08 597.854 634.859 606.763C634.859 606.763 625.964 605.436 631.594 595.006C631.594 595.006 644.193 586.485 639.74 582.677C635.286 578.868 639.451 579.886 639.451 579.886C639.451 579.886 636.151 565.933 629.725 565.19C629.725 565.19 624.776 570.039 623.449 574.739C623.449 574.739 612.927 584.141 611.45 595.006L591.445 609.691C591.445 609.691 581.223 602.829 590.291 600.004C599.359 597.179 603.478 586.783 603.478 586.783C603.478 586.783 607.182 564.023 613.262 560.477C619.342 556.932 602.74 554.301 602.74 554.301C602.74 554.301 580.369 535.648 576.516 537.146C572.662 538.644 569.409 539.937 569.409 539.937C569.409 539.937 567.482 544.637 569.409 554.622C571.336 564.606 576.666 580.618 576.666 580.618L575.927 595.303C575.927 595.303 580.669 606.9 590.003 613.808C590.003 613.808 619.18 617.182 608.462 625.119L590.833 626C590.833 626 582.238 613.66 560.456 594.571C560.456 594.571 558.149 584.587 559.568 581.053C559.568 581.053 549.796 568.472 546.092 567.843C542.389 567.214 541.639 555.502 526.387 547.256C526.387 547.256 519.465 539.616 520.157 532.72C520.157 532.72 514.088 518.618 515.265 513.62C515.265 513.62 454.533 483.804 499.713 451.06C501.031 450.058 502.582 449.401 504.224 449.15C504.693 449.068 505.167 449.019 505.643 449.001C509.346 448.852 492.456 463.869 492.456 463.869C492.456 463.869 474.977 491.318 523.422 505.58C523.422 505.58 545.469 479.16 594.664 486.617C594.664 486.617 606.086 488.596 615.65 485.84C623.368 483.621 644.493 484.513 652.361 484.936L652.13 484.627C655.592 479.549 663.852 469.851 673.174 465.505C672.874 462.325 675.574 457.647 685.104 455.966C697.022 453.862 708.028 459.706 708.028 463.389C709.22 463.932 710.206 464.839 710.841 465.976C711.476 467.114 711.727 468.424 711.558 469.713C711.201 473.499 722 479 727.445 481.288C728.864 481.608 731.287 483.575 729.164 488.63Z" fill="#542D00"/>
</g>
</svg>
