<svg width="1440" height="1024" viewBox="0 0 1440 1024" fill="none" xmlns="http://www.w3.org/2000/svg">
<g id="preloader">
<rect width="1440" height="1024" fill="white"/>
<rect id="bg container" width="1440" height="1024" fill="white"/>
<path id="dog" d="M755.015 485.472C755.189 489.15 751.955 495.907 737.642 493.468C742.239 497.36 749.295 506.102 740.716 510.033C730.025 514.938 726.912 502.037 715.152 504.503C705.797 506.475 698.969 514.738 696.75 518.616C696.309 519.456 695.788 520.548 695.213 521.894C684.322 523.547 670.518 546.669 666.429 550.88C662.339 555.091 647.72 561.795 647.72 561.795C639.408 562.314 654.829 576.521 654.829 576.521C676.852 597.031 671.32 601.628 671.32 601.628C657.863 612.29 658.785 621.885 658.785 621.885L649.818 632C639.007 625.696 648.775 615.835 648.775 615.835C648.775 615.835 654.121 606.892 657.341 605.053C660.562 603.214 659.84 595.844 645.996 588.088C632.151 580.332 619.897 568.231 619.897 568.231C619.897 568.231 603.153 584.01 604.462 592.566C605.772 601.122 598.689 602.548 598.689 602.548C598.689 602.548 570.853 607.159 566.898 600.189C562.942 593.219 588.907 590.194 588.907 590.194L593.918 584.863C593.531 576.974 598.689 560.275 598.689 560.275C598.689 560.275 591.152 556.277 588.119 551.999C585.085 547.722 568.074 534.675 568.074 534.675L569.931 573.735C569.931 573.735 560.964 586.356 563.998 588.848C567.031 591.34 564.252 602.175 564.252 602.175C593.264 620.979 604.075 610.171 608.819 620.579C613.563 630.987 589.308 625.19 589.308 625.19L588.252 621.432C578.878 618.869 570.036 614.664 562.14 609.011C562.14 609.011 562.942 608.225 552.919 608.092C542.897 607.959 550.808 598.883 550.808 598.883L549.351 580.612C537.324 580.345 533.128 614.729 548.697 615.581C564.265 616.434 555.953 623.577 555.953 623.577C534.972 620.552 525.899 609.091 522.224 602.001C521.442 600.473 521.061 598.771 521.117 597.056C521.173 595.341 521.664 593.668 522.544 592.193C530.135 579.266 530.242 568.351 530.242 568.351C530.242 568.351 527.863 545.603 512.869 538.633C497.875 531.663 500.842 512.472 500.842 512.472C492.263 508.128 493.586 502.091 493.586 502.091C494.24 490.51 481.986 492.482 481.986 492.482C470.007 493.631 457.923 492.059 446.64 487.884C415.396 473.025 424.229 444.106 428.452 458.432C432.675 472.759 452.186 486.312 460.752 483.673C469.318 481.034 478.685 483.673 478.685 483.673H503.742C513.497 471.839 535.64 461.457 535.64 461.457C535.64 461.457 576.653 453.301 592.208 460.125C607.763 466.948 636.174 474.264 636.174 474.264C650.138 471.986 665.76 480.928 665.76 480.928C669.769 475.011 679.338 463.71 690.122 458.632C689.788 454.941 692.902 449.49 703.953 447.518C717.744 445.066 730.493 451.889 730.493 456.18C731.876 456.811 733.021 457.866 733.759 459.192C734.497 460.519 734.79 462.045 734.595 463.55C734.181 467.961 746.623 474.371 752.997 477.036C754.667 477.29 757.514 479.595 755.015 485.472Z" fill="#542D00"/>
<path id="bone" d="M889.112 548.747C890.793 544.448 888.368 539.537 883.942 538.277C880.162 537.156 876.23 538.997 874.576 542.532C874.506 542.74 874.344 542.763 874.137 542.693L850.561 534.742C850.354 534.672 850.262 534.487 850.309 534.348C851.134 530.533 849.051 526.664 845.433 525.29C841.148 523.613 836.29 526.145 834.978 530.491C834.556 531.97 834.572 533.52 835.005 534.979C835.027 535.141 834.98 535.279 834.864 535.395C833.66 536.225 832.709 537.448 832.125 538.95C830.444 543.249 832.869 548.16 837.295 549.421C841.075 550.541 845.007 548.701 846.661 545.165C846.731 544.957 846.893 544.935 847.1 545.005L870.676 552.955C870.883 553.025 870.975 553.211 870.928 553.349C870.103 557.164 872.186 561.033 875.804 562.408C880.089 564.085 884.947 561.553 886.259 557.207C886.681 555.727 886.664 554.177 886.232 552.719C886.21 552.557 886.257 552.418 886.373 552.303C887.6 551.404 888.552 550.18 889.112 548.747Z" fill="black" stroke="black" stroke-width="4" stroke-miterlimit="10"/>
<g id="shadows">
<ellipse id="Ellipse 6" cx="606.147" cy="644.332" rx="87.5964" ry="9.65221" fill="#A9A9A9"/>
<ellipse id="Ellipse 7" cx="858.947" cy="641.371" rx="29.4756" ry="3.2174" fill="#A9A9A9"/>
</g>
<g id="wind lines">
<line id="Line 10" x1="606" y1="374.5" x2="696" y2="374.5" stroke="black"/>
<line id="Line 11" x1="919" y1="594.5" x2="975" y2="594.5" stroke="black"/>
<line id="Line 12" x1="288" y1="594.5" x2="414" y2="594.5" stroke="black"/>
<line id="Line 13" x1="381" y1="402.5" x2="457" y2="402.5" stroke="black"/>
<line id="Line 14" x1="353" y1="519.5" x2="400" y2="519.5" stroke="black"/>
<line id="Line 15" x1="523" y1="433.5" x2="627" y2="433.5" stroke="black"/>
<line id="Line 16" x1="801" y1="385.5" x2="877" y2="385.5" stroke="black"/>
<line id="Line 17" x1="1002" y1="630.5" x2="1067" y2="630.5" stroke="black"/>
<line id="Line 18" x1="1048" y1="449.5" x2="1113" y2="449.5" stroke="black"/>
<line id="Line 19" x1="888" y1="496.5" x2="960" y2="496.5" stroke="black"/>
<line id="Line 20" x1="919" y1="691.5" x2="991" y2="691.5" stroke="black"/>
</g>
</g>
</svg>
