<svg width="1440" height="1024" viewBox="0 0 1440 1024" fill="none" xmlns="http://www.w3.org/2000/svg">
<g id="preloader">
<rect width="1440" height="1024" fill="white"/>
<rect id="bg container" width="1440" height="1024" fill="white"/>
<path id="bone" d="M889.112 548.747C890.793 544.448 888.368 539.537 883.942 538.277C880.162 537.156 876.23 538.997 874.576 542.532C874.506 542.74 874.344 542.763 874.137 542.693L850.561 534.742C850.354 534.672 850.262 534.487 850.309 534.348C851.134 530.533 849.051 526.664 845.433 525.29C841.148 523.613 836.29 526.145 834.978 530.491C834.556 531.97 834.572 533.52 835.005 534.979C835.027 535.141 834.98 535.279 834.864 535.395C833.66 536.225 832.709 537.448 832.125 538.95C830.444 543.249 832.869 548.16 837.295 549.421C841.075 550.541 845.007 548.701 846.661 545.165C846.731 544.957 846.893 544.935 847.1 545.005L870.676 552.955C870.883 553.025 870.975 553.211 870.928 553.349C870.103 557.164 872.186 561.033 875.804 562.408C880.089 564.085 884.947 561.553 886.259 557.207C886.681 555.727 886.664 554.177 886.232 552.719C886.21 552.557 886.257 552.418 886.373 552.303C887.6 551.404 888.552 550.18 889.112 548.747Z" fill="black" stroke="black" stroke-width="4" stroke-miterlimit="10"/>
<g id="shadows">
<ellipse id="shadow-dog" cx="606.147" cy="644.332" rx="87.5964" ry="9.65221" fill="#A9A9A9"/>
<ellipse id="shadow-bone" cx="858.947" cy="641.371" rx="29.4756" ry="3.2174" fill="#A9A9A9"/>
</g>
<g id="wind lines">
<line id="Line1" x1="288" y1="594.5" x2="414" y2="594.5" stroke="black"/>
<line id="line2" x1="353" y1="519.5" x2="400" y2="519.5" stroke="black"/>
<line id="line3" x1="381" y1="402.5" x2="457" y2="402.5" stroke="black"/>
<line id="line4" x1="454" y1="382.5" x2="558" y2="382.5" stroke="black"/>
<line id="line5" x1="606" y1="374.5" x2="696" y2="374.5" stroke="black"/>
<line id="line6" x1="801" y1="385.5" x2="877" y2="385.5" stroke="black"/>
<line id="line7" x1="888" y1="496.5" x2="960" y2="496.5" stroke="black"/>
<line id="line8" x1="914" y1="592.5" x2="970" y2="592.5" stroke="black"/>
<line id="line9" x1="919" y1="691.5" x2="991" y2="691.5" stroke="black"/>
<line id="line10" x1="1002" y1="630.5" x2="1067" y2="630.5" stroke="black"/>
<line id="line11" x1="1048" y1="449.5" x2="1113" y2="449.5" stroke="black"/>
</g>
<g id="dog">
<path id="dog1" d="M722.347 487.579C722.462 490.024 720.319 494.517 710.835 492.895C713.882 495.482 718.557 501.295 712.872 503.909C705.788 507.169 703.724 498.592 695.932 500.232C689.733 501.543 685.208 507.037 683.738 509.615C683.446 510.173 683.101 510.9 682.72 511.795C675.503 512.893 666.355 528.266 663.645 531.066C660.936 533.866 651.248 538.323 651.248 538.323C645.74 538.668 655.959 548.114 655.959 548.114C670.553 561.75 666.886 564.807 666.886 564.807C657.969 571.895 658.58 578.275 658.58 578.275L652.638 585C645.474 580.809 651.948 574.252 651.948 574.252C651.948 574.252 655.49 568.307 657.624 567.084C659.758 565.861 659.28 560.961 650.106 555.805C640.932 550.648 632.811 542.603 632.811 542.603C632.811 542.603 621.716 553.093 622.583 558.782C623.451 564.47 618.758 565.418 618.758 565.418C618.758 565.418 600.312 568.484 597.691 563.85C595.07 559.216 612.276 557.205 612.276 557.205L615.597 553.66C615.34 548.415 618.758 537.313 618.758 537.313C618.758 537.313 613.764 534.655 611.753 531.81C609.743 528.966 598.47 520.292 598.47 520.292L599.701 546.262C599.701 546.262 593.759 554.653 595.769 556.31C597.78 557.967 595.938 565.17 595.938 565.17C615.163 577.672 622.327 570.486 625.47 577.407C628.614 584.327 612.541 580.472 612.541 580.472L611.842 577.974C605.63 576.27 599.771 573.474 594.539 569.716C594.539 569.716 595.07 569.193 588.429 569.104C581.787 569.016 587.029 562.982 587.029 562.982L586.064 550.834C578.094 550.657 575.314 573.517 585.63 574.084C595.947 574.651 590.439 579.4 590.439 579.4C576.536 577.389 570.523 569.769 568.088 565.055C567.57 564.039 567.317 562.907 567.355 561.767C567.392 560.627 567.717 559.514 568.3 558.534C573.33 549.939 573.401 542.682 573.401 542.682C573.401 542.682 571.825 527.557 561.889 522.923C551.954 518.289 553.919 505.53 553.919 505.53C548.234 502.642 549.111 498.628 549.111 498.628C549.545 490.928 541.425 492.239 541.425 492.239C533.487 493.003 525.479 491.958 518.002 489.183C497.299 479.303 503.152 460.076 505.95 469.601C508.749 479.126 521.677 488.137 527.354 486.383C533.03 484.628 539.237 486.383 539.237 486.383H555.841C562.305 478.515 576.979 471.612 576.979 471.612C576.979 471.612 604.156 466.19 614.463 470.726C624.771 475.263 643.597 480.127 643.597 480.127C652.851 478.612 663.203 484.557 663.203 484.557C665.859 480.623 672.2 473.11 679.346 469.734C679.124 467.279 681.188 463.656 688.511 462.344C697.65 460.714 706.098 465.25 706.098 468.103C707.014 468.523 707.773 469.225 708.262 470.106C708.751 470.988 708.945 472.003 708.816 473.003C708.542 475.936 716.786 480.198 721.01 481.97C722.117 482.138 724.003 483.671 722.347 487.579Z" fill="#542D00"/>
<path id="dog2" d="M718.364 486.401C718.478 488.816 716.369 493.263 707.014 491.653C710.021 494.212 714.651 499.962 709.019 502.549C701.994 505.789 699.999 497.297 692.305 498.917C686.158 500.211 681.729 505.626 680.278 508.204C679.992 508.75 679.648 509.478 679.276 510.36L675.362 511.798L665.464 526.834L654.334 533.735C654.334 533.735 657.494 539.389 669.606 546.701C678.674 551.943 674.284 560.358 674.284 560.358L671.802 570.842C671.802 570.842 663.698 583.531 663.975 572.759C664.385 566.137 666.838 567.785 666.838 567.785C666.838 567.785 671.267 555.096 664.805 553.026C658.343 550.956 640.942 543.098 639.94 541.718C638.937 540.338 636.122 540.606 636.914 548.474C637.706 556.342 637.735 568.6 627.712 565.303C617.69 562.006 603.935 560.895 606.55 553.161C609.166 545.427 619.742 557.301 619.742 557.301L626.195 557.023L624.686 540.884C624.686 540.884 616.85 537.3 613.557 534.817C610.263 532.335 606.226 530.026 606.226 530.026C606.226 530.026 599.401 526.077 596.385 522.253C593.368 518.429 592.566 522.301 594.59 527.821C594.59 527.821 593.636 536.236 597.062 548.378C597.062 548.378 589.789 569.462 614.931 578.73C614.931 578.73 627.712 579.688 620.973 585.898C614.234 592.109 586.209 570.037 586.209 570.037L585.112 554.704C585.112 554.704 581.103 536.044 575.576 543.903C575.576 543.903 573.667 551.349 567.195 555.077C560.723 558.805 558.948 565.428 561.697 569.29C564.446 573.152 570.765 576.324 570.765 576.324C570.765 576.324 595.907 578.941 579.146 582.803L567.472 581.566C567.472 581.566 541.776 565.84 550.014 559.074C558.251 552.308 562.518 542.389 559.082 536.868C555.645 531.348 554.824 530.246 556.218 525.972C556.218 525.972 550.309 522.378 550.033 518.238C549.756 514.098 549.765 508.309 549.765 508.309C549.765 508.309 543.58 501.409 545.776 497.269C540.241 492.633 533.19 490.225 525.988 490.512C514.037 491.068 507.031 477.823 507.031 477.823C507.031 477.823 506.344 456.164 511.422 463.889L511.012 475.389C512.699 478.547 515.288 481.127 518.447 482.797C521.605 484.467 525.189 485.152 528.737 484.762C528.737 484.762 533.414 484.628 536.154 486.832C541.633 487.191 547.067 488.07 552.381 489.458C552.381 489.458 567.921 465.163 615.599 475.658C648.836 482.28 660.004 483.324 660.004 483.324C662.667 479.434 668.881 471.997 675.935 468.652C675.715 466.227 677.758 462.633 684.974 461.34C693.995 459.73 702.328 464.215 702.328 467.032C703.23 467.452 703.977 468.148 704.459 469.022C704.941 469.895 705.134 470.9 705.01 471.891C704.733 474.766 712.913 479.012 717.037 480.766C718.144 480.986 719.977 482.5 718.364 486.401Z" fill="#542D00"/>
<path id="dog3" d="M718.333 485.709C718.453 488.25 716.22 492.902 706.368 491.211C709.542 493.903 714.378 499.935 708.481 502.646C701.092 506.038 698.98 497.144 690.88 498.835C684.402 500.185 679.727 505.888 678.205 508.569C677.904 509.149 677.544 509.91 677.153 510.83C677.153 510.83 676.633 520.074 660.924 529.838C660.924 529.838 674.32 538.192 679.947 538.762C679.947 538.762 687.436 541.063 684.953 550.137C682.47 559.211 685.443 563.143 685.443 563.143C685.443 563.143 681.198 570.346 678.315 563.143C675.431 555.94 683.942 557.09 677.314 549.457C670.686 541.824 653.816 540.823 653.816 540.823C653.816 540.823 650.572 540.103 656.819 550.617C663.067 561.132 643.483 558.531 643.483 558.531C643.483 558.531 631.809 559.251 631.379 553.349C630.948 547.446 639.008 549.897 639.008 549.897C639.008 549.897 648.96 557.09 647.808 549.747C647.808 549.747 640.89 544.145 636.855 538.592H625.321C625.321 538.592 608.601 531.889 595.916 523.826C595.916 523.826 590.049 519.964 588.287 517.943C588.527 518.403 594.204 529.948 588.287 553.349C588.287 553.349 582.09 562.133 586.125 571.927L594.204 578.7C594.204 578.7 600.972 578.12 601.403 585.463C601.833 592.806 574.891 571.457 574.891 571.457V560.532C574.891 560.532 576.613 550.157 572.729 544.525C568.844 538.892 565.089 546.826 565.089 546.826C565.089 546.826 560.614 553.599 554.136 554.889C554.136 554.889 547.939 560.222 548.219 563.683C548.5 567.145 554.417 572.607 554.417 572.607C554.417 572.607 564.078 571.026 562.056 577.069C559.291 578.074 556.308 578.322 553.415 577.789C549.23 576.789 536.695 564.544 535.824 558.491C535.824 558.491 547.068 550.858 551.253 541.353C551.989 535.898 551.891 530.362 550.963 524.936L547.358 518.313L547.508 506.358C547.508 506.358 544.184 504.637 544.905 497.724L525.592 487.93C525.592 487.93 512.196 484.929 507 474.534C507 474.534 508.161 456.676 510.895 461.138L511.045 472.953C511.045 472.953 518.964 483.318 528.476 483.608C528.476 483.608 532.951 483.318 534.963 486.199C536.976 489.081 552.695 490.521 552.695 490.521C552.695 490.521 563.518 478.656 585.354 476.165C591.11 475.546 596.922 475.643 602.654 476.455C606.419 476.955 611.956 477.706 617.412 478.506C626.968 479.869 636.614 480.505 646.267 480.407C650.802 480.407 655.277 480.827 656.859 482.408C659.663 478.326 666.21 470.532 673.639 467.021C673.409 464.48 675.562 460.718 683.161 459.358C692.672 457.667 701.453 462.359 701.453 465.36C702.402 465.797 703.187 466.526 703.694 467.44C704.2 468.354 704.4 469.406 704.266 470.442C703.986 473.444 712.596 477.916 716.941 479.756C718.102 480.067 720.025 481.647 718.333 485.709Z" fill="#542D00"/>
<path id="dog4" d="M722.378 483.792C722.486 486.251 720.339 490.731 710.857 489.125C713.909 491.732 718.587 497.58 712.895 500.207C705.776 503.497 703.748 494.874 695.949 496.509C689.716 497.828 685.216 503.359 683.749 505.956C683.454 506.511 683.119 507.244 682.764 508.146C682.764 508.146 680.342 521.111 668.634 527.901C668.634 527.901 674.838 534.155 689.755 536.296C689.755 536.296 695.073 533.075 700.223 554.702C700.223 554.702 707.115 559.877 699.514 564.347C699.514 564.347 697.544 565.239 692.06 548.983C692.06 548.983 689.578 546.119 688.121 547.913C688.121 547.913 687.235 539.151 674.099 542.55C674.099 542.55 681.917 547.011 675.881 553.087C669.845 559.163 668.221 563.812 661.328 563.266C654.435 562.721 662.047 554.147 668.969 553.612C668.969 553.612 666.655 549.865 669.146 547.903L652.279 537.178C652.279 537.178 636.307 546.02 613.227 536.237C590.146 526.453 585.892 518.236 584.12 525.026V545.752L569.921 571.127C569.921 571.127 567.951 580.592 578.438 581.128C578.438 581.128 583.588 579.522 582.377 585.093C582.377 585.093 576.695 589.384 568.355 585.093C568.355 585.093 561.462 575.805 558.41 575.805C555.357 575.805 564.091 560.61 564.091 560.61C564.091 560.61 567.114 542.768 558.764 547.586C558.764 547.586 555.219 553.107 546.525 556.863C537.83 560.62 536.048 565.972 536.048 565.972L541.375 576.697C541.375 576.697 550.237 574.913 549.006 579.909C544.749 580.817 540.378 581.058 536.048 580.622V578.303L526.999 566.864C526.999 566.864 528.062 561.334 525.581 560.253V557.577C525.581 557.577 547.411 548.656 544.742 535.771C545.564 532.003 545.564 528.1 544.742 524.332C544.742 524.332 544.565 518.385 546.347 514.688C546.347 514.688 546.347 508.79 544.742 507.006L545.461 501.485C545.461 501.485 532.503 491.276 511.195 482.167C511.195 482.167 500.905 473.058 503.386 464.117L509.068 474.128L528.948 485.567C528.948 485.567 534.63 484.843 539.602 490.205C539.602 490.205 552.403 496.817 557.169 492.346C561.935 487.876 565.509 488.064 565.509 488.064C565.509 488.064 577.581 480.026 590.362 481.126C603.144 482.226 625.86 482.375 638.109 483.624C650.359 484.873 663.238 480.65 663.238 480.65C665.926 476.686 672.238 469.143 679.387 465.782C679.16 463.314 681.228 459.657 688.554 458.348C697.702 456.703 706.15 461.263 706.15 464.137C707.071 464.561 707.832 465.272 708.321 466.164C708.81 467.056 709.002 468.083 708.868 469.093C708.592 472.067 716.883 476.339 721.058 478.123C722.122 478.311 723.973 479.857 722.378 483.792Z" fill="#542D00"/>
<path id="dog4_2" d="M722.28 484.762C722.415 487.508 720.012 492.536 709.422 490.715C712.814 493.605 718.071 500.117 711.68 503.045C703.733 506.706 701.465 497.111 692.748 498.932C685.781 500.396 680.755 506.552 679.121 509.441C678.703 510.234 678.324 511.048 677.987 511.878C677.987 511.878 675.729 521.425 663.399 530.682C663.399 530.682 672.471 537.579 682.619 540.314C682.619 540.314 691.143 543.04 688.068 552.837C688.068 552.837 687.107 559.724 687.886 564.088C687.886 564.088 689.327 571.534 682.437 568.818C681.312 567.37 680.687 565.595 680.656 563.76C680.625 561.926 681.189 560.131 682.264 558.645V552.654C682.264 552.654 678.42 553.55 678.823 549.205C678.823 549.205 669.761 543.214 654.913 543.214C654.913 543.214 665.561 558.279 656.162 560.456C650.279 561.765 644.21 562.013 638.24 561.188C638.24 561.188 628.11 556.285 634.395 551.556C638.739 548.666 642.727 554.638 642.727 554.638C642.727 554.638 649.455 556.276 649.455 552.278L638.211 540.632L625.295 540.083C625.295 540.083 603.191 532.319 587.902 519.026C587.902 519.026 594.629 543.907 583.75 564.849C583.75 564.849 583.529 571.717 585.201 575.772C586.873 579.828 594.081 582.294 594.081 582.294C594.081 582.294 602.057 581.966 601.154 590C601.154 590 590.141 589.769 584.98 582.901C584.98 582.901 574.409 577.506 573.304 574.568C573.304 574.568 572.852 562.865 574.265 557.123C574.265 557.123 571.382 540.459 567.538 544.967C563.694 549.475 553.382 556.526 553.382 556.526C553.382 556.526 544.06 563.048 545.857 567.122C547.654 571.197 551.931 575.57 551.931 575.57C551.931 575.57 561.253 574.318 560.349 580.512C560.349 580.512 547.77 587.495 534.959 564.531C534.959 564.531 531.259 560.678 535.747 558.222C540.235 555.765 548.779 543.368 548.779 543.368C549.682 535.435 548.643 527.4 545.751 519.96C542.599 507.226 544.954 506.552 544.954 506.552C544.954 506.552 541.485 502.169 542.378 498.219C542.378 498.219 527.002 488.654 519.016 486.747C511.03 484.839 503.063 474.475 503.063 474.475C503.063 474.475 502.169 454.66 507.109 459.496V472.336C511.456 477.924 517.64 481.784 524.561 483.231L528.838 483.009C528.838 483.009 539.168 490.552 551.181 490.205C551.181 490.205 568.258 472.086 597.454 474.792C626.65 477.499 634.299 479.965 634.299 479.965C634.299 479.965 653.798 477.981 656.143 481.266C659.161 476.854 666.205 468.444 674.201 464.659C673.941 461.913 676.257 457.858 684.445 456.384C694.661 454.564 704.117 459.63 704.117 462.829C705.138 463.303 705.982 464.09 706.527 465.078C707.071 466.065 707.287 467.2 707.144 468.319C706.837 471.604 716.101 476.382 720.772 478.366C722.03 478.674 724.106 480.389 722.28 484.762Z" fill="#542D00"/>
<path id="dog6" d="M729.381 481.07C729.491 483.448 727.38 487.823 718.044 486.235C721.046 488.749 725.645 494.404 720.045 496.954C713.031 500.14 711.03 491.789 703.355 493.378C697.214 494.649 692.78 500.004 691.339 502.518C691.054 503.054 690.714 503.762 690.338 504.633C690.338 504.633 688.86 519.682 682.158 521.879L677.174 526.807C677.174 526.807 678.202 530.547 695.387 534.795C695.387 534.795 703.814 535.303 706.559 542.102L711.719 555.717C711.719 555.717 717.052 560.818 711.719 566.427C711.719 566.427 706.21 562.179 706.045 556.906C706.045 556.906 704.154 546.921 697.783 548.074C697.783 548.074 700.188 540.595 683.682 542.801C683.682 542.801 690.733 547.557 685.748 553.003C682.687 556.351 679.819 559.866 677.155 563.532C677.155 563.532 666.671 567.78 665.808 562.515C664.946 557.251 676.981 554.864 676.981 554.864C676.981 554.864 675.09 549.771 677.669 548.238L659.107 538.044C659.107 538.044 656.353 537.89 646.411 541.276C646.411 541.276 637.974 543.527 631.475 539.242L625.544 539.016C625.544 539.016 599.537 529.322 588.704 521.879L585.28 523.231V546.576L569.885 572.962C569.885 572.962 567.379 584.354 582.434 583.219C582.434 583.219 584.94 583.773 584.142 588.974C584.142 588.974 569.655 592.359 566.35 586.832C564.138 583.348 561.031 580.507 557.345 578.599V574.315C557.345 574.315 569.885 558.222 562.476 547.321C562.476 547.321 558.593 546.803 554.6 552.667C554.6 552.667 547.76 557.623 543.088 558.413C538.415 559.202 532.659 567.199 532.659 567.199C532.659 567.199 535.964 577.573 539.159 578.817C539.159 578.817 547.935 577.465 547.026 582.085C547.026 582.085 543.492 584.572 533.458 583.21V580.977L524.103 568.569C524.103 568.569 524.103 563.051 522.506 561.471V558.54C522.506 558.54 544.171 549.29 542.922 535.085C543.654 531.521 543.769 527.859 543.262 524.257C543.262 524.257 542.803 514.218 544.4 512.53C544.4 512.53 545.199 505.314 542.693 504.179L543.152 498.733C543.152 498.733 538.755 492.307 506.431 478.764C506.431 478.764 495.654 471.439 497.141 459.703C497.141 459.703 500.905 458.342 503.411 469.061L525.443 481.769L531.943 482.44C531.943 482.44 549.964 496.963 558.171 488.077C558.171 488.077 563.761 484.129 566.956 484.356C566.956 484.356 579.047 477.258 586.684 476.913C594.322 476.568 627.518 478.047 628.546 479.173C629.574 480.298 641.885 479.173 641.885 479.173C641.885 479.173 668.618 476.958 671.161 477.957C673.823 474.126 680.029 466.81 687.079 463.525C686.859 461.137 688.915 457.607 696.103 456.336C705.109 454.747 713.435 459.159 713.435 461.936C714.337 462.345 715.082 463.028 715.564 463.885C716.046 464.742 716.24 465.729 716.116 466.701C715.84 469.561 724.002 473.718 728.124 475.433C729.161 475.769 730.951 477.258 729.381 481.07Z" fill="#542D00"/>
<path id="dog7" d="M729.383 481.623C729.489 483.965 727.464 488.266 718.3 486.708C721.236 489.175 725.737 494.757 720.219 497.224C713.367 500.349 711.419 492.138 703.905 493.696C697.907 494.948 693.579 500.216 692.169 502.691C691.881 503.227 691.555 503.925 691.209 504.775C691.209 504.775 690.825 511.467 688.158 512.624C685.49 513.78 679.396 523.818 679.396 523.818L693.359 530.05C696.449 529.64 699.592 530.147 702.395 531.508C705.197 532.868 707.535 535.021 709.116 537.698C715.19 547.19 721.102 549.638 721.102 549.638C721.102 549.638 725.036 550.785 724.22 555.45C724.22 555.45 717.321 556.673 714.864 552.419C712.407 548.165 707.552 546.129 705.757 541.627L702.389 541.388C702.389 541.388 699.759 537.87 697.38 539.591C697.38 539.591 699.683 548.988 698.282 552.974L697.792 557.39C697.792 557.39 700.585 560.497 700.249 563.03C700.249 563.03 701.813 567.695 696.89 565.975L696.478 562.294C696.478 562.294 695.652 557.964 693.119 556.989L693.186 545.498C693.186 545.498 691.267 544.351 690.067 544.686L689.894 541.904C689.894 541.904 683.177 536.35 660.031 535.117C660.031 535.117 640.378 546.904 596.197 526.571L591.619 526.437C591.619 526.437 586.101 522.565 584.355 527.393C584.355 527.393 583.395 546.598 578.885 552.113C574.375 557.629 565.105 567.408 565.105 567.408C565.105 567.408 560.163 568.202 559.577 574.1C559.577 578.469 569.058 583.229 569.058 583.229C569.058 583.229 587.579 581.996 584.93 587.426C582.282 592.855 567.043 588.009 567.043 588.009C567.043 588.009 554.923 586.403 557.447 581.681C557.447 581.681 546.987 576.021 548.196 570.142C548.196 570.142 560.978 558.996 558.752 549.771L558.032 545.145L550.557 550.135C550.557 550.135 536.872 553.566 529.272 563.518V574.176C529.231 574.53 529.27 574.887 529.384 575.224C529.499 575.561 529.686 575.868 529.934 576.124C530.182 576.379 530.483 576.578 530.817 576.704C531.15 576.83 531.508 576.881 531.863 576.853C534.685 576.853 537.189 576.853 537.189 576.853C537.189 576.853 544.348 579.883 542.947 581.709C541.546 583.535 535.481 583.755 535.481 583.755C535.481 583.755 526.672 584.606 525.952 579.883C525.232 575.161 521.979 566.166 521.979 566.166C521.979 566.166 520.904 556.004 521.979 552.783C521.979 552.783 540.625 545.135 541.671 535.299C542.556 528.381 544.112 521.565 546.315 514.947C546.315 514.947 548.609 510.473 550.461 508.628V500.837C550.461 500.837 537.16 487.454 512.22 482.081C512.22 482.081 499.965 475.725 497 468.861L500.973 469.664C500.973 469.664 505.704 477.187 523.179 480.179C540.653 483.171 556.612 493.906 556.612 493.906C556.612 493.906 585.89 475.543 630.57 482.493C630.57 482.493 637.825 483.678 641.558 481.202C641.558 481.202 652.92 478.43 658.783 479.673C658.783 479.673 670.827 474.893 672.506 478.611C675.097 474.845 681.143 467.647 688.042 464.416C687.831 462.064 689.818 458.585 696.871 457.332C705.661 455.765 713.799 460.104 713.799 462.838C714.68 463.244 715.408 463.919 715.879 464.764C716.35 465.61 716.539 466.582 716.419 467.542C716.15 470.352 724.096 474.444 728.155 476.145C729.162 476.403 730.947 477.875 729.383 481.623Z" fill="#542D00"/>
<path id="dog8" d="M729.402 481.574C729.505 483.809 727.542 487.984 718.659 486.437C721.505 488.818 725.868 494.147 720.519 496.51C713.887 499.504 711.999 491.638 704.707 493.14C698.884 494.33 694.689 499.376 693.331 501.757C693.052 502.261 692.736 502.92 692.401 503.744C692.401 503.744 687.536 507.068 687.88 512.663C688.225 518.258 680.765 522.269 680.765 522.269C680.765 522.269 682.523 528.991 700.67 528.798C712.278 530.236 711.99 536.005 711.99 536.005C711.99 536.005 714.911 540.227 722.036 543.981C722.036 543.981 723.31 542.342 726.333 547.333C729.356 552.323 723.012 550.51 723.012 550.51C723.012 550.51 715.701 550.409 709.255 540.996C704.605 538.981 708.669 543.88 708.669 543.88C708.669 543.88 712.967 547.543 712.967 549.741C712.967 549.741 719.478 551.188 721.933 553.77C724.389 556.352 715.422 555.702 715.422 555.702L709.274 555.776C709.274 555.776 702.93 544.457 701.07 544.558C699.21 544.659 698.633 544.356 698.54 542.626C698.447 540.895 667.845 535.611 667.845 535.611C667.845 535.611 664.822 531.582 661.994 532.736C661.994 532.736 651.763 536.674 646.963 536.188C642.164 535.703 631.941 536.289 622.863 532.635C622.863 532.635 604.028 529.952 601.981 526.5C601.981 526.5 583.536 522.745 582.95 528.221C582.364 533.697 575.825 549.649 572.03 552.232C568.357 554.994 564.836 557.946 561.483 561.078C561.483 561.078 544.74 567.414 548.209 572.698C551.679 577.982 552.311 575.39 555.827 581.855C555.827 581.855 568.514 580.601 567.24 587.139L555.148 588L545.186 583C545.186 583 545.772 579.932 546.954 579.639C546.954 579.639 540.117 572.726 537.578 567.158C537.578 567.158 536.406 564.466 540.805 561.865C545.205 559.265 554.069 552.259 552.711 544.769C552.711 544.769 542.554 552.36 534.108 553.706C525.662 555.052 520.249 572.726 520.249 572.726C520.249 572.726 530.295 579.136 528.053 581.279C528.053 581.279 524.1 580.802 523.095 581.855C522.091 582.909 514.882 582.139 514.882 578.879C514.882 575.619 520.147 552.745 520.147 552.745C520.147 552.745 516.054 551.115 529.718 545.254C529.718 545.254 538.089 539.76 538.787 537.754C539.484 535.749 540.256 530.749 543.438 526.033C546.619 521.317 546.749 514.705 546.749 514.705C546.749 514.705 549 510.383 552.609 509.705C556.218 509.028 553.483 501.162 553.483 501.162C547.505 497.048 540.92 493.864 533.959 491.721C523.514 488.744 507.413 489.12 507.413 489.12L496 484.129C496 484.129 517.273 483.653 535.317 487.49C553.362 491.327 560.106 495.557 560.106 495.557C560.106 495.557 574.839 490.567 590.652 487.105C606.465 483.644 617.626 484.99 617.626 484.99L635.299 485.668C635.299 485.668 640.964 482.005 651.493 482.783C651.493 482.783 667.64 476.446 674.254 478.699C676.774 475.091 682.625 468.196 689.322 465.091C689.118 462.839 691.043 459.514 697.88 458.315C706.4 456.822 714.287 460.98 714.287 463.599C715.141 463.985 715.848 464.629 716.305 465.437C716.761 466.246 716.944 467.177 716.827 468.095C716.566 470.787 724.268 474.697 728.202 476.336C729.188 476.584 730.918 477.985 729.402 481.574Z" fill="#542D00"/>
<path id="dog9" d="M729.349 481.798C729.472 484.262 727.292 488.777 717.686 487.138C720.772 489.733 725.509 495.569 719.743 498.211C712.525 501.499 710.477 492.88 702.569 494.52C696.256 495.831 691.699 501.358 690.208 503.953C689.915 504.515 689.566 505.246 689.179 506.145C689.179 506.145 686.518 504.571 685.678 513.808C682.77 517.799 679.598 521.595 676.186 525.171L690.236 530.792C690.236 530.792 700.38 529.967 704.843 536.525C708.044 541.03 711.658 545.232 715.639 549.077C715.639 549.077 721.121 550.464 720.753 555.269C720.753 555.269 714.893 556.291 712.562 554.529C710.232 552.768 702.428 542.351 702.428 542.351L699.257 541.977C699.257 541.977 697.493 537.546 694.332 540.59C694.332 540.59 696.285 547.981 695.171 553.986C694.983 554.955 695.01 555.953 695.25 556.911C695.489 557.868 695.936 558.763 696.558 559.532C698.7 562.211 697.398 565.902 697.398 565.902C697.398 565.902 695.086 568.759 693.397 562.67C691.906 557.312 690.236 557.771 690.236 557.771L689.585 545.949L686.981 544.749L686.518 543.091C686.518 543.091 689.349 538.651 657.266 535.513C657.266 535.513 641.894 548.141 593.986 527.391L589.457 527.073C589.457 527.073 584.154 524.178 583.229 527.4C582.304 530.623 581.521 538.482 581.521 538.482C581.521 538.482 580.719 554.745 564.536 566.586C564.536 566.586 554.882 571.101 559.308 576.028C561.701 578.795 564.508 581.181 567.631 583.101C567.631 583.101 587.57 582.97 582.398 588.235C577.227 593.499 556.336 585.312 556.336 585.312C556.336 585.312 553.976 584.534 555.835 581.565C555.835 581.565 548.135 576.553 546.654 573.846C545.172 571.138 548.598 568.225 548.598 568.225C548.598 568.225 560.176 559.522 556.496 545.433C556.496 545.433 547.23 552.862 538.208 555.082C538.208 555.082 531.603 557.583 528.527 563.092L528.234 575.7L535.604 577.021C535.604 577.021 543.757 580.094 540.898 582.192C538.039 584.291 526.328 583.129 526.328 583.129L520.949 567.11L520.742 553.593C520.742 553.593 541.502 544.89 540.917 533.049C540.332 521.208 549.126 509.574 549.126 509.574L548.843 501.564C544.998 499.251 541.378 496.589 538.029 493.611C533.679 489.508 516.703 484.974 516.703 484.974C516.703 484.974 502.209 482.885 496 470.416L499.963 470.978C499.963 470.978 506.144 479.756 520.459 481.077C534.774 482.398 555.892 495.428 555.892 495.428C555.892 495.428 586.003 476.796 627.674 483.831C627.674 483.831 633.449 484.768 637.62 482.894C641.79 481.021 655.473 481.086 655.473 481.086C655.473 481.086 666.476 477.264 669.373 478.688C672.1 474.735 678.488 467.175 685.744 463.784C685.509 461.311 687.632 457.667 695.03 456.346C704.296 454.707 712.864 459.269 712.864 462.135C713.792 462.558 714.558 463.265 715.052 464.151C715.546 465.038 715.742 466.058 715.61 467.063C715.337 470.014 723.735 474.304 727.972 476.084C729.123 476.327 731.001 477.864 729.349 481.798Z" fill="#542D00"/>
<path id="dog10" d="M737.328 480.671C737.448 483.221 735.206 487.905 725.284 486.214C728.471 488.903 733.354 494.972 727.406 497.698C719.994 501.098 717.835 492.155 709.682 493.864C703.197 495.231 698.463 500.95 696.925 503.647C696.622 504.226 696.27 504.984 695.869 505.92C695.869 505.92 692.747 506.04 692.626 509.957C692.506 513.875 684.65 521.838 684.65 521.838C684.65 521.838 678.6 526.615 695.869 529.922C713.138 533.229 709.321 531.021 714.398 535.798C719.475 540.574 725.979 546.274 725.979 546.274C727.451 546.628 728.796 547.381 729.867 548.448C730.938 549.516 731.692 550.858 732.047 552.326C733.307 557.462 719.901 551.734 719.901 551.734C719.901 551.734 710.266 539.558 710.461 544.168C710.461 544.168 716.205 551.346 717.391 553.314C717.391 553.314 727.23 555.033 726.173 558.977C725.117 562.922 712.277 558.054 712.277 558.054C712.277 558.054 706.718 546.339 703.225 547.789C699.732 549.24 701.78 545.877 701.78 545.877C698.005 543.161 693.464 541.709 688.809 541.729C688.809 541.729 677.784 537.71 671.911 537.978C666.037 538.246 667.686 535.807 667.686 535.807C667.686 535.807 666.028 533.109 660.423 536.269C657.145 538.15 653.349 538.934 649.592 538.505C649.592 538.505 617.166 537.978 601.102 528.536C601.102 528.536 584.249 525.127 580.923 529.044C577.597 532.961 574.216 547.725 574.216 547.725C574.216 547.725 570.649 556.344 557.928 564.964C557.928 564.964 541.882 570.507 543.911 576.863C543.911 576.863 549.127 582.231 551.582 587.127C551.582 587.127 555.168 589.225 561.514 587.432C561.514 587.432 565.952 592.052 562.533 593.576C559.114 595.1 547.089 592.024 547.089 592.024C547.089 592.024 539.9 589.04 540.984 586.952C542.068 584.864 543.439 585.16 540.261 581.935C537.083 578.711 532.599 569.574 532.599 569.574C532.599 569.574 549.785 560.474 549.007 546.884C549.007 546.884 535.712 554.802 530.079 556.529C530.079 556.529 523.26 560.169 520.203 563.818C517.146 567.468 514.515 578.443 514.515 578.443C514.515 578.443 523.381 583.876 522.853 586.148C522.325 588.421 510.577 586.564 510.577 586.564C510.577 586.564 507.965 573.233 514.737 556.455C514.737 556.455 513.505 554.404 515.663 553.499C517.822 552.594 532.479 541.378 532.479 541.378C532.479 541.378 534.433 540.842 534.637 536.25C534.711 534.891 535.086 533.565 535.737 532.368C536.387 531.172 537.297 530.134 538.399 529.331C538.399 529.331 543.188 514.891 546.227 512.6C547.111 511.939 547.852 511.108 548.406 510.156C548.96 509.203 549.316 508.149 549.451 507.056C549.451 507.056 549.211 503.546 550.239 502.77C551.267 501.994 538.64 495.379 538.64 495.379C538.64 495.379 527.105 488.995 516.488 490.214C505.871 491.434 489 483.48 489 483.48C489 483.48 516.358 485.327 522.742 484.967C522.742 484.967 531.645 487.129 536.342 487.129C541.039 487.129 557.715 495.443 557.715 495.443C557.715 495.443 595.209 478.888 635.056 485.281C635.056 485.281 645.164 480.403 651.186 481.807C657.208 483.212 671.077 474.158 675.431 477.511C678.211 473.419 684.844 465.584 692.33 462.064C692.089 459.505 694.248 455.727 701.909 454.359C711.48 452.659 720.318 457.38 720.318 460.355C721.274 460.796 722.063 461.529 722.573 462.448C723.083 463.366 723.286 464.423 723.153 465.464C722.866 468.522 731.491 472.975 735.911 474.823C737.096 474.971 739.033 476.569 737.328 480.671Z" fill="#542D00"/>
<path id="dog11" d="M737.316 479.615C737.444 482.237 735.158 487.064 725.087 485.319C728.319 488.091 733.295 494.343 727.245 497.155C719.677 500.666 717.519 491.451 709.242 493.167C702.61 494.573 697.831 500.476 696.274 503.258C695.969 503.847 695.604 504.634 695.2 505.592C695.2 505.592 685.82 510.578 683.149 521.547C680.479 532.516 705.192 531.259 705.192 531.259C705.192 531.259 710.03 531.698 717.194 539.955C717.194 539.955 736.606 547.205 729.738 553.048L733.62 553.956C733.62 553.956 737.995 558.493 727.649 558.084C721.468 557.84 715.605 555.252 711.223 550.834C711.223 550.834 704.887 552.948 706.217 549.219C706.217 549.219 699.585 543.984 680.676 539.955C680.676 539.955 665.541 540.952 665.747 531.848C665.747 531.848 665.245 527.969 657.786 534.111C650.326 540.254 618.173 532.905 618.173 532.905C618.173 532.905 605.629 526.563 574.817 529.076L568.047 537.841C568.047 537.841 560.982 552.24 554.616 554.963C549.489 560.056 543.089 563.641 536.101 565.334L529.036 573.092C529.036 573.092 527.745 586.693 538.594 588.299L540.289 590.014C540.289 590.014 548.941 591.221 542.378 595H528.987V591.57C528.987 591.57 521.173 583.313 521.38 562.162C521.38 562.162 536.407 556.927 538.298 547.155L535.707 546.955C532.072 551.15 527.293 554.165 521.971 555.621C521.971 555.621 509.033 564.785 505.347 571.327C505.347 571.327 501.672 576.063 500.775 578.307L500.174 582.745C500.174 582.745 506.086 585.866 495.001 587.172L493.099 575.196C493.099 575.196 495.691 571.207 499.268 570.768C499.268 570.768 502.224 562.511 511.013 552.938L510.915 550.356C510.915 550.356 524.355 546.796 530.524 534.51C530.524 534.51 531.716 525.137 542.348 510.029L545.925 506.609L546.024 500.267C546.024 500.267 536.574 489.587 510.294 492.708C510.294 492.708 497.76 496.697 489 495.231C489 495.231 521.518 478.807 550.704 492.808C550.704 492.808 556.676 495.929 562.45 492.309C568.224 488.689 594.199 483.743 594.199 483.743C594.199 483.743 615.592 482.138 629.131 484.152L641.665 480.522H654.603C654.603 480.522 665.619 474.539 674.438 476.304C677.306 472.076 684.007 463.999 691.614 460.349C691.367 457.706 693.584 453.807 701.349 452.371C711.065 450.616 720.071 455.483 720.071 458.554C721.043 459.007 721.846 459.762 722.364 460.709C722.882 461.656 723.087 462.746 722.949 463.819C722.663 466.97 731.462 471.558 735.916 473.462C737.079 473.761 739.05 475.407 737.316 479.615Z" fill="#542D00"/>
<path id="dog12" d="M739.362 479.744C739.475 482.194 737.334 486.687 727.872 485.051C730.91 487.643 735.579 493.461 729.891 496.072C722.787 499.345 720.769 490.765 712.986 492.401C706.76 493.707 702.27 499.203 700.807 501.786C700.515 502.344 700.175 503.072 699.789 503.961L695.298 511.123C695.298 511.123 683.091 514.708 688.789 522.39C694.487 530.071 708.684 530.535 708.684 530.535C708.684 530.535 715.41 531.386 719.146 535.88C722.882 540.373 737.268 546.286 737.268 546.286C737.268 546.286 736.428 556.03 722.891 546.664L716.722 540.761L714.382 542.067C714.382 542.067 705.703 536.542 709.345 542.161C712.034 545.999 715.313 549.383 719.061 552.189C719.061 552.189 723.637 555.377 727.929 555.027C727.929 555.027 733.438 559.757 733.438 561.299H724.004L714.175 554.053C714.175 554.053 709.128 554.8 707.637 550.581C707.637 550.581 692.874 542.436 689.232 538.69C689.232 538.69 670.639 539.91 670.922 532.134L668.214 526.325C668.214 526.325 648.31 537.677 628.98 529.277C609.651 520.876 575.501 523.629 575.501 523.629C571.392 528.964 566.639 533.769 561.351 537.933L553.804 547.544C553.804 547.544 546.937 550.94 543.541 554.261C540.145 557.581 531.164 560.722 531.164 560.722L525.4 565.452C525.4 565.452 511.665 586.368 526.928 588.752C526.928 588.752 528.956 591.647 524.891 592.584C520.825 593.52 514.514 592.584 514.514 592.584C514.514 592.584 513.759 588.582 512.146 588.667C511.572 585.412 512.174 582.058 513.844 579.207C513.844 579.207 518.844 562.718 518.504 557.023C518.504 557.023 529.098 551.063 530.456 547.837C531.815 544.612 517.315 554.895 517.315 554.895C517.315 554.895 507.391 558.631 505.703 563.059C504.014 567.486 495.326 572.405 495.326 572.405C495.326 572.405 485.241 574.619 487.27 567.477C489.298 560.334 497.873 562.463 497.873 562.463L511.863 546.986C511.863 546.986 528.221 540.014 532.551 530.062C532.825 524.328 535.32 518.929 539.503 515.011C541.565 508.955 545.877 503.93 551.54 500.982L550.776 499.033L550.437 496.564C550.437 496.564 542.975 495.116 541.946 492.572L512.702 491.72C512.702 491.72 501.505 495.372 495.656 502.259C495.656 502.259 490.401 497.245 511.514 487.633C532.626 478.022 562.455 490.528 562.455 490.528C562.455 490.528 591.51 475.487 625.028 481.683C625.028 481.683 632.32 483.206 641.329 478.533C650.338 473.859 661.686 476.906 661.686 476.906C661.686 476.906 674.299 471.967 680.252 476.565C682.94 472.639 689.232 465.118 696.374 461.741C696.147 459.281 698.26 455.649 705.524 454.343C714.656 452.716 723.089 457.247 723.089 460.104C724.002 460.526 724.757 461.228 725.244 462.109C725.731 462.991 725.925 464.005 725.797 465.005C725.523 467.937 733.796 472.213 737.975 473.982C739.136 474.295 740.985 475.827 739.362 479.744Z" fill="#542D00"/>
<path id="dog13" d="M735.805 551.563C731.107 557.999 714.852 542.246 714.852 542.246C714.852 542.246 712.119 542.077 711.726 543.132C711.726 543.132 706.421 537.317 694.757 538.256L704.287 549.843L704.84 553.558C704.84 553.558 712.387 558.159 713.227 560.437C713.227 560.437 722.22 559.214 724.283 561.873C726.347 564.533 721.256 567.671 721.256 567.671C717.826 566.449 714.168 565.986 710.538 566.315C710.538 566.315 684.638 543.416 678.583 536.173L671.375 535.898C671.375 535.898 669.142 532.795 669.535 530.242C669.928 527.689 665.177 522.317 665.177 522.317C665.177 522.317 655.513 527.911 649.199 527.973C642.885 528.035 624.192 528.363 609.902 521.483C595.612 514.604 572.391 515.827 572.391 515.827C572.391 515.827 559.047 527.414 551.17 534.958C543.293 542.503 529.324 551.59 529.324 551.59C529.324 551.59 503.853 565.597 502.62 584.249C502.62 584.249 504.406 590.454 498.547 588.681C492.689 586.908 495.922 576.864 495.922 576.864L498.771 574.816C498.771 574.816 506.648 559.231 512.23 553.859L512.176 551.084L515.026 550.366C515.026 550.366 530.209 539.604 519.884 541.324C509.56 543.044 502.022 554.621 502.022 554.621C501.802 555.487 501.364 556.282 500.748 556.932C500.132 557.582 499.359 558.065 498.503 558.336C495.43 559.444 494.761 566.767 494.761 566.767C494.761 566.767 490.563 569.32 489 565.047C489 565.047 490.786 559.338 489.956 557.839C489.125 556.341 494.144 554.515 494.144 554.515C494.144 554.515 500.789 546.306 505.255 540.428C505.255 540.428 513.079 531.563 518.446 531.563C523.814 531.563 531.905 519.923 531.905 519.923C531.905 519.923 535.648 510.171 536.934 505.003C536.934 505.003 541.069 496.634 546.651 496.023C546.651 496.023 547.437 491.528 544.981 490.704C542.525 489.879 529.226 491.368 529.226 491.368C524.83 491.538 520.44 490.917 516.267 489.533C508.836 487.211 492.805 495.358 492.805 495.358C492.805 495.358 486.49 496.962 493.082 492.477C499.673 487.991 511.739 484.764 515.535 484.879C519.33 484.994 522.519 486.422 529.896 484.879C537.273 483.337 555.198 484.879 555.198 484.879C555.198 484.879 588.243 472.397 618.359 477.982C618.359 477.982 627.023 479.099 631.247 479.755C634.882 480.314 665.927 479.072 674.456 478.718C677.27 474.844 682.986 468.363 689.416 465.358C689.202 463.026 691.202 459.569 698.204 458.328C706.966 456.777 715.075 461.085 715.075 463.807C715.95 464.208 716.674 464.875 717.141 465.712C717.609 466.549 717.795 467.512 717.674 468.461C717.415 471.253 725.355 475.314 729.365 476.998C730.446 477.255 732.223 478.709 730.66 482.432C730.776 484.755 728.713 489.028 719.621 487.477C722.551 489.932 727.034 495.455 721.568 497.955C714.745 501.058 712.807 492.911 705.331 494.462C699.356 495.704 695.043 500.925 693.632 503.39C693.355 503.913 693.024 504.604 692.658 505.455C692.658 505.455 678.198 517.468 688.13 525.242C688.13 525.242 696.757 530.774 703.688 530.996C710.619 531.217 720.657 538.815 720.657 538.815L729.874 544.63C729.874 544.63 740.494 545.127 735.805 551.563Z" fill="#542D00"/>
<path id="dog14" d="M754 563.033C754 563.033 748.094 568.848 737.928 565.585L725.892 554.271C723.177 553.932 720.587 552.93 718.35 551.353C714.456 548.68 698.151 546.606 698.151 546.606L687.325 544.299C690.178 553.504 694.141 562.328 699.127 570.576C699.127 570.576 704.596 572.883 704.596 576.776L711.173 577.508C711.173 577.508 721.755 577.508 717.008 582.987C712.261 588.466 691.096 574.957 691.096 574.957C691.096 574.957 682.059 561.214 678.43 552.817C674.801 544.421 665.55 527.994 665.55 527.994C665.55 527.994 643.888 541.015 605.94 523.623C567.992 506.23 558.854 519.364 558.854 519.364C558.854 519.364 545.354 531.887 535.737 542.469C530.989 544.348 526.743 547.306 523.336 551.109C518.1 557.209 504.723 554.759 493.164 569.722C493.164 569.722 487.319 578.118 486.953 583.475L484.28 587.003C484.28 587.003 481.606 600.868 475.761 592.085C469.916 583.303 480.844 578.22 480.844 578.22C480.783 577.454 480.543 576.713 480.142 576.058C479.741 575.403 479.191 574.851 478.536 574.449L478.414 563.013C478.414 563.013 486.923 555.592 489.363 546.342C489.363 546.342 495.198 540.141 496.051 536.126C496.905 532.111 503.106 532.965 503.106 532.965C503.106 532.965 515.305 531.745 518.802 522.017C522.299 512.289 524.027 509.249 524.027 509.249V500.101C524.027 500.101 531.57 491.46 535.097 490.728C534.626 490.137 534.313 489.437 534.186 488.692C534.06 487.947 534.125 487.182 534.375 486.469H522.98C522.98 486.469 518.111 493.412 502.171 489.153C502.171 489.153 474.806 489.519 472 487.689C472 487.689 482.226 483.186 510.202 483.43C510.202 483.43 517.745 484.446 521.15 480.146C524.555 475.846 546.696 478.805 546.696 478.805C546.696 478.805 560.816 467.735 620.182 473.336C627.63 474.68 635.303 473.963 642.373 471.262C651.298 467.643 673.886 471.364 682.313 472.939C686.013 468.619 691.279 463.587 697.023 460.873C696.768 458.057 699.137 453.9 707.544 452.395C718.035 450.525 727.732 455.719 727.732 459.003C728.783 459.492 729.648 460.305 730.203 461.322C730.757 462.339 730.971 463.507 730.813 464.655C730.497 468.019 739.962 472.919 744.81 474.952C746.101 475.257 748.226 476.985 746.356 481.498C746.488 484.304 744.028 489.458 733.14 487.597C736.637 490.566 742.005 497.234 735.479 500.233C727.346 503.974 724.978 494.134 716.032 496.014C712.121 496.974 708.57 499.042 705.806 501.971L701.739 509.747C701.739 509.747 687.67 523.979 693.749 529.712C699.828 535.445 719.661 542.001 719.661 542.001C719.661 542.001 727.793 543.943 738.396 555.379C738.427 555.369 753.39 553.427 754 563.033Z" fill="#542D00"/>
<path id="dog15" d="M754.258 481.743C754.391 484.575 751.901 489.779 740.934 487.901C744.46 490.898 749.871 497.63 743.281 500.658C735.082 504.445 732.704 494.5 723.685 496.399C716.51 497.918 711.263 504.281 709.571 507.268C709.233 507.914 708.834 508.756 708.393 509.793C707.901 509.587 694.823 504.23 691.236 532.157C691.236 532.157 698.103 543.662 716.51 550.539C716.51 550.539 724.515 553.967 731.72 563.932C731.72 563.932 741.785 567.945 744.183 570.922C744.183 570.922 753.407 571.373 744.183 577.213C734.959 583.053 727.149 568.284 727.149 568.284L721.768 563.932C721.768 563.932 717.771 564.733 716.059 561.182C714.348 557.631 679.572 546.987 679.572 546.987C679.572 546.987 674.775 545.612 674.663 541.035C674.663 541.035 668.513 526.604 666.463 532.67V552.714C666.463 552.714 668.985 567.258 672.182 571.035C672.182 571.035 671.27 575.612 676.641 575.838C682.011 576.064 678.127 582.253 678.127 582.253C678.127 582.253 664.977 585.578 660.17 578.014L658.12 560.474C658.12 560.474 650.208 548.055 648.322 535.503L629.402 534.897C629.402 534.897 593.95 522.252 570.254 512.4C570.254 512.4 563.376 509.156 554.132 521.37C549.031 528.23 543.248 534.553 536.872 540.244C536.872 540.244 517.111 551.534 503.839 554.428C503.839 554.428 499.114 556.789 494.881 563.286C494.881 563.286 492.718 570.778 493.015 573.334L490.269 574.216C490.269 574.216 488.393 577.768 490.269 585.937C492.144 594.107 488.69 595 488.69 595C488.69 595 480.624 592.947 479.251 582.396L482.1 579.246C482.1 579.246 488.249 551.873 492.226 543.498C492.226 543.498 493.805 533.163 497.248 533.06C500.692 532.957 515.441 531.982 516.814 522.796C518.187 513.611 518.382 494.839 523.896 492.868C529.41 490.898 528.908 481.342 528.908 481.342C528.908 481.342 518.659 480.86 513.278 485.879H496.264C491.105 486.553 485.877 486.519 480.727 485.776C473.552 484.544 471.184 485.673 471 485.776C471.225 485.612 478.871 480.172 510.716 479.977C510.716 479.977 514.744 470.432 535.99 473.183C535.99 473.183 537.559 474.763 542.868 473.183C548.177 471.602 577.879 468.267 577.879 468.267C577.879 468.267 604.814 468.852 622.412 473.285C640.01 477.719 648.179 471.12 648.179 471.12C648.179 471.12 653.98 470.627 658.305 473.09C658.305 473.09 680.423 475.092 689.186 473.686C692.927 469.201 698.41 463.802 704.488 460.949C704.221 458.106 706.62 453.908 715.086 452.399C725.673 450.511 735.451 455.755 735.451 459.06C736.51 459.548 737.385 460.361 737.95 461.382C738.514 462.404 738.737 463.579 738.587 464.736C738.269 468.133 747.811 473.07 752.7 475.123C753.992 475.451 756.144 477.216 754.258 481.743Z" fill="#542D00"/>
<path id="dog16" d="M735.096 583.638C735.096 583.638 723.067 580.566 717.078 573.583L711.764 573.813C711.764 573.813 708.123 565.779 704.163 565.232C700.204 564.685 681.823 547.373 677.713 547.223C677.713 547.223 673.602 544.363 674.373 541.582C674.373 541.582 669.802 526.345 661.883 530.062C657.56 532.19 652.926 533.623 648.153 534.308C648.153 534.308 643.653 566.627 653.468 570.882C653.468 570.882 657.728 573.045 658.118 575.296C658.118 575.296 668.668 574.519 664.868 581.096C664.868 581.096 651.528 583.647 644.928 578.774C644.928 578.774 641.828 572.277 639.117 571.712C639.117 571.712 638.568 558.876 636.318 553.076C634.068 547.276 633.377 533.213 633.377 533.213C633.377 533.213 625.927 534.449 606.377 522.311C586.827 510.172 568.987 508.239 568.987 508.239C568.987 508.239 564.256 507.851 553.786 529.267C549.358 534.583 543.87 538.924 537.67 542.015C531.469 545.106 524.693 546.879 517.769 547.223C517.769 547.223 508.769 550.083 511.568 562.372C514.367 574.66 509.867 573.124 509.867 573.124C509.867 573.124 512.737 586.569 509.867 587.885C506.997 589.2 500.327 578.845 500.327 578.845C500.327 578.845 496.837 575.049 501.487 571.879L500.938 541.035L503.223 539.075L503.994 531.13C503.994 531.13 525.254 524.95 525.254 520.925C525.254 516.899 524.164 500.055 524.164 500.055C524.164 500.055 524.394 490.927 530.214 487.14C534.404 480.572 531.1 475.62 531.1 475.62C526.384 474.482 521.423 474.919 516.98 476.864C509.38 480.104 512.09 471.373 483 477.747C483 477.747 493.55 467.692 511.16 470.87C511.16 470.87 516.05 472.565 521.79 468.081C527.53 463.596 542.27 470.323 542.27 470.323C542.27 470.323 579.785 457.549 612.419 468.999C612.419 468.999 636.929 473.739 645.752 471.091C654.575 468.443 664.239 473.183 664.239 473.183C664.239 473.183 679.378 472.512 686.748 476.714C689.476 474.031 692.612 471.794 696.04 470.085C695.801 467.516 697.971 463.729 705.66 462.36C715.263 460.656 724.13 465.388 724.13 468.372C725.091 468.813 725.886 469.548 726.399 470.471C726.912 471.393 727.117 472.455 726.982 473.501C726.69 476.564 735.388 481.031 739.782 482.876C740.96 483.159 742.909 484.757 741.199 488.853C741.323 491.404 739.073 496.101 729.117 494.397C732.315 497.098 737.222 503.181 731.243 505.873C723.775 509.289 721.649 500.32 713.464 502.024C706.918 503.392 702.197 509.139 700.664 511.841C700.354 512.423 699.991 513.183 699.592 514.118C699.592 514.118 693.392 519.751 693.232 539.463C693.232 539.463 704.013 554.303 711.613 558.408C711.613 558.408 716.653 562.036 717.353 565.673C717.353 565.673 726.043 569.92 726.743 571.623H726.043C726.043 571.623 727.443 573.327 726.743 571.623C729.852 571.623 742.271 571.959 742.953 575.331C743.706 579.224 735.096 583.638 735.096 583.638Z" fill="#542D00"/>
<path id="dog17 " d="M755.128 486.689C755.285 489.992 752.376 496.061 739.502 493.871C743.637 497.354 749.972 505.218 742.255 508.75C732.639 513.155 729.838 501.568 719.261 503.782C710.847 505.554 706.279 514.555 702.709 516.458C700.017 517.859 685.569 523.844 684.679 525.161V525.221V533.971C684.679 533.971 680.027 542.35 683.117 549.245C686.206 556.14 695.726 577.662 695.726 577.662C695.726 577.662 710.943 591.524 724.574 587.61C724.574 587.61 732.771 593.295 726.713 594.72C720.655 596.144 710.534 594.014 710.534 594.014C710.534 594.014 708.13 590.423 699.716 590.698L664.762 554.691V546.049C664.762 546.049 658.932 541.261 658.692 538.113L642.994 541.548L627.777 542.613C627.777 542.613 623.377 549.724 623.137 561.682C623.137 561.682 624.796 571.258 622.536 574.586C620.276 577.914 628.546 582.283 628.546 582.283C628.546 582.283 631.875 590.339 619.387 584.294L612.968 571.869V537.526C612.968 537.526 566.547 506.248 558.337 511.575C558.337 511.575 550.188 546.396 524.092 551.843C524.092 551.843 510.113 557.169 508.466 560.952C506.82 564.734 510.87 586.891 510.87 586.891C510.87 586.891 521.171 587.837 519.993 596.132C518.816 604.428 504.055 592.218 503.694 590.913C503.334 589.609 503.694 582.271 503.694 582.271L494.307 552.345C494.307 552.345 498.466 548.754 496.086 546.54C496.086 546.54 492.876 536.712 501.795 536.365C510.714 536.018 520.703 527.244 519.032 522.144C517.361 517.045 515.354 508.977 515.354 508.977L512.613 504.835C512.613 504.835 509.764 500.215 518.082 488.017L518.323 475.82C518.323 475.82 508.334 470.253 502.504 472.624C502.504 472.624 488.717 457.816 471 452.49C471 452.49 487.167 449.772 501.795 465.046C501.795 465.046 519.753 464.807 526.292 470.373C532.831 475.939 535.571 461.994 568.025 462.09C600.479 462.185 609.771 469.272 609.771 469.272C609.771 469.272 639.111 475.341 651.131 472.612C651.131 472.612 657.141 471.415 659.209 476.047C665.834 475.635 672.485 475.948 679.042 476.981C683.441 471.822 689.788 465.705 696.723 462.449C696.423 459.133 699.223 454.237 709.164 452.466C721.569 450.263 733.048 456.38 733.048 460.234C734.287 460.806 735.312 461.755 735.973 462.945C736.634 464.136 736.898 465.504 736.726 466.854C736.353 470.816 747.544 476.586 753.277 478.98C754.828 479.339 757.34 481.41 755.128 486.689Z" fill="#542D00"/>
<path id="dog18" d="M742.191 484.203C742.339 487.339 739.609 493.089 727.545 491.007C731.431 494.316 737.383 501.764 730.127 505.122C721.077 509.299 718.494 498.319 708.583 500.413C700.651 502.086 694.932 509.088 693.063 512.434C692.694 513.14 692.252 514.082 691.772 515.222C691.772 515.222 679.549 522.844 669.895 523.278C660.242 523.712 656.811 548.559 656.811 548.559L659.811 572.552C659.811 572.552 668.112 587.596 690.432 585.502C690.432 585.502 696.445 589.703 695.351 593.161C694.256 596.618 673.523 592.169 673.523 592.169C673.523 592.169 666.28 584.511 661.373 585.626L638.561 550.926C638.561 550.926 642.484 534.233 634.872 536.823C627.26 539.413 610.585 537.319 610.585 537.319C610.585 537.319 601.141 551.533 600.157 562.91C600.157 562.91 595.496 573.171 598.693 581.697C598.693 581.697 611.323 583.309 611.569 589.616C611.815 595.924 593.787 591.711 593.787 591.711C593.787 591.711 589.729 583.036 591.204 579.318C592.68 575.6 584.453 570.643 584.453 570.643C584.453 570.643 592.68 553.95 592.926 542.573C592.926 542.573 596.615 531.321 597.218 530.713C597.218 530.713 586.298 520.7 579.067 519.56C579.067 519.56 564.827 506.324 555.136 506.572L553.304 521.53C553.304 521.53 550.476 537.641 524.59 552.314C524.59 552.314 516.744 560.233 515.883 562.823C515.883 562.823 524.59 574.572 521.405 578.934C521.405 578.934 528.648 590.31 533.923 592.653C533.923 592.653 529.004 602.914 520.913 595.007L517.605 584.003C517.605 584.003 503.131 569.664 502.024 559.217L499.319 557.11L502.639 553.529C502.639 553.529 496.38 544.631 497.72 538.323C497.72 538.323 520.163 529.053 517.961 520.031C516.452 514.398 513.289 509.357 508.886 505.568C508.886 505.568 505.32 493.82 511.087 485.17C516.855 476.52 510.718 471.687 510.718 471.687C510.718 471.687 482.139 465.49 484.832 427.804L483 421L487.538 425.201C487.538 425.201 490.231 449.565 498.827 456.481C507.423 463.396 523.606 466.395 523.606 466.395C523.606 466.395 553.046 446.368 600.145 464.672C600.145 464.672 640.873 464.92 650.933 472.579L673.252 472.405C677.274 467.842 682.092 464.062 687.468 461.252C687.185 458.104 689.817 453.457 699.126 451.784C710.759 449.689 721.507 455.502 721.507 459.157C722.67 459.696 723.633 460.594 724.254 461.722C724.876 462.85 725.124 464.148 724.963 465.428C724.618 469.146 735.157 474.661 740.482 476.929C741.908 477.239 744.245 479.197 742.191 484.203Z" fill="#542D00"/>
<path id="dog19" d="M737.221 485.9C737.361 488.862 734.751 494.293 723.203 492.339C726.912 495.473 732.606 502.514 725.672 505.681C717.046 509.641 714.544 499.241 705.055 501.237C697.507 502.815 685.527 511.101 683.747 514.235C683.392 514.911 678.55 516.907 678.086 517.991C678.086 517.991 669.557 526.427 658.979 529.207C648.401 531.987 635.429 553.206 635.429 553.206C635.136 557.624 635.536 562.059 636.615 566.354C636.615 566.354 632.636 587.251 649.738 591.287C649.738 591.287 655.755 593.734 648.897 598.285C642.039 602.836 628.409 591.63 628.409 591.63C628.409 591.63 630.857 586.747 630.565 584.471C630.274 582.196 617.238 554.666 617.238 554.666C617.238 554.666 615.976 548.226 617.238 546.917C618.499 545.607 601.915 543.632 601.915 543.632C601.915 543.632 598.195 549.868 594.895 552.82C591.595 555.771 584.479 573.985 584.479 573.985L580.834 577.527L577.286 586.629C577.286 586.629 579.065 590.085 581.686 590.75C584.306 591.416 584.306 597.19 576.014 598.006C567.722 598.821 571.701 591.426 571.701 591.426L574.828 576.132C574.828 576.132 572.962 571.334 576.1 567.374C579.238 563.413 589.471 535.518 589.471 535.518C589.471 535.518 555.267 505.294 556.292 518.743C557.316 532.191 556.292 531.043 556.292 531.043C556.292 531.043 550.728 549.836 537.26 561.632C529.474 570.733 533.96 575.531 533.96 575.531C533.96 575.531 541.508 577.978 538.273 582.615L534.467 583.688C534.467 583.688 541.832 588.743 543.018 591.942C544.204 595.14 552.722 594.389 552.722 594.389C552.722 594.389 559.322 601.977 551.536 604.843C543.751 607.708 516.06 570.497 516.06 570.497L518.346 567.213C518.346 567.213 505.406 556.684 506.334 550.534C506.334 550.534 521.904 541.26 524.277 531.15C524.277 531.15 518.346 518.335 515.219 518.421C512.092 518.506 507.509 511.68 509.288 504.768C511.067 497.856 509.461 482.615 509.461 482.615C509.461 482.615 474.125 463.747 496.327 428.285C496.327 428.285 498.117 418.904 499.562 420.106C501.007 421.308 499.648 428.822 499.648 428.822C499.648 428.822 489.447 452.091 499.001 463.843C500.03 463.928 501.006 464.328 501.798 464.987C502.589 465.646 503.157 466.532 503.422 467.525C503.422 467.525 511.369 475.832 518.12 476.39C524.87 476.948 524.708 474.48 524.708 474.48C524.708 474.48 553.477 455.429 593.375 472.14C593.375 472.14 635.709 472.762 646.212 479.138C646.212 479.138 659.777 478.805 668.576 477.657C672.522 472.934 678.388 467.181 684.826 464.165C684.545 461.192 687.069 456.792 695.986 455.214C707.136 453.239 717.38 458.724 717.38 462.18C718.494 462.689 719.415 463.54 720.009 464.608C720.602 465.676 720.837 466.905 720.679 468.115C720.345 471.668 730.384 476.841 735.528 478.977C736.94 479.31 739.205 481.156 737.221 485.9Z" fill="#542D00"/>
<path id="dog20" d="M742.152 482.078C742.301 485.265 739.535 491.109 727.228 489.007C731.189 492.379 737.239 499.954 729.857 503.361C720.673 507.622 718.01 496.432 707.919 498.58C699.883 500.278 693.994 507.438 692.1 510.81C691.721 511.526 691.285 512.484 690.78 513.639C690.78 513.639 684.156 517.669 679.082 517.669C674.007 517.669 658.911 537.174 658.911 537.174C658.911 537.174 649.992 541.378 646.444 548.399C642.897 555.42 641.232 584.822 641.232 584.822C641.232 584.822 643.184 588.482 643.184 590.446C643.184 590.446 648.224 591.473 649.234 594.28C649.234 594.28 667.854 591.658 666.637 601.024C665.421 610.389 642.908 600.273 642.908 600.273C642.908 600.273 639.522 592.039 632.37 593.529L631.566 578.643L628.478 549.715L625.126 540.916C625.126 540.916 623.002 538.294 611.821 563.1C611.821 563.1 612.28 571.183 606.517 573.308C600.754 575.433 588.081 586.23 588.081 586.23C588.081 586.23 583.489 593.344 578.587 587.166C573.685 580.988 585.015 576.68 585.015 576.68C585.015 576.68 599.629 569.382 601.087 561.668C602.545 553.953 608.71 534.98 608.71 534.98C608.71 534.98 595.313 520.845 583.121 514.759L578.529 514.852L579.746 519.067C579.746 519.067 582.49 547.614 568.576 566.345C568.576 566.345 564.352 589.66 598.309 597.986L595.428 603.703L583.948 603.795L551.092 573.366C551.092 573.366 559.473 569.717 557.234 549.496C557.234 549.496 548.762 554.646 555.191 561.287C555.191 561.287 556.591 567.753 551.93 569.624L538.258 556.921V552.799C538.258 552.799 552.114 539.507 549.508 529.495C549.508 529.495 529.774 517.323 528.936 510.198C528.423 506.064 528.423 501.882 528.936 497.749C528.936 497.749 528.488 490.254 526.158 487.078V481.847C526.158 481.847 483.43 454.282 525.596 413.54C525.596 413.54 530.188 409.879 525.343 421.624C525.343 421.624 510.741 435.551 513.955 453.716C513.955 453.716 516.687 461.049 519.396 461.672C522.922 467.432 528.136 471.951 534.32 474.606C534.32 474.606 571.791 448.611 613.44 467.77C613.44 467.77 655.249 467.273 661.908 474.237L667.361 475.288C671.493 469.952 678.496 462.469 686.268 458.785C685.981 455.587 688.644 450.852 698.138 449.154C709.985 447.029 720.937 452.93 720.937 456.649C722.125 457.197 723.109 458.111 723.745 459.26C724.381 460.408 724.636 461.731 724.473 463.035C724.106 466.858 734.805 472.424 740.269 474.722C741.854 474.987 744.31 476.974 742.152 482.078Z" fill="#542D00"/>
<path id="dog21" d="M739.289 472.436C739.416 475.147 737.048 480.136 726.577 478.325C729.944 481.195 735.101 487.656 728.818 490.558C720.967 494.191 718.726 484.669 710.117 486.48C703.234 487.931 698.267 494.032 696.657 496.902C696.331 497.516 695.952 498.321 695.531 499.317L679.861 506.201C679.861 506.201 673.978 512.228 673.315 515.575C672.652 518.922 654.74 529.344 654.74 529.344C654.74 529.344 641.059 537.012 638.817 549.468L635.166 554.838C635.166 554.838 634.218 568.85 630.567 576.783C630.567 576.783 634.892 582.079 635.145 585.32C635.145 585.32 648.657 586.548 646.563 590.52C644.469 594.492 632.387 592.501 632.387 592.501C632.387 592.501 621.948 576.148 621.337 564.635C621.337 564.635 604.972 570.99 601.036 574.665C601.036 574.665 595.985 577.143 595.985 566.245C595.985 566.245 606.94 568.469 619.611 554.721V529.587C619.611 529.587 604.878 511.127 591.312 511.01C591.312 511.01 596.974 538.251 591.312 559.551C591.312 559.551 586.629 578.012 613.834 582.587C613.834 582.587 624.442 577.292 626.178 584.928C627.915 592.564 615.412 590.891 615.412 590.891C615.412 590.891 605.835 591.495 601.952 585.775C598.069 580.056 583.346 576.677 577.663 564.942L560.961 551.999L568.928 532.426L555.1 518.996C555.1 518.996 541.218 512.016 542.471 496.182C542.471 496.182 541.334 489.319 538.998 488.228L539.24 481.672C539.24 481.672 492.093 444.834 545.407 417C545.407 417 548.512 418.26 543.081 422.794C537.651 427.327 521.949 442.176 525.527 450.617C529.105 459.059 534.694 470.625 546.649 474.067C546.649 474.067 572.959 446.868 617.328 463.126C617.328 463.126 659.897 464.058 662.381 467.193L674.641 468.03C677.914 463.497 684.46 455.998 691.826 452.503C691.574 449.781 693.858 445.745 701.94 444.294C712.043 442.483 721.367 447.472 721.367 450.649C722.372 451.121 723.204 451.901 723.742 452.876C724.281 453.852 724.499 454.974 724.367 456.083C724.061 459.345 733.207 464.079 737.827 466.049C739.047 466.388 741.089 468.072 739.289 472.436Z" fill="#542D00"/>
<path id="dog22" d="M742.17 475.632C742.319 478.791 739.558 484.595 727.343 482.5C731.267 485.831 737.277 493.352 729.955 496.729C720.831 500.942 718.173 489.861 708.136 491.978C700.152 493.661 694.324 500.759 692.431 504.101C692.054 504.822 691.609 505.761 691.119 506.906C691.119 506.906 681.401 512.79 675.71 517.323C670.019 521.856 677.637 523.848 668.867 528.599C660.096 533.349 637.558 549.868 637.558 549.868C637.558 549.868 644.333 570.805 639.486 577.49C634.638 584.175 626.483 587.312 626.483 587.312C626.483 587.312 621.533 598.53 612.614 596.47L617.884 582.332C617.884 582.332 627.133 583.958 629.392 576.941C629.392 576.941 624.681 572.362 630.795 571.011C630.795 571.011 631.217 560.216 625.411 566.581C619.606 572.946 609.512 600.236 609.512 600.236C609.512 600.236 608.976 604.815 616.925 604.815C624.875 604.815 627.898 605.456 622.845 610.962C622.845 610.962 621.978 612.256 619.081 612.107C616.184 611.958 619.617 617.499 610.265 613.618C600.912 609.737 604.778 564.2 619.298 548.986C619.298 548.986 625.309 545.106 613.812 544.888C613.812 544.888 604.459 539.485 603.923 535.284C603.923 535.284 595.426 529.56 595.107 527.729C594.787 525.897 586.94 524.386 586.94 524.386C586.94 524.386 578.66 522.657 578.01 524.489C577.359 526.32 579.298 533.235 579.298 533.235C580.076 536.145 581.158 538.966 582.526 541.649C584.568 545.426 582.845 552.226 582.845 552.226C582.845 552.226 584.784 557.297 586.723 559.232C588.662 561.166 587.476 576.712 587.476 576.712L592.951 588.159L597.365 587.621L603.273 590.426C603.273 590.426 602.52 604.884 605.965 611.249L558.654 575.052L560.798 555.305C560.798 555.305 546.291 538.798 537.155 531.895C537.155 531.895 526.616 529.308 526.08 513.442C526.08 513.442 523.502 504.055 520.696 503.14C520.696 503.14 519.624 494.405 520.696 492.997C520.696 492.997 492.182 479.833 495.228 450.493C502.858 426.648 526.023 432.681 526.023 432.681L521.837 436.356C521.837 436.356 503.018 439.378 501.729 455.885C500.44 472.392 529.365 486.094 529.365 486.094C529.365 486.094 554.639 465.317 579.173 466.382C603.706 467.447 610.458 471.03 610.458 471.03L666.072 471.671V471.614C669.494 466.542 677.66 456.835 686.865 452.474C686.579 449.303 689.237 444.621 698.669 442.926C710.44 440.82 721.321 446.67 721.321 450.356C722.5 450.899 723.476 451.806 724.106 452.945C724.736 454.083 724.987 455.394 724.822 456.686C724.469 460.475 735.087 465.993 740.528 468.282C741.885 468.591 744.269 470.583 742.17 475.632Z" fill="#542D00"/>
<path id="dog23" d="M742.076 473.884C742.242 477.38 739.143 483.788 725.499 481.483C729.886 485.181 736.618 493.489 728.419 497.225C718.218 501.899 715.259 489.627 704.038 491.982C695.112 493.844 688.583 501.696 686.479 505.394C686.046 506.179 685.561 507.218 685.013 508.497C685.013 508.497 679.415 512.448 675.105 512.778C675.105 512.778 666.905 539.475 643.226 545.82C643.226 545.82 638.648 542.73 654.702 569.237C652.806 582.473 646.93 594.833 637.845 604.698C637.845 604.698 628.013 603.229 634.236 591.679C634.236 591.679 648.161 582.243 643.238 578.026C638.316 573.809 642.92 574.936 642.92 574.936C642.92 574.936 639.273 559.485 632.17 558.662C632.17 558.662 626.7 564.032 625.233 569.237C625.233 569.237 613.604 579.647 611.971 591.679L589.86 607.94C589.86 607.94 578.562 600.341 588.585 597.213C598.608 594.085 603.16 582.573 603.16 582.573C603.16 582.573 607.253 557.37 613.973 553.444C620.694 549.518 602.344 546.605 602.344 546.605C602.344 546.605 577.619 525.949 573.36 527.608C569.101 529.267 565.505 530.698 565.505 530.698C565.505 530.698 563.375 535.903 565.505 546.96C567.634 558.016 573.525 575.747 573.525 575.747L572.709 592.008C572.709 592.008 577.95 604.85 588.266 612.499C588.266 612.499 620.515 616.236 608.669 625.025L589.184 626C589.184 626 579.684 612.335 555.609 591.197C555.609 591.197 553.059 580.141 554.628 576.228C554.628 576.228 543.827 562.297 539.734 561.6C535.64 560.904 534.811 547.935 517.954 538.804C517.954 538.804 510.303 530.344 511.068 522.707C511.068 522.707 504.361 507.091 505.661 501.557C505.661 501.557 438.537 468.54 488.472 432.281C489.929 431.171 491.644 430.444 493.458 430.166C493.976 430.076 494.501 430.021 495.027 430.001C499.12 429.837 480.451 446.465 480.451 446.465C480.451 446.465 461.133 476.861 514.677 492.653C514.677 492.653 539.045 463.398 593.418 471.655C593.418 471.655 606.042 473.846 616.613 470.794C625.144 468.337 648.492 469.325 657.189 469.794L656.934 469.452C660.759 463.829 669.889 453.089 680.193 448.276C679.861 444.756 682.845 439.576 693.378 437.714C706.55 435.384 718.715 441.855 718.715 445.933C720.033 446.535 721.122 447.539 721.824 448.799C722.526 450.059 722.804 451.509 722.617 452.937C722.222 457.129 734.157 463.221 740.176 465.754C741.745 466.108 744.422 468.287 742.076 473.884Z" fill="#542D00"/>
</g>
</g>
</svg>
